<?xml version="1.0" encoding="us-ascii" standalone="no"?><svg xmlns="http://www.w3.org/2000/svg" xmlns:xlink="http://www.w3.org/1999/xlink" contentStyleType="text/css" height="423px" preserveAspectRatio="none" style="width:817px;height:423px;background:#FFFFFF;" version="1.1" viewBox="0 0 817 423" width="817px" zoomAndPan="magnify"><defs/><g><!--cluster Library Management System--><g id="cluster_Library Management System"><rect fill="#E8F5E9" height="314" rx="2.5" ry="2.5" style="stroke:#388E3C;stroke-width:3.0;" width="804.94" x="7" y="7.188"/><text fill="#000000" font-family="sans-serif" font-size="16" font-weight="bold" lengthAdjust="spacing" textLength="232" x="293.47" y="26.292">Library Management System</text></g><!--cluster Transaction Management--><g id="cluster_Transaction Management"><rect fill="#B2DFDB" height="157" rx="2.5" ry="2.5" style="stroke:#388E3C;stroke-width:3.0;" width="439.32" x="348.62" y="140.188"/><text fill="#000000" font-family="sans-serif" font-size="16" font-weight="bold" lengthAdjust="spacing" textLength="206" x="465.28" y="159.292">Transaction Management</text></g><!--cluster System Operations--><g id="cluster_System Operations"><rect fill="#CFD8DC" height="242" rx="2.5" ry="2.5" style="stroke:#388E3C;stroke-width:3.0;" width="226.62" x="31" y="55.188"/><text fill="#000000" font-family="sans-serif" font-size="16" font-weight="bold" lengthAdjust="spacing" textLength="153" x="67.81" y="74.292">System Operations</text></g><g id="elem_UC15"><ellipse cx="443.5575" cy="266.1925" fill="#FFF9C4" rx="55.9475" ry="14.8545" style="stroke:#F57C00;stroke-width:2.0;"/><text fill="#000000" font-family="sans-serif" font-size="12" lengthAdjust="spacing" textLength="61" x="410.0575" y="269.8566">Issue Book</text></g><g id="elem_UC16"><ellipse cx="443.5614" cy="198.1863" fill="#FFF9C4" rx="78.9414" ry="18.1883" style="stroke:#F57C00;stroke-width:2.0;"/><text fill="#000000" font-family="sans-serif" font-size="12" lengthAdjust="spacing" textLength="115" x="383.0614" y="201.8503">Process Book Return</text></g><g id="elem_UC17"><ellipse cx="706.7161" cy="245.1912" fill="#FFF9C4" rx="65.2161" ry="15.4432" style="stroke:#F57C00;stroke-width:2.0;"/><text fill="#000000" font-family="sans-serif" font-size="12" lengthAdjust="spacing" textLength="78" x="664.7161" y="248.8553">Calculate Fine</text></g><g id="elem_UC24"><ellipse cx="144.3078" cy="193.1916" fill="#FFF9C4" rx="84.2178" ry="19.2436" style="stroke:#F57C00;stroke-width:2.0;"/><text fill="#000000" font-family="sans-serif" font-size="12" lengthAdjust="spacing" textLength="128" x="77.6999" y="196.7411">Check Book Availability</text></g><g id="elem_UC25"><ellipse cx="144.3137" cy="264.1908" fill="#FFF9C4" rx="71.6137" ry="16.7227" style="stroke:#F57C00;stroke-width:2.0;"/><text fill="#000000" font-family="sans-serif" font-size="12" lengthAdjust="spacing" textLength="96" x="93.3137" y="267.8548">Validate Member</text></g><g id="elem_UC26"><ellipse cx="144.311" cy="117.1902" fill="#FFF9C4" rx="97.311" ry="21.8622" style="stroke:#F57C00;stroke-width:2.0;"/><text fill="#000000" font-family="sans-serif" font-size="12" lengthAdjust="spacing" textLength="158" x="65.311" y="119.8462">Update Transaction Records</text></g><!--entity librarian--><g id="elem_librarian"><ellipse cx="706.72" cy="347.148" fill="#E3F2FD" rx="8" ry="8" style="stroke:#1976D2;stroke-width:2.0;"/><path d="M706.72,355.148 L706.72,382.148 M693.72,363.148 L719.72,363.148 M706.72,382.148 L693.72,397.148 M706.72,382.148 L719.72,397.148 " fill="none" style="stroke:#1976D2;stroke-width:2.0;"/><text fill="#000000" font-family="sans-serif" font-size="14" font-weight="bold" lengthAdjust="spacing" textLength="62" x="675.72" y="415.1139">Librarian</text></g><!--link UC15 to librarian--><g id="link_UC15_librarian"><path d="M461.77,280.618 C482.18,297.048 517.83,323.618 552.5,339.188 C593.07,357.398 643.65,368.178 675.33,373.638 " fill="none" id="UC15-librarian" style="stroke:#424242;stroke-width:2.0;"/></g><!--link UC16 to librarian--><g id="link_UC16_librarian"><path d="M483.94,214.218 C496.58,219.928 510.43,226.788 522.5,234.188 C579.95,269.358 640.18,319.688 675.26,350.588 " fill="none" id="UC16-librarian" style="stroke:#424242;stroke-width:2.0;"/></g><!--link UC17 to librarian--><g id="link_UC17_librarian"><path d="M706.72,260.948 C706.72,286.258 706.72,311.568 706.72,336.878 " fill="none" id="UC17-librarian" style="stroke:#424242;stroke-width:2.0;"/></g><!--reverse link UC24 to UC15--><g id="link_UC24_UC15"><path d="M208.8069,208.7787 C267.0469,223.0787 349.76,243.388 401.31,256.058 " fill="none" id="UC24-backto-UC15" style="stroke:#424242;stroke-width:2.0;stroke-dasharray:7.0,7.0;"/><polygon fill="#424242" points="202.98,207.348,210.7666,213.3787,207.8358,208.5403,212.6742,205.6095,202.98,207.348" style="stroke:#424242;stroke-width:2.0;"/><text fill="#000000" font-family="sans-serif" font-size="13" lengthAdjust="spacing" textLength="57" x="274.62" y="221.215">&#171;include&#187;</text></g><!--reverse link UC25 to UC15--><g id="link_UC25_UC15"><path d="M219.861,268.9467 C239.181,270.0067 254.22,270.658 273.62,271.188 C299.83,271.898 306.41,271.778 332.62,271.188 C350.77,270.768 370.59,269.978 388.34,269.138 " fill="none" id="UC25-backto-UC15" style="stroke:#424242;stroke-width:2.0;stroke-dasharray:7.0,7.0;"/><polygon fill="#424242" points="213.87,268.618,222.6374,273.105,218.8625,268.8919,223.0756,265.1171,213.87,268.618" style="stroke:#424242;stroke-width:2.0;"/><text fill="#000000" font-family="sans-serif" font-size="13" lengthAdjust="spacing" textLength="57" x="274.62" y="267.085">&#171;include&#187;</text></g><!--reverse link UC26 to UC15--><g id="link_UC26_UC15"><path d="M213.3595,135.9911 C232.3495,142.0111 247.32,147.638 265.62,156.188 C297.47,171.048 312.35,169.478 332.62,198.188 C342.08,211.578 329.54,222.108 340.62,234.188 C353.61,248.328 372.75,256.268 390.96,260.708 " fill="none" id="UC26-backto-UC15" style="stroke:#424242;stroke-width:2.0;stroke-dasharray:7.0,7.0;"/><polygon fill="#424242" points="207.64,134.178,215.0105,140.7107,212.4062,135.689,217.428,133.0847,207.64,134.178" style="stroke:#424242;stroke-width:2.0;"/><text fill="#000000" font-family="sans-serif" font-size="13" lengthAdjust="spacing" textLength="57" x="274.62" y="156.095">&#171;include&#187;</text></g><!--reverse link UC26 to UC16--><g id="link_UC26_UC16"><path d="M247.3208,115.3094 C277.1508,116.9594 303.77,120.888 332.62,130.188 C366.16,140.988 399.91,164.118 421,180.388 " fill="none" id="UC26-backto-UC16" style="stroke:#424242;stroke-width:2.0;stroke-dasharray:7.0,7.0;"/><polygon fill="#424242" points="241.33,114.978,250.0953,119.469,246.3224,115.2542,250.5372,111.4812,241.33,114.978" style="stroke:#424242;stroke-width:2.0;"/><text fill="#000000" font-family="sans-serif" font-size="13" lengthAdjust="spacing" textLength="57" x="274.62" y="114.195">&#171;include&#187;</text></g><!--link UC16 to UC17--><g id="link_UC16_UC17"><path d="M506.79,209.378 C551.59,217.448 605.4548,227.1354 647.7448,234.7454 " fill="none" id="UC16-to-UC17" style="stroke:#424242;stroke-width:2.0;stroke-dasharray:7.0,7.0;"/><polygon fill="#424242" points="653.65,235.808,645.5007,230.2773,648.729,234.9225,644.0839,238.1508,653.65,235.808" style="stroke:#424242;stroke-width:2.0;"/><text fill="#000000" font-family="sans-serif" font-size="13" lengthAdjust="spacing" textLength="57" x="553.5" y="214.765">&#171;include&#187;</text></g><!--SRC=[XPDVRzem5CNVyockqeTk3wtAlm1JXGG9aP1MhIfbxoQv9HR6ZcndY4tzxhMT14AWgv0Y-PvZtz-vDWpVD6W1acuo3IcLc6Wgk7SBQajvJYJP0QCSzI57o0KxsCLrLKYT2SzeIsrT6-_aoKco9Hkq0e9jGVY6OSEWCfAAlTa4RuIfff8HdkubrHfvfPaEqqGB2UgY3t7rVnx0p7JSI57mD1JCr6xclRWRHrOHCaLPLJlZOH1rZzNNZ2PRZag1hSM2woNzYz3froiNO2rOwhrRZfL2I8ZvNA8K2fro5IQEut7ORyF4Ws7uyF0bZ5rDfHJxfi7XF9TZla9pdFadmnd5W_cupTCRZUQzy0fFxumd-6GuZl4AYwjNBVfT-_Eyyk9-qhKaaX8EH9btLIqyxqJlbvO3F15kakwGQrWUbCQTRv8PaEgbWVyg2LV4FUQ6sOURMJUAevcR0nnloLyeLQ09AhQ-RRuAEuDpmxCKYSrkBV22kf2yTWRdpf2mf6148yJchr6RXiRqRWblAs3tU4ApGy6t1TSeEM7VcmagswyS9R4nb84FusWKXMtuCCDaMv9D_n3Ao9eogWzLwsx_tFsRC9fQl2VShL7MhbRULUuypJ6-O68UWget12wHoMJk-dHp4bb9cz5SUSTBX3jsLqxreXHSbeRsp0LFM95YwqHx1jmNznEN37x0uoCjZPF9kJZudnXSYi4NejCwmvRs0G00]--></g></svg>