<?xml version="1.0" encoding="us-ascii" standalone="no"?><svg xmlns="http://www.w3.org/2000/svg" xmlns:xlink="http://www.w3.org/1999/xlink" contentStyleType="text/css" height="1087px" preserveAspectRatio="none" style="width:645px;height:1087px;background:#FFFFFF;" version="1.1" viewBox="0 0 645 1087" width="645px" zoomAndPan="magnify"><defs/><g><!--cluster Library Management System--><g id="cluster_Library Management System"><rect fill="#E8F5E9" height="1074" rx="2.5" ry="2.5" style="stroke:#388E3C;stroke-width:3.0;" width="301.13" x="338" y="7.188"/><text fill="#000000" font-family="sans-serif" font-size="16" font-weight="bold" lengthAdjust="spacing" textLength="232" x="372.565" y="26.292">Library Management System</text></g><!--cluster Book Management--><g id="cluster_Book Management"><rect fill="#FFCCBC" height="299" rx="2.5" ry="2.5" style="stroke:#388E3C;stroke-width:3.0;" width="205.47" x="385.83" y="758.188"/><text fill="#000000" font-family="sans-serif" font-size="16" font-weight="bold" lengthAdjust="spacing" textLength="153" x="412.065" y="777.292">Book Management</text></g><!--cluster Member Management--><g id="cluster_Member Management"><rect fill="#D1C4E9" height="307" rx="2.5" ry="2.5" style="stroke:#388E3C;stroke-width:3.0;" width="223.03" x="377.05" y="427.188"/><text fill="#000000" font-family="sans-serif" font-size="16" font-weight="bold" lengthAdjust="spacing" textLength="180" x="398.565" y="446.292">Member Management</text></g><!--cluster Reports--><g id="cluster_Reports"><rect fill="#F8BBD0" height="348" rx="2.5" ry="2.5" style="stroke:#388E3C;stroke-width:3.0;" width="253.13" x="362" y="55.188"/><text fill="#000000" font-family="sans-serif" font-size="16" font-weight="bold" lengthAdjust="spacing" textLength="63" x="457.065" y="74.292">Reports</text></g><g id="elem_UC9"><ellipse cx="488.5584" cy="1025.1857" fill="#FFF9C4" rx="66.2384" ry="15.6477" style="stroke:#F57C00;stroke-width:2.0;"/><text fill="#000000" font-family="sans-serif" font-size="12" lengthAdjust="spacing" textLength="81" x="445.0584" y="1028.8497">Add New Book</text></g><g id="elem_UC10"><ellipse cx="488.5636" cy="956.1867" fill="#FFF9C4" rx="78.5436" ry="18.1087" style="stroke:#F57C00;stroke-width:2.0;"/><text fill="#000000" font-family="sans-serif" font-size="12" lengthAdjust="spacing" textLength="114" x="428.5636" y="959.8508">Update Book Details</text></g><g id="elem_UC11"><ellipse cx="488.557" cy="888.1898" fill="#FFF9C4" rx="61.207" ry="14.8918" style="stroke:#F57C00;stroke-width:2.0;"/><text fill="#000000" font-family="sans-serif" font-size="12" lengthAdjust="spacing" textLength="68" x="451.557" y="891.8538">Delete Book</text></g><g id="elem_UC22"><ellipse cx="488.5566" cy="818.1853" fill="#FFF9C4" rx="86.7366" ry="19.7473" style="stroke:#F57C00;stroke-width:2.0;"/><text fill="#000000" font-family="sans-serif" font-size="12" lengthAdjust="spacing" textLength="134" x="419.7788" y="821.4766">Manage Book Database</text></g><g id="elem_UC12"><ellipse cx="488.5562" cy="701.1852" fill="#FFF9C4" rx="71.9862" ry="16.7972" style="stroke:#F57C00;stroke-width:2.0;"/><text fill="#000000" font-family="sans-serif" font-size="12" lengthAdjust="spacing" textLength="97" x="437.0562" y="704.8493">Register Member</text></g><g id="elem_UC13"><ellipse cx="488.5637" cy="632.1908" fill="#FFF9C4" rx="71.6137" ry="16.7227" style="stroke:#F57C00;stroke-width:2.0;"/><text fill="#000000" font-family="sans-serif" font-size="12" lengthAdjust="spacing" textLength="96" x="437.5637" y="635.8548">Remove Member</text></g><g id="elem_UC14"><ellipse cx="488.5575" cy="563.1895" fill="#FFF9C4" rx="75.4075" ry="17.4815" style="stroke:#F57C00;stroke-width:2.0;"/><text fill="#000000" font-family="sans-serif" font-size="12" lengthAdjust="spacing" textLength="106" x="432.5575" y="566.8535">Verify Membership</text></g><g id="elem_UC23"><ellipse cx="488.5625" cy="489.1905" fill="#FFF9C4" rx="95.5125" ry="21.5025" style="stroke:#F57C00;stroke-width:2.0;"/><text fill="#000000" font-family="sans-serif" font-size="12" lengthAdjust="spacing" textLength="154" x="411.5625" y="491.8465">Manage Member Database</text></g><g id="elem_UC18"><ellipse cx="488.561" cy="366.1902" fill="#FFF9C4" rx="91.061" ry="20.6122" style="stroke:#F57C00;stroke-width:2.0;"/><text fill="#000000" font-family="sans-serif" font-size="12" lengthAdjust="spacing" textLength="144" x="416.0586" y="369.038">Generate Overdue Report</text></g><g id="elem_UC19"><ellipse cx="488.5554" cy="287.1891" fill="#FFF9C4" rx="105.9554" ry="23.5911" style="stroke:#F57C00;stroke-width:2.0;"/><text fill="#000000" font-family="sans-serif" font-size="12" lengthAdjust="spacing" textLength="177" x="400.0554" y="289.8451">Generate Fine Collection Report</text></g><g id="elem_UC20"><ellipse cx="488.5648" cy="204.189" fill="#FFF9C4" rx="108.2548" ry="24.051" style="stroke:#F57C00;stroke-width:2.0;"/><text fill="#000000" font-family="sans-serif" font-size="12" lengthAdjust="spacing" textLength="182" x="397.5648" y="206.845">Generate Stock Inventory Report</text></g><g id="elem_UC21"><ellipse cx="488.5631" cy="120.1906" fill="#FFF9C4" rx="110.5631" ry="24.5126" style="stroke:#F57C00;stroke-width:2.0;"/><text fill="#000000" font-family="sans-serif" font-size="12" lengthAdjust="spacing" textLength="187" x="395.0631" y="122.8467">Generate Member Activity Report</text></g><!--entity librarian--><g id="elem_librarian"><ellipse cx="287" cy="567.158" fill="#E3F2FD" rx="8" ry="8" style="stroke:#1976D2;stroke-width:2.0;"/><path d="M287,575.158 L287,602.158 M274,583.158 L300,583.158 M287,602.158 L274,617.158 M287,602.158 L300,617.158 " fill="none" style="stroke:#1976D2;stroke-width:2.0;"/><text fill="#000000" font-family="sans-serif" font-size="14" font-weight="bold" lengthAdjust="spacing" textLength="62" x="256" y="635.1239">Librarian</text></g><g id="elem_GMN31"><path d="M6,557.778 L6,638.6021 A0,0 0 0 0 6,638.6021 L196,638.6021 A0,0 0 0 0 196,638.6021 L196,602.188 L255.76,598.188 L196,594.188 L196,567.778 L186,557.778 L6,557.778 A0,0 0 0 0 6,557.778 " fill="#FEFFDD" style="stroke:#181818;stroke-width:0.5;"/><path d="M186,557.778 L186,567.778 L196,567.778 L186,557.778 " fill="#FEFFDD" style="stroke:#181818;stroke-width:0.5;"/><text fill="#000000" font-family="sans-serif" font-size="13" font-weight="bold" lengthAdjust="spacing" textLength="129" x="12" y="576.675">Librarian Functions:</text><text fill="#000000" font-family="sans-serif" font-size="13" lengthAdjust="spacing" textLength="169" x="12" y="594.381">- Manage books &amp; members</text><text fill="#000000" font-family="sans-serif" font-size="13" lengthAdjust="spacing" textLength="127" x="12" y="612.0871">- Handle transactions</text><text fill="#000000" font-family="sans-serif" font-size="13" lengthAdjust="spacing" textLength="109" x="12" y="629.7931">- Generate reports</text></g><!--link librarian to UC9--><g id="link_librarian_UC9"><path d="M289.69,639.588 C293.99,735.438 306.67,966.388 330,992.188 C353.15,1017.788 390.64,1026.368 423.24,1028.388 " fill="none" id="librarian-UC9" style="stroke:#424242;stroke-width:2.0;"/></g><!--link librarian to UC10--><g id="link_librarian_UC10"><path d="M287.73,639.478 C288.1,716.938 293.35,879.888 330,920.188 C350.1,942.298 380.75,952.238 409.69,956.318 " fill="none" id="librarian-UC10" style="stroke:#424242;stroke-width:2.0;"/></g><!--link librarian to UC11--><g id="link_librarian_UC11"><path d="M289.23,639.558 C292.03,704.208 301.09,824.968 330,855.188 C354.92,881.238 394.73,889.418 428.1,891.118 " fill="none" id="librarian-UC11" style="stroke:#424242;stroke-width:2.0;"/></g><!--link librarian to UC12--><g id="link_librarian_UC12"><path d="M306.32,639.528 C312.53,649.558 320.39,659.358 330,666.188 C355.46,684.288 388.64,693.268 417.97,697.628 " fill="none" id="librarian-UC12" style="stroke:#424242;stroke-width:2.0;"/></g><!--link librarian to UC13--><g id="link_librarian_UC13"><path d="M318.31,603.348 C347.75,608.368 393.21,616.108 429.6,622.318 " fill="none" id="librarian-UC13" style="stroke:#424242;stroke-width:2.0;"/></g><!--link librarian to UC14--><g id="link_librarian_UC14"><path d="M318.31,592.868 C347.2,587.808 391.53,580.028 427.57,573.708 " fill="none" id="librarian-UC14" style="stroke:#424242;stroke-width:2.0;"/></g><!--link librarian to UC18--><g id="link_librarian_UC18"><path d="M291.15,556.818 C295.47,524.958 305.72,481.388 330,451.188 C356.49,418.248 399.3,396.318 433.62,382.998 " fill="none" id="librarian-UC18" style="stroke:#424242;stroke-width:2.0;"/></g><!--link librarian to UC19--><g id="link_librarian_UC19"><path d="M289.03,556.818 C291.57,489.648 300.29,361.038 330,328.188 C345.17,311.418 366.24,301.128 388.05,294.898 " fill="none" id="librarian-UC19" style="stroke:#424242;stroke-width:2.0;"/></g><!--link librarian to UC20--><g id="link_librarian_UC20"><path d="M287.33,556.748 C286.85,473.878 290.48,291.748 330,246.188 C344.56,229.398 365.01,218.958 386.36,212.548 " fill="none" id="librarian-UC20" style="stroke:#424242;stroke-width:2.0;"/></g><!--link librarian to UC21--><g id="link_librarian_UC21"><path d="M289.34,556.708 C293.03,453.618 304.8,191.918 330,162.188 C344,145.668 363.71,135.268 384.46,128.808 " fill="none" id="librarian-UC21" style="stroke:#424242;stroke-width:2.0;"/></g><!--link librarian to UC22--><g id="link_librarian_UC22"><path d="M292.38,639.598 C297.33,668.798 307.81,707.318 330,734.188 C357.34,767.298 401.21,789.168 435.73,802.268 " fill="none" id="librarian-UC22" style="stroke:#424242;stroke-width:2.0;"/></g><!--link librarian to UC23--><g id="link_librarian_UC23"><path d="M305.57,556.898 C311.87,546.188 319.97,535.598 330,528.188 C350.51,513.028 376.21,503.718 400.87,498.008 " fill="none" id="librarian-UC23" style="stroke:#424242;stroke-width:2.0;"/></g><!--SRC=[XLLjRzem4FxkNt5Yqle9ZIIqXQcgL0Bf9gtRLDPzD-G0Ys17jW6ngVzzPoT0Na1Jf4X-xZdVSo-vPBYmO1LeiLnPI8N6kHLAiXimQo5phla6CY7H7dA4N6K7TxXiLTgk52FRr3hMafqvEP-l-HAT0S65u7APOOLWLZnLUtA21SzCrRBYCjrhOItAqaOHdkPMQJ2jEDpZVnd0Y28kjThAD5OPOHycKH8cOsTHEaLTei7m_cuSdj1VAp5VIpG679OeQQVY3qBGFvvy0ZELfUpTwNWp27DEhxQKhK5lkIWcIP9Xt6-AIMxlurxllsBSwKbhjQyIl9oVHPalg3dL_4fn1idjPDZK4mq6aoY-e2UgwRcxKXolyO8MZvSX-g5x62iQzqtCDDU2I-26vgeyC7PMtoae1tZXaZBTeBGmFHYBcmvbHa9kAfUuxiJK0mDTUAPqSqo9KSuYT4PAhIltT5nRudWK-nB1gO6TfpI5xxW7n-yuPM_niCvuorDkqHDWZ9QBp9J4e5TdZZ73adba17L68QYyYri-8xIaXgxpxwoQmmjkPgZhMOo3k3yPDhDunQMWEX7NknoZXqtMHksmmOdgdD-enU9GSinAv4TU_s8cfSHcBb4hbrVCQOKOruV1Q3JkDJDuHedQrVd73dMwHIWSZj47LzW9xIUWSSkApTRm6bxncberNyDNkQEQAfgtcbVOk-9LvahhIUo4RNe5FcKelexpc6hCk5FcIcdOQUoXs_MJrW1eeff8q4B25XAra7uB6RIGLlIm5JriHGzRqQdPRX_GTsIessxBIsMHkHTaxWUa5fNF7U1XzdWkJxALld7cyyEdsIDPk-MuqwfHQmCVOLDCeZTzeTy5xGchkJIyyFFugKMwc3A6CYrKi7y0]--></g></svg>