<?xml version="1.0" encoding="us-ascii" standalone="no"?><svg xmlns="http://www.w3.org/2000/svg" xmlns:xlink="http://www.w3.org/1999/xlink" contentStyleType="text/css" height="703px" preserveAspectRatio="none" style="width:1440px;height:703px;background:#FFFFFF;" version="1.1" viewBox="0 0 1440 703" width="1440px" zoomAndPan="magnify"><defs/><g><!--cluster Library Management System--><g id="cluster_Library Management System"><rect fill="#E8F5E9" height="690" rx="2.5" ry="2.5" style="stroke:#388E3C;stroke-width:3.0;" width="1097.04" x="337" y="7.188"/><text fill="#000000" font-family="sans-serif" font-size="16" font-weight="bold" lengthAdjust="spacing" textLength="232" x="769.52" y="26.292">Library Management System</text></g><!--cluster Member Services--><g id="cluster_Member Services"><rect fill="#FFECB3" height="308" rx="2.5" ry="2.5" style="stroke:#388E3C;stroke-width:3.0;" width="202.1" x="361" y="55.188"/><text fill="#000000" font-family="sans-serif" font-size="16" font-weight="bold" lengthAdjust="spacing" textLength="138" x="393.05" y="74.292">Member Services</text></g><!--cluster Book Services--><g id="cluster_Book Services"><rect fill="#C8E6C9" height="286" rx="2.5" ry="2.5" style="stroke:#388E3C;stroke-width:3.0;" width="180.5" x="371.8" y="387.188"/><text fill="#000000" font-family="sans-serif" font-size="16" font-weight="bold" lengthAdjust="spacing" textLength="111" x="406.55" y="406.292">Book Services</text></g><!--cluster Transaction Management--><g id="cluster_Transaction Management"><rect fill="#B2DFDB" height="151" rx="2.5" ry="2.5" style="stroke:#388E3C;stroke-width:3.0;" width="756.94" x="653.1" y="256.188"/><text fill="#000000" font-family="sans-serif" font-size="16" font-weight="bold" lengthAdjust="spacing" textLength="206" x="928.57" y="275.292">Transaction Management</text></g><!--cluster System Operations--><g id="cluster_System Operations"><rect fill="#CFD8DC" height="242" rx="2.5" ry="2.5" style="stroke:#388E3C;stroke-width:3.0;" width="226.63" x="904.53" y="431.188"/><text fill="#000000" font-family="sans-serif" font-size="16" font-weight="bold" lengthAdjust="spacing" textLength="153" x="941.345" y="450.292">System Operations</text></g><g id="elem_UC1"><ellipse cx="462.0477" cy="114.1875" fill="#FFF9C4" rx="80.9477" ry="18.5895" style="stroke:#F57C00;stroke-width:2.0;"/><text fill="#000000" font-family="sans-serif" font-size="12" lengthAdjust="spacing" textLength="120" x="399.0477" y="117.8516">Register Membership</text></g><g id="elem_UC7"><ellipse cx="462.0504" cy="186.1861" fill="#FFF9C4" rx="79.7404" ry="18.3481" style="stroke:#F57C00;stroke-width:2.0;"/><text fill="#000000" font-family="sans-serif" font-size="12" lengthAdjust="spacing" textLength="117" x="400.5504" y="189.8501">Update Member Info</text></g><g id="elem_UC6"><ellipse cx="462.0506" cy="259.1881" fill="#FFF9C4" rx="85.0506" ry="19.4101" style="stroke:#F57C00;stroke-width:2.0;"/><text fill="#000000" font-family="sans-serif" font-size="12" lengthAdjust="spacing" textLength="130" x="394.7252" y="262.6523">View Membership Card</text></g><g id="elem_UC5"><ellipse cx="462.0537" cy="330.1928" fill="#FFF9C4" rx="70.8737" ry="16.5747" style="stroke:#F57C00;stroke-width:2.0;"/><text fill="#000000" font-family="sans-serif" font-size="12" lengthAdjust="spacing" textLength="94" x="412.0537" y="333.8568">View Fine Details</text></g><g id="elem_UC8"><ellipse cx="462.0489" cy="442.1858" fill="#FFF9C4" rx="62.5889" ry="14.9178" style="stroke:#F57C00;stroke-width:2.0;"/><text fill="#000000" font-family="sans-serif" font-size="12" lengthAdjust="spacing" textLength="70" x="424.0489" y="445.8498">Search Book</text></g><g id="elem_UC2"><ellipse cx="462.0454" cy="572.1871" fill="#FFF9C4" rx="64.5454" ry="15.3091" style="stroke:#F57C00;stroke-width:2.0;"/><text fill="#000000" font-family="sans-serif" font-size="12" lengthAdjust="spacing" textLength="76" x="421.0454" y="575.8511">Request Book</text></g><g id="elem_UC3"><ellipse cx="462.047" cy="507.1898" fill="#FFF9C4" rx="61.207" ry="14.8918" style="stroke:#F57C00;stroke-width:2.0;"/><text fill="#000000" font-family="sans-serif" font-size="12" lengthAdjust="spacing" textLength="68" x="425.047" y="510.8538">Return Book</text></g><g id="elem_UC4"><ellipse cx="462.0537" cy="640.1888" fill="#FFF9C4" rx="74.2537" ry="17.2507" style="stroke:#F57C00;stroke-width:2.0;"/><text fill="#000000" font-family="sans-serif" font-size="12" lengthAdjust="spacing" textLength="103" x="407.5537" y="643.8528">Check Book Status</text></g><g id="elem_UC15"><ellipse cx="734.3175" cy="376.1925" fill="#FFF9C4" rx="55.9475" ry="14.8545" style="stroke:#F57C00;stroke-width:2.0;"/><text fill="#000000" font-family="sans-serif" font-size="12" lengthAdjust="spacing" textLength="61" x="700.8175" y="379.8566">Issue Book</text></g><g id="elem_UC16"><ellipse cx="1315.1014" cy="354.1863" fill="#FFF9C4" rx="78.9414" ry="18.1883" style="stroke:#F57C00;stroke-width:2.0;"/><text fill="#000000" font-family="sans-serif" font-size="12" lengthAdjust="spacing" textLength="115" x="1254.6014" y="357.8503">Process Book Return</text></g><g id="elem_UC17"><ellipse cx="734.3161" cy="311.1912" fill="#FFF9C4" rx="65.2161" ry="15.4432" style="stroke:#F57C00;stroke-width:2.0;"/><text fill="#000000" font-family="sans-serif" font-size="12" lengthAdjust="spacing" textLength="78" x="692.3161" y="314.8553">Calculate Fine</text></g><g id="elem_UC24"><ellipse cx="1017.8378" cy="569.1916" fill="#FFF9C4" rx="84.2178" ry="19.2436" style="stroke:#F57C00;stroke-width:2.0;"/><text fill="#000000" font-family="sans-serif" font-size="12" lengthAdjust="spacing" textLength="128" x="951.2299" y="572.7411">Check Book Availability</text></g><g id="elem_UC25"><ellipse cx="1017.8437" cy="640.1908" fill="#FFF9C4" rx="71.6137" ry="16.7227" style="stroke:#F57C00;stroke-width:2.0;"/><text fill="#000000" font-family="sans-serif" font-size="12" lengthAdjust="spacing" textLength="96" x="966.8437" y="643.8548">Validate Member</text></g><g id="elem_UC26"><ellipse cx="1017.841" cy="493.1902" fill="#FFF9C4" rx="97.311" ry="21.8622" style="stroke:#F57C00;stroke-width:2.0;"/><text fill="#000000" font-family="sans-serif" font-size="12" lengthAdjust="spacing" textLength="158" x="938.841" y="495.8462">Update Transaction Records</text></g><!--entity client--><g id="elem_client"><ellipse cx="270" cy="375.158" fill="#E3F2FD" rx="8" ry="8" style="stroke:#1976D2;stroke-width:2.0;"/><path d="M270,383.158 L270,410.158 M257,391.158 L283,391.158 M270,410.158 L257,425.158 M270,410.158 L283,425.158 " fill="none" style="stroke:#1976D2;stroke-width:2.0;"/><text fill="#000000" font-family="sans-serif" font-size="14" font-weight="bold" lengthAdjust="spacing" textLength="40" x="250" y="443.1239">Client</text></g><g id="elem_GMN40"><path d="M6,365.778 L6,446.6021 A0,0 0 0 0 6,446.6021 L189,446.6021 A0,0 0 0 0 189,446.6021 L189,410.188 L249.71,406.188 L189,402.188 L189,375.778 L179,365.778 L6,365.778 A0,0 0 0 0 6,365.778 " fill="#FEFFDD" style="stroke:#181818;stroke-width:0.5;"/><path d="M179,365.778 L179,375.778 L189,375.778 L179,365.778 " fill="#FEFFDD" style="stroke:#181818;stroke-width:0.5;"/><text fill="#000000" font-family="sans-serif" font-size="13" font-weight="bold" lengthAdjust="spacing" textLength="108" x="12" y="384.675">Client Functions:</text><text fill="#000000" font-family="sans-serif" font-size="13" lengthAdjust="spacing" textLength="162" x="12" y="402.381">- Register &amp; manage profile</text><text fill="#000000" font-family="sans-serif" font-size="13" lengthAdjust="spacing" textLength="147" x="12" y="420.0871">- Search &amp; borrow books</text><text fill="#000000" font-family="sans-serif" font-size="13" lengthAdjust="spacing" textLength="119" x="12" y="437.7931">- View status &amp; fines</text></g><!--link client to UC1--><g id="link_client_UC1"><path d="M275.21,364.798 C282.59,300.438 299.89,180.588 329,150.188 C343.87,134.658 364.73,125.608 385.49,120.398 " fill="none" id="client-UC1" style="stroke:#424242;stroke-width:2.0;"/></g><!--link client to UC2--><g id="link_client_UC2"><path d="M278.85,447.448 C286.63,477.148 301.5,515.918 329,539.188 C348.48,555.668 375.03,564.118 399.21,568.378 " fill="none" id="client-UC2" style="stroke:#424242;stroke-width:2.0;"/></g><!--link client to UC3--><g id="link_client_UC3"><path d="M290.34,436.448 C300.36,449.858 313.7,464.708 329,474.188 C352,488.438 380.84,496.548 405.7,501.148 " fill="none" id="client-UC3" style="stroke:#424242;stroke-width:2.0;"/></g><!--link client to UC4--><g id="link_client_UC4"><path d="M271.64,447.618 C274.62,492.608 286.37,563.598 329,605.188 C345.47,621.258 368.41,630.168 390.56,635.048 " fill="none" id="client-UC4" style="stroke:#424242;stroke-width:2.0;"/></g><!--link client to UC5--><g id="link_client_UC5"><path d="M290.27,398.478 C321.79,385.878 384.86,360.658 424.91,344.638 " fill="none" id="client-UC5" style="stroke:#424242;stroke-width:2.0;"/></g><!--link client to UC6--><g id="link_client_UC6"><path d="M283.66,364.748 C292.78,341.478 307.33,313.688 329,296.188 C345.58,282.798 366.7,274.248 387.17,268.788 " fill="none" id="client-UC6" style="stroke:#424242;stroke-width:2.0;"/></g><!--link client to UC7--><g id="link_client_UC7"><path d="M272.94,364.808 C277.13,323.098 290.01,259.678 329,222.188 C344.76,207.038 366.24,198.128 387.31,192.928 " fill="none" id="client-UC7" style="stroke:#424242;stroke-width:2.0;"/></g><!--link client to UC8--><g id="link_client_UC8"><path d="M290.27,409.838 C318.58,415.198 372.35,425.388 412.02,432.898 " fill="none" id="client-UC8" style="stroke:#424242;stroke-width:2.0;"/></g><!--link UC2 to UC24--><g id="link_UC2_UC24"><path d="M524.01,567.668 C606.63,562.148 758.75,554.138 888.53,559.188 C904.83,559.818 916.2864,560.4646 932.8864,561.6946 " fill="none" id="UC2-to-UC24" style="stroke:#424242;stroke-width:2.0;stroke-dasharray:7.0,7.0;"/><polygon fill="#424242" points="938.87,562.138,930.1902,557.4839,933.8837,561.7685,929.599,565.462,938.87,562.138" style="stroke:#424242;stroke-width:2.0;"/><text fill="#000000" font-family="sans-serif" font-size="13" lengthAdjust="spacing" textLength="57" x="705.82" y="553.485">&#171;include&#187;</text></g><!--link UC2 to UC25--><g id="link_UC2_UC25"><path d="M520.23,579.208 C624.55,592.018 839.0547,618.3567 947.6847,631.6967 " fill="none" id="UC2-to-UC25" style="stroke:#424242;stroke-width:2.0;stroke-dasharray:7.0,7.0;"/><polygon fill="#424242" points="953.64,632.428,945.1946,627.3609,948.6773,631.8186,944.2196,635.3012,953.64,632.428" style="stroke:#424242;stroke-width:2.0;"/><text fill="#000000" font-family="sans-serif" font-size="13" lengthAdjust="spacing" textLength="57" x="705.82" y="590.935">&#171;include&#187;</text></g><!--reverse link UC24 to UC15--><g id="link_UC24_UC15"><path d="M949.0775,554.4666 C929.5975,548.8166 914.31,542.688 896.53,532.188 C830.48,493.158 770.62,421.818 746.53,391.008 " fill="none" id="UC24-backto-UC15" style="stroke:#424242;stroke-width:2.0;stroke-dasharray:7.0,7.0;"/><polygon fill="#424242" points="954.84,556.138,947.3105,549.7893,950.0379,554.7452,945.082,557.4726,954.84,556.138" style="stroke:#424242;stroke-width:2.0;"/><text fill="#000000" font-family="sans-serif" font-size="13" lengthAdjust="spacing" textLength="57" x="830.53" y="480.265">&#171;include&#187;</text></g><!--link UC15 to UC25--><g id="link_UC15_UC25"><path d="M740.83,391.178 C753.16,423.328 785.38,500.268 829.53,553.188 C853.86,582.338 862.72,588.918 896.53,606.188 C916.83,616.558 934.9032,622.6666 956.0132,628.0066 " fill="none" id="UC15-to-UC25" style="stroke:#424242;stroke-width:2.0;stroke-dasharray:7.0,7.0;"/><polygon fill="#424242" points="961.83,629.478,954.0858,623.393,956.9827,628.2518,952.1239,631.1487,961.83,629.478" style="stroke:#424242;stroke-width:2.0;"/><text fill="#000000" font-family="sans-serif" font-size="13" lengthAdjust="spacing" textLength="57" x="830.53" y="549.085">&#171;include&#187;</text></g><!--link UC15 to UC26--><g id="link_UC15_UC26"><path d="M765.71,388.818 C814.84,409.238 906.4791,447.3261 964.4891,471.4261 " fill="none" id="UC15-to-UC26" style="stroke:#424242;stroke-width:2.0;stroke-dasharray:7.0,7.0;"/><polygon fill="#424242" points="970.03,473.728,963.2533,466.5812,965.4126,471.8097,960.1841,473.969,970.03,473.728" style="stroke:#424242;stroke-width:2.0;"/><text fill="#000000" font-family="sans-serif" font-size="13" lengthAdjust="spacing" textLength="57" x="830.53" y="413.265">&#171;include&#187;</text></g><!--link UC16 to UC26--><g id="link_UC16_UC26"><path d="M1278.81,370.798 C1224.26,396.478 1125.0985,443.1624 1066.5785,470.7124 " fill="none" id="UC16-to-UC26" style="stroke:#424242;stroke-width:2.0;stroke-dasharray:7.0,7.0;"/><polygon fill="#424242" points="1061.15,473.268,1070.9965,473.0536,1065.6738,471.1383,1067.589,465.8156,1061.15,473.268" style="stroke:#424242;stroke-width:2.0;"/><text fill="#000000" font-family="sans-serif" font-size="13" lengthAdjust="spacing" textLength="57" x="1148.16" y="403.045">&#171;include&#187;</text></g><!--reverse link UC17 to UC16--><g id="link_UC17_UC16"><path d="M802.9635,316.2124 C910.0135,324.1624 1123.82,340.048 1239.36,348.638 " fill="none" id="UC17-backto-UC16" style="stroke:#424242;stroke-width:2.0;stroke-dasharray:7.0,7.0;"/><polygon fill="#424242" points="796.98,315.768,805.659,320.4236,801.9663,316.1383,806.2515,312.4455,796.98,315.768" style="stroke:#424242;stroke-width:2.0;"/><text fill="#000000" font-family="sans-serif" font-size="13" lengthAdjust="spacing" textLength="57" x="989.34" y="319.525">&#171;include&#187;</text></g><!--reverse link UC3 to UC17--><g id="link_UC3_UC17"><path d="M521.3372,498.0384 C540.3772,493.2284 555.25,486.868 571.1,474.188 C623.01,432.648 594.49,387.308 645.1,344.188 C656.93,334.118 672.12,326.968 686.56,321.978 " fill="none" id="UC3-backto-UC17" style="stroke:#424242;stroke-width:2.0;stroke-dasharray:7.0,7.0;"/><polygon fill="#424242" points="515.52,499.508,525.2256,501.1818,520.3677,498.2834,523.2661,493.4255,515.52,499.508" style="stroke:#424242;stroke-width:2.0;"/><text fill="#000000" font-family="sans-serif" font-size="13" lengthAdjust="spacing" textLength="56" x="580.1" y="347.865">&#171;extend&#187;</text></g><!--SRC=[XLLRRzem57xFhpXYKhizmCebN2g4L0APa5QjAktUJN802sDdjjEEJVtlivq4aa0xWH37tsUVxzniXciDMe2acws6c4gCD1NSkmQrepmXako1KOxwa20aWXsiSHaLKc-5Px2bjgoDT-8a9DgH3Le0mReWVCEmH51R4ejNimdMXAaoiYKyVfLKQ-GvPZpSHLf8K6T-Y5l_wm5CZSUD52cF0y7CsgTvD-o4Cui86QFCLzkZGN_MEQu-RMcquwWKsBLGSBsaVn3QlS9o0Qm4Yxqtg-DP8KJ4_9nBIHKwvAAOC0n7GQyk9lG7mStDVyLOwqvAyLecE3aFMPelg3dc_9ta34D_FghhwGw7ysvmGK-tegV_JdASnWjQt7hkejUn7y_B2XSmYbm3KH2vVvvtqjtuJbUIo0FS4svYt5lYyg0qxXik9lEzBWwmPGbCyXKquPk9Cy7Om7aJGkCUzokKi4JvGYDK3LkFUJ3jkdFWMBd68sweSI0Xsw2sD6bOSSz1kqfyJcAYCQV1Wgz5pXjKUJyflfOECnfbd3Fx5vYXcIoOeIQKgPpc6zfR5kqndAaGkt8mmN3U3qRrO9P8PBG5IyxF6jQZ_PMYqcL6fyxGgUHbGhTA2BOOxI3JeubE2zMz2wgV9E6AkCkcL58ZVzgPXRDfNVv2gHJBhjj-bV0WHMHxqtdFb1RCMcu3mgAKsOBP11UamKcZQwMijqgjz7d1JIzmmhwKmyXfFnAKnCRY2X3EXhEW7a4fENSlfgHaHHdLXoBLlLe344PBJLMm_8kDLyxb8qPcMelCT_ekB3UF-N18P9bIqu7AomODcatNrMMhKx6w5QjNiVoArQzOWuerj3eMF69fZ3KXnY6qMXEN2hY5yPXcjCca3FbdKDk75djldmK_sfXX_NEi_p6MPcXxK4DDTFFVvgMApuBhmhZLEcr1nx8xk305PFOL5klYsWCOhoPvkSAKkyAgs_7NrSH0JJZUIrUmTvC3YHHhQXvKY-Q3VcLkOdS1hqp7AOUuIqMvmJJmsZI_ygnMAy7x1m00]--></g></svg>