<?xml version="1.0" encoding="UTF-8" standalone="no"?>
<!-- Created with Inkscape (http://www.inkscape.org/) -->

<svg
   width="1920"
   height="1080"
   viewBox="0 0 1920 1080"
   version="1.1"
   id="svg1"
   xml:space="preserve"
   inkscape:version="1.4.3 (0d15f75042, 2025-12-25)"
   sodipodi:docname="fine.svg"
   xmlns:inkscape="http://www.inkscape.org/namespaces/inkscape"
   xmlns:sodipodi="http://sodipodi.sourceforge.net/DTD/sodipodi-0.dtd"
   xmlns="http://www.w3.org/2000/svg"
   xmlns:svg="http://www.w3.org/2000/svg"><sodipodi:namedview
     id="namedview1"
     pagecolor="#ffffff"
     bordercolor="#000000"
     borderopacity="0.25"
     inkscape:showpageshadow="2"
     inkscape:pageopacity="0.0"
     inkscape:pagecheckerboard="0"
     inkscape:deskcolor="#d1d1d1"
     inkscape:document-units="px"
     inkscape:zoom="0.085286458"
     inkscape:cx="-855.93893"
     inkscape:cy="87.938931"
     inkscape:window-width="1366"
     inkscape:window-height="740"
     inkscape:window-x="0"
     inkscape:window-y="0"
     inkscape:window-maximized="1"
     inkscape:current-layer="g1"><inkscape:page
       x="0"
       y="0"
       width="1920"
       height="1080"
       id="page1"
       margin="0"
       bleed="0" /><inkscape:page
       x="1930"
       y="0"
       width="816"
       height="1056"
       id="page2"
       margin="0"
       bleed="0" /></sodipodi:namedview><defs
     id="defs1"><clipPath
       clipPathUnits="userSpaceOnUse"
       id="clipPath4"><path
         d="M 7.120035e-7,4.3697568e-8 H 10 V 9.9999998 H 7.120035e-7 Z"
         clip-rule="evenodd"
         id="path4" /></clipPath><clipPath
       clipPathUnits="userSpaceOnUse"
       id="clipPath8"><path
         d="M 5.1734907e-6,4.3697568e-8 H 10.000024 V 9.9999998 H 5.1734907e-6 Z"
         clip-rule="evenodd"
         id="path8" /></clipPath><clipPath
       clipPathUnits="userSpaceOnUse"
       id="clipPath12"><path
         d="M -1.9835738e-6,6.9873488e-7 H 10.000017 V 10 H -1.9835738e-6 Z"
         clip-rule="evenodd"
         id="path12" /></clipPath><clipPath
       clipPathUnits="userSpaceOnUse"
       id="clipPath15"><path
         d="M 3.2583625e-7,9.6493716e-7 9.9999827,1.8258654e-5 9.9999554,10.000044 -2.5194402e-5,10.000028 Z"
         id="path15" /></clipPath><clipPath
       clipPathUnits="userSpaceOnUse"
       id="clipPath16"><path
         d="M 7.9999997,7.9999997 H 807.99997 V 143.99999 H 7.9999997 Z"
         id="path16" /></clipPath><clipPath
       clipPathUnits="userSpaceOnUse"
       id="clipPath19"><path
         d="M 0,0 H 815.99997 V 1056 H 0 Z"
         id="path19" /></clipPath><clipPath
       clipPathUnits="userSpaceOnUse"
       id="clipPath22"><path
         d="M 2.5493625e-6,6.4559799e-8 H 10.000021 V 9.9999998 H 2.5493625e-6 Z"
         clip-rule="evenodd"
         id="path22" /></clipPath><clipPath
       clipPathUnits="userSpaceOnUse"
       id="clipPath26"><path
         d="M 4.217289e-6,6.4559799e-8 H 10.000023 V 9.9999998 H 4.217289e-6 Z"
         clip-rule="evenodd"
         id="path26" /></clipPath><clipPath
       clipPathUnits="userSpaceOnUse"
       id="clipPath30"><path
         d="M 3.261845e-6,5.9351777e-6 H 10.000022 V 10.000006 H 3.261845e-6 Z"
         clip-rule="evenodd"
         id="path30" /></clipPath><clipPath
       clipPathUnits="userSpaceOnUse"
       id="clipPath33"><path
         d="M 1.6609702e-6,-1.048305e-6 9.9999499,1.7524542e-5 10.000018,9.9999977 1.0013565e-5,9.9999968 Z"
         id="path33" /></clipPath><clipPath
       clipPathUnits="userSpaceOnUse"
       id="clipPath34"><path
         d="M 7.9999997,7.9999997 H 807.99997 V 143.99999 H 7.9999997 Z"
         id="path34" /></clipPath><clipPath
       clipPathUnits="userSpaceOnUse"
       id="clipPath37"><path
         d="M 0,0 H 815.99997 V 1056 H 0 Z"
         id="path37" /></clipPath><clipPath
       clipPathUnits="userSpaceOnUse"
       id="clipPath39"><path
         d="M 4.3530167e-6,5.195331e-6 9.9999579,-6.360515e-6 9.999938,9.9999748 -1.5525221e-5,9.9999864 Z"
         id="path39" /></clipPath><clipPath
       clipPathUnits="userSpaceOnUse"
       id="clipPath40"><path
         d="M 7.9999997,7.9999997 H 807.99997 V 143.99999 H 7.9999997 Z"
         id="path40" /></clipPath><clipPath
       clipPathUnits="userSpaceOnUse"
       id="clipPath43"><path
         d="M 0,0 H 815.99997 V 1056 H 0 Z"
         id="path43" /></clipPath><clipPath
       clipPathUnits="userSpaceOnUse"
       id="clipPath45"><path
         d="M 5.4946008e-6,5.3177548e-6 10.000001,-5.3932126e-6 10.000039,10.000043 7.3839587e-6,10.000001 Z"
         id="path45" /></clipPath><clipPath
       clipPathUnits="userSpaceOnUse"
       id="clipPath46"><path
         d="M 7.9999997,7.9999997 H 807.99997 V 143.99999 H 7.9999997 Z"
         id="path46" /></clipPath><clipPath
       clipPathUnits="userSpaceOnUse"
       id="clipPath49"><path
         d="M 0,0 H 815.99997 V 1056 H 0 Z"
         id="path49" /></clipPath><clipPath
       clipPathUnits="userSpaceOnUse"
       id="clipPath51"><path
         d="M 0,-3.5531102e-7 H 20.000008 V 24 H 0 Z"
         clip-rule="evenodd"
         id="path51" /></clipPath><clipPath
       clipPathUnits="userSpaceOnUse"
       id="clipPath54"><path
         d="M 6.9547848e-6,7.3073039e-8 H 26.000011 V 24 H 6.9547848e-6 Z"
         clip-rule="evenodd"
         id="path54" /></clipPath><clipPath
       clipPathUnits="userSpaceOnUse"
       id="clipPath57"><path
         d="M 5.6533465e-6,7.5767404e-6 H 25.999979 V 24.000008 H 5.6533465e-6 Z"
         clip-rule="evenodd"
         id="path57" /></clipPath><clipPath
       clipPathUnits="userSpaceOnUse"
       id="clipPath60"><path
         d="M 3.2562415e-6,6.7901537e-7 H 20.000011 V 24.000001 H 3.2562415e-6 Z"
         clip-rule="evenodd"
         id="path60" /></clipPath></defs><g
     inkscape:label="Layer 1"
     inkscape:groupmode="layer"
     id="layer1" /><g
     id="g1"
     inkscape:groupmode="layer"
     inkscape:label="1"
     transform="translate(1930)"><path
       id="path1"
       d="M -1916.3096,20.310715 H -23.824413 V 342.03321 H -1916.3096 Z"
       style="fill:#ffffff;fill-opacity:1;fill-rule:nonzero;stroke:none;stroke-width:2.36561" /><path
       id="path2"
       d="m -1814.5321,154.55295 6.1934,-0.12585 c 6.1949,-0.1275 18.5816,-0.3792 30.0854,-0.50661 11.5024,-0.12585 22.1204,-0.12585 27.4294,-0.12585 h 5.3091"
       style="fill:none;stroke:#333333;stroke-width:1.51687;stroke-linecap:butt;stroke-linejoin:miter;stroke-miterlimit:10;stroke-dasharray:none;stroke-opacity:1" /><path
       id="path3"
       d="M 0,0 10,5 0,10 Z"
       style="fill:#333333;fill-opacity:1;fill-rule:nonzero;stroke:none"
       transform="matrix(1.2134891,0,0,1.2134891,-1751.5823,147.72707)"
       clip-path="url(#clipPath4)" /><path
       id="path5"
       d="M 1.118034,2.9802322e-8 2.0124612,0.44721365 1.5652476,1.3416408 0.67082047,0.89442718 Z M 2.0124612,0.44721365 2.9068885,0.89442724 2.4596748,1.7888544 1.5652476,1.3416408 Z M 2.9068885,0.89442724 3.8013158,1.3416409 3.3541021,2.236068 2.4596748,1.7888544 Z M 3.8013158,1.3416409 4.6957426,1.7888544 4.2485294,2.6832817 3.3541021,2.236068 Z M 4.6957426,1.7888544 5.5901699,2.236068 5.1429567,3.1304953 4.2485294,2.6832817 Z M 5.5901699,2.236068 6.4845972,2.6832817 6.037384,3.577709 5.1429567,3.1304953 Z M 6.4845972,2.6832817 7.3790245,3.1304953 6.9318113,4.0249224 6.037384,3.577709 Z M 7.3790245,3.1304953 8.2734518,3.5777087 7.8262382,4.472136 6.9318113,4.0249224 Z M 8.2734518,3.5777087 9.1678791,4.0249224 8.720665,4.9193497 7.8262382,4.472136 Z M 9.1678791,4.0249224 10.062306,4.472136 9.6150923,5.3665633 8.720665,4.9193497 Z M 10.062306,4.472136 11.118034,5 9.4904804,5.813777 9.0432663,4.9193497 9.7763929,4.5527864 10,5 9.7763929,5.4472136 9.6150923,5.3665633 Z M 9.4904804,5.813777 8.5960531,6.2609906 8.148839,5.3665633 9.0432663,4.9193497 Z M 8.5960531,6.2609906 7.7016258,6.7082038 7.2544127,5.8137765 8.148839,5.3665633 Z M 7.7016263,6.7082038 6.807199,7.1554179 6.3599849,6.2609906 7.2544122,5.8137765 Z M 6.8071985,7.1554179 5.9127717,7.6026311 5.4655585,6.7082038 6.3599854,6.2609906 Z M 5.9127717,7.6026311 5.0183444,8.0498447 4.5711312,7.1554174 5.4655585,6.7082038 Z M 5.0183444,8.0498447 4.1239171,8.4970579 3.6767037,7.6026311 4.5711312,7.1554174 Z M 4.1239176,8.4970579 3.2294903,8.944272 2.7822762,8.0498457 3.6767035,7.6026311 Z M 3.2294898,8.944273 2.3350625,9.3914862 1.8878493,8.4970579 2.7822766,8.0498447 Z M 2.3350627,9.3914852 1.4406364,9.8386984 0.99342275,8.944272 1.8878491,8.4970589 Z M 1.4406364,9.8386984 0.54620814,10.285913 0.09899452,9.3914862 0.99342275,8.944272 Z M 0.54620814,10.285913 -0.5,10.809017 V 9.3606796 h 1 V 10 H 0 L -0.2236068,9.5527868 0.09899452,9.3914862 Z M -0.5,9.3606796 v -1 h 1 v 1 z m 0,-1 v -1 h 1 v 1 z m 0,-1 v -1 h 1 v 1 z m 0,-1 v -1 h 1 v 1 z m 0,-1 v -1 h 1 v 1 z m 0,-1 v -1 h 1 v 1 z m 0,-1 v -1 h 1 v 1 z m 0,-1 v -1 h 1 v 1 z m 0,-1 V 0.36067963 h 1 V 1.3606796 Z m 0,-0.99999997 V -0.809017 L 1.118034,2.9802322e-8 0.67082047,0.89442718 -0.2236068,0.44721359 0,0 h 0.5 v 0.36067963 z"
       style="fill:#333333;fill-opacity:1;fill-rule:nonzero;stroke:none"
       transform="matrix(1.2134891,0,0,1.2134891,-1751.5823,147.72707)"
       clip-path="url(#clipPath4)" /><path
       id="path6"
       d="m -1536.4489,153.79452 h 6.3207 c 6.3193,0 18.9608,0 30.5891,0 11.6298,0 22.2478,0 27.5568,0 h 5.309"
       style="fill:none;stroke:#333333;stroke-width:1.51687;stroke-linecap:butt;stroke-linejoin:miter;stroke-miterlimit:10;stroke-dasharray:none;stroke-opacity:1" /><path
       id="path7"
       d="M 0,0 10,5 0,10 Z"
       style="fill:#333333;fill-opacity:1;fill-rule:nonzero;stroke:none"
       transform="matrix(1.2134891,0,0,1.2134891,-1472.7407,147.72707)"
       clip-path="url(#clipPath8)" /><path
       id="path9"
       d="M 1.118034,2.9802322e-8 2.0124612,0.44721365 1.5652476,1.3416408 0.67082047,0.89442718 Z M 2.0124612,0.44721365 2.9068885,0.89442724 2.4596748,1.7888544 1.5652476,1.3416408 Z M 2.9068885,0.89442724 3.8013158,1.3416409 3.3541021,2.236068 2.4596748,1.7888544 Z M 3.8013158,1.3416409 4.6957426,1.7888544 4.2485294,2.6832817 3.3541021,2.236068 Z M 4.6957426,1.7888544 5.5901699,2.236068 5.1429567,3.1304953 4.2485294,2.6832817 Z M 5.5901699,2.236068 6.4845972,2.6832817 6.037384,3.577709 5.1429567,3.1304953 Z M 6.4845972,2.6832817 7.3790245,3.1304953 6.9318113,4.0249224 6.037384,3.577709 Z M 7.3790245,3.1304953 8.2734518,3.5777087 7.8262382,4.472136 6.9318113,4.0249224 Z M 8.2734518,3.5777087 9.1678791,4.0249224 8.720665,4.9193497 7.8262382,4.472136 Z M 9.1678791,4.0249224 10.062306,4.472136 9.6150923,5.3665633 8.720665,4.9193497 Z M 10.062306,4.472136 11.118034,5 9.4904804,5.813777 9.0432663,4.9193497 9.7763929,4.5527864 10,5 9.7763929,5.4472136 9.6150923,5.3665633 Z M 9.4904804,5.813777 8.5960531,6.2609906 8.148839,5.3665633 9.0432663,4.9193497 Z M 8.5960531,6.2609906 7.7016258,6.7082038 7.2544127,5.8137765 8.148839,5.3665633 Z M 7.7016263,6.7082038 6.807199,7.1554179 6.3599849,6.2609906 7.2544122,5.8137765 Z M 6.8071985,7.1554179 5.9127717,7.6026311 5.4655585,6.7082038 6.3599854,6.2609906 Z M 5.9127717,7.6026311 5.0183444,8.0498447 4.5711312,7.1554174 5.4655585,6.7082038 Z M 5.0183444,8.0498447 4.1239171,8.4970579 3.6767037,7.6026311 4.5711312,7.1554174 Z M 4.1239176,8.4970579 3.2294903,8.944272 2.7822762,8.0498457 3.6767035,7.6026311 Z M 3.2294898,8.944273 2.3350625,9.3914862 1.8878493,8.4970579 2.7822766,8.0498447 Z M 2.3350627,9.3914852 1.4406364,9.8386984 0.99342275,8.944272 1.8878491,8.4970589 Z M 1.4406364,9.8386984 0.54620814,10.285913 0.09899452,9.3914862 0.99342275,8.944272 Z M 0.54620814,10.285913 -0.5,10.809017 V 9.3606796 h 1 V 10 H 0 L -0.2236068,9.5527868 0.09899452,9.3914862 Z M -0.5,9.3606796 v -1 h 1 v 1 z m 0,-1 v -1 h 1 v 1 z m 0,-1 v -1 h 1 v 1 z m 0,-1 v -1 h 1 v 1 z m 0,-1 v -1 h 1 v 1 z m 0,-1 v -1 h 1 v 1 z m 0,-1 v -1 h 1 v 1 z m 0,-1 v -1 h 1 v 1 z m 0,-1 V 0.36067963 h 1 V 1.3606796 Z m 0,-0.99999997 V -0.809017 L 1.118034,2.9802322e-8 0.67082047,0.89442718 -0.2236068,0.44721359 0,0 h 0.5 v 0.36067963 z"
       style="fill:#333333;fill-opacity:1;fill-rule:nonzero;stroke:none"
       transform="matrix(1.2134891,0,0,1.2134891,-1472.7407,147.72707)"
       clip-path="url(#clipPath8)" /><path
       id="path10"
       d="m -1345.3289,126.41515 14.1841,-8.83571 c 14.1842,-8.83572 42.5511,-26.507136 82.4824,-35.342869 39.9299,-8.835711 91.4243,-8.835711 139.618,-8.835711 48.1952,0 93.0882,0 135.37076,0 42.28251,0 81.95449,0 124.92573,0 42.97112,0 89.24448,0 137.56416,0 48.32106,0 98.68849,0 145.75673,0 47.06817,0 90.83569,0 118.64737,0 27.8116,0 39.66588,0 45.59232,0 h 5.92785"
       style="fill:none;stroke:#333333;stroke-width:1.51687;stroke-linecap:butt;stroke-linejoin:miter;stroke-miterlimit:10;stroke-dasharray:none;stroke-opacity:1" /><path
       id="path11"
       d="M 0,0 10,5 0,10 Z"
       style="fill:#333333;fill-opacity:1;fill-rule:nonzero;stroke:none"
       transform="matrix(1.2134891,0,0,1.2134891,-401.32697,67.33341)"
       clip-path="url(#clipPath12)" /><path
       id="path13"
       d="M 1.118034,2.9802322e-8 2.0124612,0.44721365 1.5652476,1.3416408 0.67082047,0.89442718 Z M 2.0124612,0.44721365 2.9068885,0.89442724 2.4596748,1.7888544 1.5652476,1.3416408 Z M 2.9068885,0.89442724 3.8013158,1.3416409 3.3541021,2.236068 2.4596748,1.7888544 Z M 3.8013158,1.3416409 4.6957426,1.7888544 4.2485294,2.6832817 3.3541021,2.236068 Z M 4.6957426,1.7888544 5.5901699,2.236068 5.1429567,3.1304953 4.2485294,2.6832817 Z M 5.5901699,2.236068 6.4845972,2.6832817 6.037384,3.577709 5.1429567,3.1304953 Z M 6.4845972,2.6832817 7.3790245,3.1304953 6.9318113,4.0249224 6.037384,3.577709 Z M 7.3790245,3.1304953 8.2734518,3.5777087 7.8262382,4.472136 6.9318113,4.0249224 Z M 8.2734518,3.5777087 9.1678791,4.0249224 8.720665,4.9193497 7.8262382,4.472136 Z M 9.1678791,4.0249224 10.062306,4.472136 9.6150923,5.3665633 8.720665,4.9193497 Z M 10.062306,4.472136 11.118034,5 9.4904804,5.813777 9.0432663,4.9193497 9.7763929,4.5527864 10,5 9.7763929,5.4472136 9.6150923,5.3665633 Z M 9.4904804,5.813777 8.5960531,6.2609906 8.148839,5.3665633 9.0432663,4.9193497 Z M 8.5960531,6.2609906 7.7016258,6.7082038 7.2544127,5.8137765 8.148839,5.3665633 Z M 7.7016263,6.7082038 6.807199,7.1554179 6.3599849,6.2609906 7.2544122,5.8137765 Z M 6.8071985,7.1554179 5.9127717,7.6026311 5.4655585,6.7082038 6.3599854,6.2609906 Z M 5.9127717,7.6026311 5.0183444,8.0498447 4.5711312,7.1554174 5.4655585,6.7082038 Z M 5.0183444,8.0498447 4.1239171,8.4970579 3.6767037,7.6026311 4.5711312,7.1554174 Z M 4.1239176,8.4970579 3.2294903,8.944272 2.7822762,8.0498457 3.6767035,7.6026311 Z M 3.2294898,8.944273 2.3350625,9.3914862 1.8878493,8.4970579 2.7822766,8.0498447 Z M 2.3350627,9.3914852 1.4406364,9.8386984 0.99342275,8.944272 1.8878491,8.4970589 Z M 1.4406364,9.8386984 0.54620814,10.285913 0.09899452,9.3914862 0.99342275,8.944272 Z M 0.54620814,10.285913 -0.5,10.809017 V 9.3606796 h 1 V 10 H 0 L -0.2236068,9.5527868 0.09899452,9.3914862 Z M -0.5,9.3606796 v -1 h 1 v 1 z m 0,-1 v -1 h 1 v 1 z m 0,-1 v -1 h 1 v 1 z m 0,-1 v -1 h 1 v 1 z m 0,-1 v -1 h 1 v 1 z m 0,-1 v -1 h 1 v 1 z m 0,-1 v -1 h 1 v 1 z m 0,-1 v -1 h 1 v 1 z m 0,-1 V 0.36067963 h 1 V 1.3606796 Z m 0,-0.99999997 V -0.809017 L 1.118034,2.9802322e-8 0.67082047,0.89442718 -0.2236068,0.44721359 0,0 h 0.5 v 0.36067963 z"
       style="fill:#333333;fill-opacity:1;fill-rule:nonzero;stroke:none"
       transform="matrix(1.2134891,0,0,1.2134891,-401.32697,67.33341)"
       clip-path="url(#clipPath12)" /><path
       id="path14"
       d="m -196.31383,73.40086 h 6.93796 c 6.93965,0 20.8159,0 36.02698,8.492915 15.20956,8.494414 31.75397,25.481745 40.02709,33.974655 l 8.27115,8.4929"
       style="fill:none;stroke:#333333;stroke-width:1.51687;stroke-linecap:butt;stroke-linejoin:miter;stroke-miterlimit:10;stroke-dasharray:none;stroke-opacity:1" /><g
       id="g19"
       clip-path="url(#clipPath19)"
       transform="matrix(2.3656065,0,0,2.3656065,-1935.2345,1.3858621)"><g
         clip-path="url(#clipPath16)"
         id="g18"><path
           d="M 0,0 10,5 0,10 Z"
           style="fill:#333333;fill-opacity:1;fill-rule:nonzero;stroke:none"
           transform="matrix(0.35789885,0.36748926,-0.36748926,0.35789885,773.71168,48.35781)"
           clip-path="url(#clipPath15)"
           id="path17" /><path
           d="M 1.118034,2.9802322e-8 2.0124612,0.44721365 1.5652476,1.3416408 0.67082047,0.89442718 Z M 2.0124612,0.44721365 2.9068885,0.89442724 2.4596748,1.7888544 1.5652476,1.3416408 Z M 2.9068885,0.89442724 3.8013158,1.3416409 3.3541021,2.236068 2.4596748,1.7888544 Z M 3.8013158,1.3416409 4.6957426,1.7888544 4.2485294,2.6832817 3.3541021,2.236068 Z M 4.6957426,1.7888544 5.5901699,2.236068 5.1429567,3.1304953 4.2485294,2.6832817 Z M 5.5901699,2.236068 6.4845972,2.6832817 6.037384,3.577709 5.1429567,3.1304953 Z M 6.4845972,2.6832817 7.3790245,3.1304953 6.9318113,4.0249224 6.037384,3.577709 Z M 7.3790245,3.1304953 8.2734518,3.5777087 7.8262382,4.472136 6.9318113,4.0249224 Z M 8.2734518,3.5777087 9.1678791,4.0249224 8.720665,4.9193497 7.8262382,4.472136 Z M 9.1678791,4.0249224 10.062306,4.472136 9.6150923,5.3665633 8.720665,4.9193497 Z M 10.062306,4.472136 11.118034,5 9.4904804,5.813777 9.0432663,4.9193497 9.7763929,4.5527864 10,5 9.7763929,5.4472136 9.6150923,5.3665633 Z M 9.4904804,5.813777 8.5960531,6.2609906 8.148839,5.3665633 9.0432663,4.9193497 Z M 8.5960531,6.2609906 7.7016258,6.7082038 7.2544127,5.8137765 8.148839,5.3665633 Z M 7.7016263,6.7082038 6.807199,7.1554179 6.3599849,6.2609906 7.2544122,5.8137765 Z M 6.8071985,7.1554179 5.9127717,7.6026311 5.4655585,6.7082038 6.3599854,6.2609906 Z M 5.9127717,7.6026311 5.0183444,8.0498447 4.5711312,7.1554174 5.4655585,6.7082038 Z M 5.0183444,8.0498447 4.1239171,8.4970579 3.6767037,7.6026311 4.5711312,7.1554174 Z M 4.1239176,8.4970579 3.2294903,8.944272 2.7822762,8.0498457 3.6767035,7.6026311 Z M 3.2294898,8.944273 2.3350625,9.3914862 1.8878493,8.4970579 2.7822766,8.0498447 Z M 2.3350627,9.3914852 1.4406364,9.8386984 0.99342275,8.944272 1.8878491,8.4970589 Z M 1.4406364,9.8386984 0.54620814,10.285913 0.09899452,9.3914862 0.99342275,8.944272 Z M 0.54620814,10.285913 -0.5,10.809017 V 9.3606796 h 1 V 10 H 0 L -0.2236068,9.5527868 0.09899452,9.3914862 Z M -0.5,9.3606796 v -1 h 1 v 1 z m 0,-1 v -1 h 1 v 1 z m 0,-1 v -1 h 1 v 1 z m 0,-1 v -1 h 1 v 1 z m 0,-1 v -1 h 1 v 1 z m 0,-1 v -1 h 1 v 1 z m 0,-1 v -1 h 1 v 1 z m 0,-1 v -1 h 1 v 1 z m 0,-1 V 0.36067963 h 1 V 1.3606796 Z m 0,-0.99999997 V -0.809017 L 1.118034,2.9802322e-8 0.67082047,0.89442718 -0.2236068,0.44721359 0,0 h 0.5 v 0.36067963 z"
           style="fill:#333333;fill-opacity:1;fill-rule:nonzero;stroke:none"
           transform="matrix(0.35789885,0.36748926,-0.36748926,0.35789885,773.71168,48.35781)"
           clip-path="url(#clipPath15)"
           id="path18" /></g></g><path
       id="path20"
       d="m -1345.0074,180.85228 14.1296,8.63701 c 14.1311,8.63549 42.3917,25.90953 65.131,34.545 22.7393,8.63703 39.9587,8.63703 48.5668,8.63703 h 8.6098"
       style="fill:none;stroke:#333333;stroke-width:1.51687;stroke-linecap:butt;stroke-linejoin:miter;stroke-miterlimit:10;stroke-dasharray:none;stroke-opacity:1" /><path
       id="path21"
       d="M 0,0 10,5 0,10 Z"
       style="fill:#333333;fill-opacity:1;fill-rule:nonzero;stroke:none"
       transform="matrix(1.2134891,0,0,1.2134891,-1214.6377,226.60387)"
       clip-path="url(#clipPath22)" /><path
       id="path23"
       d="M 1.118034,2.9802322e-8 2.0124612,0.44721365 1.5652476,1.3416408 0.67082047,0.89442718 Z M 2.0124612,0.44721365 2.9068885,0.89442724 2.4596748,1.7888544 1.5652476,1.3416408 Z M 2.9068885,0.89442724 3.8013158,1.3416409 3.3541021,2.236068 2.4596748,1.7888544 Z M 3.8013158,1.3416409 4.6957426,1.7888544 4.2485294,2.6832817 3.3541021,2.236068 Z M 4.6957426,1.7888544 5.5901699,2.236068 5.1429567,3.1304953 4.2485294,2.6832817 Z M 5.5901699,2.236068 6.4845972,2.6832817 6.037384,3.577709 5.1429567,3.1304953 Z M 6.4845972,2.6832817 7.3790245,3.1304953 6.9318113,4.0249224 6.037384,3.577709 Z M 7.3790245,3.1304953 8.2734518,3.5777087 7.8262382,4.472136 6.9318113,4.0249224 Z M 8.2734518,3.5777087 9.1678791,4.0249224 8.720665,4.9193497 7.8262382,4.472136 Z M 9.1678791,4.0249224 10.062306,4.472136 9.6150923,5.3665633 8.720665,4.9193497 Z M 10.062306,4.472136 11.118034,5 9.4904804,5.813777 9.0432663,4.9193497 9.7763929,4.5527864 10,5 9.7763929,5.4472136 9.6150923,5.3665633 Z M 9.4904804,5.813777 8.5960531,6.2609906 8.148839,5.3665633 9.0432663,4.9193497 Z M 8.5960531,6.2609906 7.7016258,6.7082038 7.2544127,5.8137765 8.148839,5.3665633 Z M 7.7016263,6.7082038 6.807199,7.1554179 6.3599849,6.2609906 7.2544122,5.8137765 Z M 6.8071985,7.1554179 5.9127717,7.6026311 5.4655585,6.7082038 6.3599854,6.2609906 Z M 5.9127717,7.6026311 5.0183444,8.0498447 4.5711312,7.1554174 5.4655585,6.7082038 Z M 5.0183444,8.0498447 4.1239171,8.4970579 3.6767037,7.6026311 4.5711312,7.1554174 Z M 4.1239176,8.4970579 3.2294903,8.944272 2.7822762,8.0498457 3.6767035,7.6026311 Z M 3.2294898,8.944273 2.3350625,9.3914862 1.8878493,8.4970579 2.7822766,8.0498447 Z M 2.3350627,9.3914852 1.4406364,9.8386984 0.99342275,8.944272 1.8878491,8.4970589 Z M 1.4406364,9.8386984 0.54620814,10.285913 0.09899452,9.3914862 0.99342275,8.944272 Z M 0.54620814,10.285913 -0.5,10.809017 V 9.3606796 h 1 V 10 H 0 L -0.2236068,9.5527868 0.09899452,9.3914862 Z M -0.5,9.3606796 v -1 h 1 v 1 z m 0,-1 v -1 h 1 v 1 z m 0,-1 v -1 h 1 v 1 z m 0,-1 v -1 h 1 v 1 z m 0,-1 v -1 h 1 v 1 z m 0,-1 v -1 h 1 v 1 z m 0,-1 v -1 h 1 v 1 z m 0,-1 v -1 h 1 v 1 z m 0,-1 V 0.36067963 h 1 V 1.3606796 Z m 0,-0.99999997 V -0.809017 L 1.118034,2.9802322e-8 0.67082047,0.89442718 -0.2236068,0.44721359 0,0 h 0.5 v 0.36067963 z"
       style="fill:#333333;fill-opacity:1;fill-rule:nonzero;stroke:none"
       transform="matrix(1.2134891,0,0,1.2134891,-1214.6377,226.60387)"
       clip-path="url(#clipPath22)" /><path
       id="path24"
       d="m -1008.9847,232.67132 h 6.3208 c 6.32074,0 18.9608,0 30.5905,0 11.62833,0 22.24637,0 27.55538,0 h 5.30901"
       style="fill:none;stroke:#333333;stroke-width:1.51687;stroke-linecap:butt;stroke-linejoin:miter;stroke-miterlimit:10;stroke-dasharray:none;stroke-opacity:1" /><path
       id="path25"
       d="M 0,0 10,5 0,10 Z"
       style="fill:#333333;fill-opacity:1;fill-rule:nonzero;stroke:none"
       transform="matrix(1.2134891,0,0,1.2134891,-945.27644,226.60387)"
       clip-path="url(#clipPath26)" /><path
       id="path27"
       d="M 1.118034,2.9802322e-8 2.0124612,0.44721365 1.5652476,1.3416408 0.67082047,0.89442718 Z M 2.0124612,0.44721365 2.9068885,0.89442724 2.4596748,1.7888544 1.5652476,1.3416408 Z M 2.9068885,0.89442724 3.8013158,1.3416409 3.3541021,2.236068 2.4596748,1.7888544 Z M 3.8013158,1.3416409 4.6957426,1.7888544 4.2485294,2.6832817 3.3541021,2.236068 Z M 4.6957426,1.7888544 5.5901699,2.236068 5.1429567,3.1304953 4.2485294,2.6832817 Z M 5.5901699,2.236068 6.4845972,2.6832817 6.037384,3.577709 5.1429567,3.1304953 Z M 6.4845972,2.6832817 7.3790245,3.1304953 6.9318113,4.0249224 6.037384,3.577709 Z M 7.3790245,3.1304953 8.2734518,3.5777087 7.8262382,4.472136 6.9318113,4.0249224 Z M 8.2734518,3.5777087 9.1678791,4.0249224 8.720665,4.9193497 7.8262382,4.472136 Z M 9.1678791,4.0249224 10.062306,4.472136 9.6150923,5.3665633 8.720665,4.9193497 Z M 10.062306,4.472136 11.118034,5 9.4904804,5.813777 9.0432663,4.9193497 9.7763929,4.5527864 10,5 9.7763929,5.4472136 9.6150923,5.3665633 Z M 9.4904804,5.813777 8.5960531,6.2609906 8.148839,5.3665633 9.0432663,4.9193497 Z M 8.5960531,6.2609906 7.7016258,6.7082038 7.2544127,5.8137765 8.148839,5.3665633 Z M 7.7016263,6.7082038 6.807199,7.1554179 6.3599849,6.2609906 7.2544122,5.8137765 Z M 6.8071985,7.1554179 5.9127717,7.6026311 5.4655585,6.7082038 6.3599854,6.2609906 Z M 5.9127717,7.6026311 5.0183444,8.0498447 4.5711312,7.1554174 5.4655585,6.7082038 Z M 5.0183444,8.0498447 4.1239171,8.4970579 3.6767037,7.6026311 4.5711312,7.1554174 Z M 4.1239176,8.4970579 3.2294903,8.944272 2.7822762,8.0498457 3.6767035,7.6026311 Z M 3.2294898,8.944273 2.3350625,9.3914862 1.8878493,8.4970579 2.7822766,8.0498447 Z M 2.3350627,9.3914852 1.4406364,9.8386984 0.99342275,8.944272 1.8878491,8.4970589 Z M 1.4406364,9.8386984 0.54620814,10.285913 0.09899452,9.3914862 0.99342275,8.944272 Z M 0.54620814,10.285913 -0.5,10.809017 V 9.3606796 h 1 V 10 H 0 L -0.2236068,9.5527868 0.09899452,9.3914862 Z M -0.5,9.3606796 v -1 h 1 v 1 z m 0,-1 v -1 h 1 v 1 z m 0,-1 v -1 h 1 v 1 z m 0,-1 v -1 h 1 v 1 z m 0,-1 v -1 h 1 v 1 z m 0,-1 v -1 h 1 v 1 z m 0,-1 v -1 h 1 v 1 z m 0,-1 v -1 h 1 v 1 z m 0,-1 V 0.36067963 h 1 V 1.3606796 Z m 0,-0.99999997 V -0.809017 L 1.118034,2.9802322e-8 0.67082047,0.89442718 -0.2236068,0.44721359 0,0 h 0.5 v 0.36067963 z"
       style="fill:#333333;fill-opacity:1;fill-rule:nonzero;stroke:none"
       transform="matrix(1.2134891,0,0,1.2134891,-945.27644,226.60387)"
       clip-path="url(#clipPath26)" /><path
       id="path28"
       d="m -794.30171,256.01884 13.51065,5.46221 c 13.51222,5.46221 40.53511,16.38818 62.657,21.85191 22.1204,5.46221 39.33979,5.46221 47.94956,5.46221 h 8.60962"
       style="fill:none;stroke:#333333;stroke-width:1.51687;stroke-linecap:butt;stroke-linejoin:miter;stroke-miterlimit:10;stroke-dasharray:none;stroke-opacity:1" /><path
       id="path29"
       d="M 0,0 10,5 0,10 Z"
       style="fill:#333333;fill-opacity:1;fill-rule:nonzero;stroke:none"
       transform="matrix(1.2134891,0,0,1.2134891,-667.6423,282.72774)"
       clip-path="url(#clipPath30)" /><path
       id="path31"
       d="M 1.118034,2.9802322e-8 2.0124612,0.44721365 1.5652476,1.3416408 0.67082047,0.89442718 Z M 2.0124612,0.44721365 2.9068885,0.89442724 2.4596748,1.7888544 1.5652476,1.3416408 Z M 2.9068885,0.89442724 3.8013158,1.3416409 3.3541021,2.236068 2.4596748,1.7888544 Z M 3.8013158,1.3416409 4.6957426,1.7888544 4.2485294,2.6832817 3.3541021,2.236068 Z M 4.6957426,1.7888544 5.5901699,2.236068 5.1429567,3.1304953 4.2485294,2.6832817 Z M 5.5901699,2.236068 6.4845972,2.6832817 6.037384,3.577709 5.1429567,3.1304953 Z M 6.4845972,2.6832817 7.3790245,3.1304953 6.9318113,4.0249224 6.037384,3.577709 Z M 7.3790245,3.1304953 8.2734518,3.5777087 7.8262382,4.472136 6.9318113,4.0249224 Z M 8.2734518,3.5777087 9.1678791,4.0249224 8.720665,4.9193497 7.8262382,4.472136 Z M 9.1678791,4.0249224 10.062306,4.472136 9.6150923,5.3665633 8.720665,4.9193497 Z M 10.062306,4.472136 11.118034,5 9.4904804,5.813777 9.0432663,4.9193497 9.7763929,4.5527864 10,5 9.7763929,5.4472136 9.6150923,5.3665633 Z M 9.4904804,5.813777 8.5960531,6.2609906 8.148839,5.3665633 9.0432663,4.9193497 Z M 8.5960531,6.2609906 7.7016258,6.7082038 7.2544127,5.8137765 8.148839,5.3665633 Z M 7.7016263,6.7082038 6.807199,7.1554179 6.3599849,6.2609906 7.2544122,5.8137765 Z M 6.8071985,7.1554179 5.9127717,7.6026311 5.4655585,6.7082038 6.3599854,6.2609906 Z M 5.9127717,7.6026311 5.0183444,8.0498447 4.5711312,7.1554174 5.4655585,6.7082038 Z M 5.0183444,8.0498447 4.1239171,8.4970579 3.6767037,7.6026311 4.5711312,7.1554174 Z M 4.1239176,8.4970579 3.2294903,8.944272 2.7822762,8.0498457 3.6767035,7.6026311 Z M 3.2294898,8.944273 2.3350625,9.3914862 1.8878493,8.4970579 2.7822766,8.0498447 Z M 2.3350627,9.3914852 1.4406364,9.8386984 0.99342275,8.944272 1.8878491,8.4970589 Z M 1.4406364,9.8386984 0.54620814,10.285913 0.09899452,9.3914862 0.99342275,8.944272 Z M 0.54620814,10.285913 -0.5,10.809017 V 9.3606796 h 1 V 10 H 0 L -0.2236068,9.5527868 0.09899452,9.3914862 Z M -0.5,9.3606796 v -1 h 1 v 1 z m 0,-1 v -1 h 1 v 1 z m 0,-1 v -1 h 1 v 1 z m 0,-1 v -1 h 1 v 1 z m 0,-1 v -1 h 1 v 1 z m 0,-1 v -1 h 1 v 1 z m 0,-1 v -1 h 1 v 1 z m 0,-1 v -1 h 1 v 1 z m 0,-1 V 0.36067963 h 1 V 1.3606796 Z m 0,-0.99999997 V -0.809017 L 1.118034,2.9802322e-8 0.67082047,0.89442718 -0.2236068,0.44721359 0,0 h 0.5 v 0.36067963 z"
       style="fill:#333333;fill-opacity:1;fill-rule:nonzero;stroke:none"
       transform="matrix(1.2134891,0,0,1.2134891,-667.6423,282.72774)"
       clip-path="url(#clipPath30)" /><path
       id="path32"
       d="m -794.30171,209.32377 13.51065,-5.46221 c 13.51222,-5.46223 40.53511,-16.38819 79.23175,-21.85191 38.69662,-5.46221 89.06405,-5.46221 136.13229,-5.46221 47.06817,0 90.83569,0 118.10428,2.18882 27.26712,2.18731 38.03384,6.56499 43.41721,8.7523 l 5.38329,2.18883"
       style="fill:none;stroke:#333333;stroke-width:1.51687;stroke-linecap:butt;stroke-linejoin:miter;stroke-miterlimit:10;stroke-dasharray:none;stroke-opacity:1" /><g
       id="g37"
       clip-path="url(#clipPath37)"
       transform="matrix(2.3656065,0,0,2.3656065,-1935.2345,1.3858621)"><g
         clip-path="url(#clipPath34)"
         id="g36"><path
           d="M 0,0 10,5 0,10 Z"
           style="fill:#333333;fill-opacity:1;fill-rule:nonzero;stroke:none"
           transform="matrix(0.4751932,0.19321323,-0.19321323,0.4751932,648.1961,76.253421)"
           clip-path="url(#clipPath33)"
           id="path35" /><path
           d="M 1.118034,2.9802322e-8 2.0124612,0.44721365 1.5652476,1.3416408 0.67082047,0.89442718 Z M 2.0124612,0.44721365 2.9068885,0.89442724 2.4596748,1.7888544 1.5652476,1.3416408 Z M 2.9068885,0.89442724 3.8013158,1.3416409 3.3541021,2.236068 2.4596748,1.7888544 Z M 3.8013158,1.3416409 4.6957426,1.7888544 4.2485294,2.6832817 3.3541021,2.236068 Z M 4.6957426,1.7888544 5.5901699,2.236068 5.1429567,3.1304953 4.2485294,2.6832817 Z M 5.5901699,2.236068 6.4845972,2.6832817 6.037384,3.577709 5.1429567,3.1304953 Z M 6.4845972,2.6832817 7.3790245,3.1304953 6.9318113,4.0249224 6.037384,3.577709 Z M 7.3790245,3.1304953 8.2734518,3.5777087 7.8262382,4.472136 6.9318113,4.0249224 Z M 8.2734518,3.5777087 9.1678791,4.0249224 8.720665,4.9193497 7.8262382,4.472136 Z M 9.1678791,4.0249224 10.062306,4.472136 9.6150923,5.3665633 8.720665,4.9193497 Z M 10.062306,4.472136 11.118034,5 9.4904804,5.813777 9.0432663,4.9193497 9.7763929,4.5527864 10,5 9.7763929,5.4472136 9.6150923,5.3665633 Z M 9.4904804,5.813777 8.5960531,6.2609906 8.148839,5.3665633 9.0432663,4.9193497 Z M 8.5960531,6.2609906 7.7016258,6.7082038 7.2544127,5.8137765 8.148839,5.3665633 Z M 7.7016263,6.7082038 6.807199,7.1554179 6.3599849,6.2609906 7.2544122,5.8137765 Z M 6.8071985,7.1554179 5.9127717,7.6026311 5.4655585,6.7082038 6.3599854,6.2609906 Z M 5.9127717,7.6026311 5.0183444,8.0498447 4.5711312,7.1554174 5.4655585,6.7082038 Z M 5.0183444,8.0498447 4.1239171,8.4970579 3.6767037,7.6026311 4.5711312,7.1554174 Z M 4.1239176,8.4970579 3.2294903,8.944272 2.7822762,8.0498457 3.6767035,7.6026311 Z M 3.2294898,8.944273 2.3350625,9.3914862 1.8878493,8.4970579 2.7822766,8.0498447 Z M 2.3350627,9.3914852 1.4406364,9.8386984 0.99342275,8.944272 1.8878491,8.4970589 Z M 1.4406364,9.8386984 0.54620814,10.285913 0.09899452,9.3914862 0.99342275,8.944272 Z M 0.54620814,10.285913 -0.5,10.809017 V 9.3606796 h 1 V 10 H 0 L -0.2236068,9.5527868 0.09899452,9.3914862 Z M -0.5,9.3606796 v -1 h 1 v 1 z m 0,-1 v -1 h 1 v 1 z m 0,-1 v -1 h 1 v 1 z m 0,-1 v -1 h 1 v 1 z m 0,-1 v -1 h 1 v 1 z m 0,-1 v -1 h 1 v 1 z m 0,-1 v -1 h 1 v 1 z m 0,-1 v -1 h 1 v 1 z m 0,-1 V 0.36067963 h 1 V 1.3606796 Z m 0,-0.99999997 V -0.809017 L 1.118034,2.9802322e-8 0.67082047,0.89442718 -0.2236068,0.44721359 0,0 h 0.5 v 0.36067963 z"
           style="fill:#333333;fill-opacity:1;fill-rule:nonzero;stroke:none"
           transform="matrix(0.4751932,0.19321323,-0.19321323,0.4751932,648.1961,76.253421)"
           clip-path="url(#clipPath33)"
           id="path36" /></g></g><path
       id="path38"
       d="m -468.74385,288.79517 h 6.31927 c 6.32073,0 18.96076,0 30.66486,-2.1888 11.7041,-2.18731 22.47082,-6.56499 27.85419,-8.75232 l 5.38329,-2.18885"
       style="fill:none;stroke:#333333;stroke-width:1.51687;stroke-linecap:butt;stroke-linejoin:miter;stroke-miterlimit:10;stroke-dasharray:none;stroke-opacity:1" /><g
       id="g43"
       clip-path="url(#clipPath43)"
       transform="matrix(2.3656065,0,0,2.3656065,-1935.2345,1.3858621)"><g
         clip-path="url(#clipPath40)"
         id="g42"><path
           d="M 0,0 10,5 0,10 Z"
           style="fill:#333333;fill-opacity:1;fill-rule:nonzero;stroke:none"
           transform="matrix(0.47519281,-0.1932141,0.1932141,0.47519281,646.26397,114.53472)"
           clip-path="url(#clipPath39)"
           id="path41" /><path
           d="M 1.118034,2.9802322e-8 2.0124612,0.44721365 1.5652476,1.3416408 0.67082047,0.89442718 Z M 2.0124612,0.44721365 2.9068885,0.89442724 2.4596748,1.7888544 1.5652476,1.3416408 Z M 2.9068885,0.89442724 3.8013158,1.3416409 3.3541021,2.236068 2.4596748,1.7888544 Z M 3.8013158,1.3416409 4.6957426,1.7888544 4.2485294,2.6832817 3.3541021,2.236068 Z M 4.6957426,1.7888544 5.5901699,2.236068 5.1429567,3.1304953 4.2485294,2.6832817 Z M 5.5901699,2.236068 6.4845972,2.6832817 6.037384,3.577709 5.1429567,3.1304953 Z M 6.4845972,2.6832817 7.3790245,3.1304953 6.9318113,4.0249224 6.037384,3.577709 Z M 7.3790245,3.1304953 8.2734518,3.5777087 7.8262382,4.472136 6.9318113,4.0249224 Z M 8.2734518,3.5777087 9.1678791,4.0249224 8.720665,4.9193497 7.8262382,4.472136 Z M 9.1678791,4.0249224 10.062306,4.472136 9.6150923,5.3665633 8.720665,4.9193497 Z M 10.062306,4.472136 11.118034,5 9.4904804,5.813777 9.0432663,4.9193497 9.7763929,4.5527864 10,5 9.7763929,5.4472136 9.6150923,5.3665633 Z M 9.4904804,5.813777 8.5960531,6.2609906 8.148839,5.3665633 9.0432663,4.9193497 Z M 8.5960531,6.2609906 7.7016258,6.7082038 7.2544127,5.8137765 8.148839,5.3665633 Z M 7.7016263,6.7082038 6.807199,7.1554179 6.3599849,6.2609906 7.2544122,5.8137765 Z M 6.8071985,7.1554179 5.9127717,7.6026311 5.4655585,6.7082038 6.3599854,6.2609906 Z M 5.9127717,7.6026311 5.0183444,8.0498447 4.5711312,7.1554174 5.4655585,6.7082038 Z M 5.0183444,8.0498447 4.1239171,8.4970579 3.6767037,7.6026311 4.5711312,7.1554174 Z M 4.1239176,8.4970579 3.2294903,8.944272 2.7822762,8.0498457 3.6767035,7.6026311 Z M 3.2294898,8.944273 2.3350625,9.3914862 1.8878493,8.4970579 2.7822766,8.0498447 Z M 2.3350627,9.3914852 1.4406364,9.8386984 0.99342275,8.944272 1.8878491,8.4970589 Z M 1.4406364,9.8386984 0.54620814,10.285913 0.09899452,9.3914862 0.99342275,8.944272 Z M 0.54620814,10.285913 -0.5,10.809017 V 9.3606796 h 1 V 10 H 0 L -0.2236068,9.5527868 0.09899452,9.3914862 Z M -0.5,9.3606796 v -1 h 1 v 1 z m 0,-1 v -1 h 1 v 1 z m 0,-1 v -1 h 1 v 1 z m 0,-1 v -1 h 1 v 1 z m 0,-1 v -1 h 1 v 1 z m 0,-1 v -1 h 1 v 1 z m 0,-1 v -1 h 1 v 1 z m 0,-1 v -1 h 1 v 1 z m 0,-1 V 0.36067963 h 1 V 1.3606796 Z m 0,-0.99999997 V -0.809017 L 1.118034,2.9802322e-8 0.67082047,0.89442718 -0.2236068,0.44721359 0,0 h 0.5 v 0.36067963 z"
           style="fill:#333333;fill-opacity:1;fill-rule:nonzero;stroke:none"
           transform="matrix(0.47519281,-0.1932141,0.1932141,0.47519281,646.26397,114.53472)"
           clip-path="url(#clipPath39)"
           id="path42" /></g></g><path
       id="path44"
       d="m -192.60527,232.67132 h 6.32076 c 6.32075,0 18.96078,0 33.48487,-8.03484 14.5238,-8.03328 30.93169,-24.1014 39.13488,-32.13622 l 8.20303,-8.03329"
       style="fill:none;stroke:#333333;stroke-width:1.51687;stroke-linecap:butt;stroke-linejoin:miter;stroke-miterlimit:10;stroke-dasharray:none;stroke-opacity:1" /><g
       id="g49"
       clip-path="url(#clipPath49)"
       transform="matrix(2.3656065,0,0,2.3656065,-1935.2345,1.3858621)"><g
         clip-path="url(#clipPath46)"
         id="g48"><path
           d="M 0,0 10,5 0,10 Z"
           style="fill:#333333;fill-opacity:1;fill-rule:nonzero;stroke:none"
           transform="matrix(0.36649973,-0.35891207,0.35891207,0.36649973,769.86294,77.354944)"
           clip-path="url(#clipPath45)"
           id="path47" /><path
           d="M 1.118034,2.9802322e-8 2.0124612,0.44721365 1.5652476,1.3416408 0.67082047,0.89442718 Z M 2.0124612,0.44721365 2.9068885,0.89442724 2.4596748,1.7888544 1.5652476,1.3416408 Z M 2.9068885,0.89442724 3.8013158,1.3416409 3.3541021,2.236068 2.4596748,1.7888544 Z M 3.8013158,1.3416409 4.6957426,1.7888544 4.2485294,2.6832817 3.3541021,2.236068 Z M 4.6957426,1.7888544 5.5901699,2.236068 5.1429567,3.1304953 4.2485294,2.6832817 Z M 5.5901699,2.236068 6.4845972,2.6832817 6.037384,3.577709 5.1429567,3.1304953 Z M 6.4845972,2.6832817 7.3790245,3.1304953 6.9318113,4.0249224 6.037384,3.577709 Z M 7.3790245,3.1304953 8.2734518,3.5777087 7.8262382,4.472136 6.9318113,4.0249224 Z M 8.2734518,3.5777087 9.1678791,4.0249224 8.720665,4.9193497 7.8262382,4.472136 Z M 9.1678791,4.0249224 10.062306,4.472136 9.6150923,5.3665633 8.720665,4.9193497 Z M 10.062306,4.472136 11.118034,5 9.4904804,5.813777 9.0432663,4.9193497 9.7763929,4.5527864 10,5 9.7763929,5.4472136 9.6150923,5.3665633 Z M 9.4904804,5.813777 8.5960531,6.2609906 8.148839,5.3665633 9.0432663,4.9193497 Z M 8.5960531,6.2609906 7.7016258,6.7082038 7.2544127,5.8137765 8.148839,5.3665633 Z M 7.7016263,6.7082038 6.807199,7.1554179 6.3599849,6.2609906 7.2544122,5.8137765 Z M 6.8071985,7.1554179 5.9127717,7.6026311 5.4655585,6.7082038 6.3599854,6.2609906 Z M 5.9127717,7.6026311 5.0183444,8.0498447 4.5711312,7.1554174 5.4655585,6.7082038 Z M 5.0183444,8.0498447 4.1239171,8.4970579 3.6767037,7.6026311 4.5711312,7.1554174 Z M 4.1239176,8.4970579 3.2294903,8.944272 2.7822762,8.0498457 3.6767035,7.6026311 Z M 3.2294898,8.944273 2.3350625,9.3914862 1.8878493,8.4970579 2.7822766,8.0498447 Z M 2.3350627,9.3914852 1.4406364,9.8386984 0.99342275,8.944272 1.8878491,8.4970589 Z M 1.4406364,9.8386984 0.54620814,10.285913 0.09899452,9.3914862 0.99342275,8.944272 Z M 0.54620814,10.285913 -0.5,10.809017 V 9.3606796 h 1 V 10 H 0 L -0.2236068,9.5527868 0.09899452,9.3914862 Z M -0.5,9.3606796 v -1 h 1 v 1 z m 0,-1 v -1 h 1 v 1 z m 0,-1 v -1 h 1 v 1 z m 0,-1 v -1 h 1 v 1 z m 0,-1 v -1 h 1 v 1 z m 0,-1 v -1 h 1 v 1 z m 0,-1 v -1 h 1 v 1 z m 0,-1 v -1 h 1 v 1 z m 0,-1 V 0.36067963 h 1 V 1.3606796 Z m 0,-0.99999997 V -0.809017 L 1.118034,2.9802322e-8 0.67082047,0.89442718 -0.2236068,0.44721359 0,0 h 0.5 v 0.36067963 z"
           style="fill:#333333;fill-opacity:1;fill-rule:nonzero;stroke:none"
           transform="matrix(0.36649973,-0.35891207,0.35891207,0.36649973,769.86294,77.354944)"
           clip-path="url(#clipPath45)"
           id="path48" /></g></g><path
       id="path50"
       d="M 0,0 H 20 V 24 H 0 Z"
       style="fill:#ffffff;fill-opacity:1;fill-rule:nonzero;stroke:none"
       transform="matrix(1.5168614,0,0,1.5168614,-867.56035,55.198512)"
       clip-path="url(#clipPath51)" /><path
       id="path52"
       d="M 0,0 H 20 V 24 H 0 Z"
       style="fill:#ffffff;fill-opacity:1;fill-rule:nonzero;stroke:none"
       transform="matrix(1.5168614,0,0,1.5168614,-867.56035,55.198512)"
       clip-path="url(#clipPath51)" /><g
       id="g52"
       transform="matrix(2.3656065,0,0,2.3656065,-1935.2345,1.3858621)" /><text
       id="text52"
       xml:space="preserve"
       x="-867.56036"
       y="80.985168"
       style="font-size:18.2024px;stroke-width:1.51687"><tspan
         id="tspan52"
         style="font-variant:normal;font-weight:normal;font-size:24.2698px;font-family:'Liberation Sans';writing-mode:lr-tb;fill:#333333;fill-opacity:1;fill-rule:nonzero;stroke:none;stroke-width:1.51687"
         x="-867.56036"
         y="80.985168">No</tspan></text><path
       id="path53"
       d="M 0,0 H 26 V 24 H 0 Z"
       style="fill:#ffffff;fill-opacity:1;fill-rule:nonzero;stroke:none"
       transform="matrix(1.5168614,0,0,1.5168614,-1280.0283,214.46896)"
       clip-path="url(#clipPath54)" /><path
       id="path55"
       d="M 0,0 H 26 V 24 H 0 Z"
       style="fill:#ffffff;fill-opacity:1;fill-rule:nonzero;stroke:none"
       transform="matrix(1.5168614,0,0,1.5168614,-1280.0283,214.46896)"
       clip-path="url(#clipPath54)" /><g
       id="g55"
       transform="matrix(2.3656065,0,0,2.3656065,-1935.2345,1.3858621)" /><text
       id="text55"
       xml:space="preserve"
       x="-1280.0283"
       y="240.2556"
       style="font-size:18.2024px;stroke-width:1.51687"><tspan
         id="tspan55"
         style="font-variant:normal;font-weight:normal;font-size:24.2698px;font-family:'Liberation Sans';writing-mode:lr-tb;fill:#333333;fill-opacity:1;fill-rule:nonzero;stroke:none;stroke-width:1.51687"
         x="-1280.0283"
         dx="0 -2.2278903"
         y="240.2556">Yes</tspan></text><path
       id="path56"
       d="M 0,0 H 26 V 24 H 0 Z"
       style="fill:#ffffff;fill-opacity:1;fill-rule:nonzero;stroke:none"
       transform="matrix(1.5168614,0,0,1.5168614,-733.03377,270.59284)"
       clip-path="url(#clipPath57)" /><path
       id="path58"
       d="M 0,0 H 26 V 24 H 0 Z"
       style="fill:#ffffff;fill-opacity:1;fill-rule:nonzero;stroke:none"
       transform="matrix(1.5168614,0,0,1.5168614,-733.03377,270.59284)"
       clip-path="url(#clipPath57)" /><g
       id="g58"
       transform="matrix(2.3656065,0,0,2.3656065,-1935.2345,1.3858621)" /><text
       id="text58"
       xml:space="preserve"
       x="-733.03387"
       y="296.37946"
       style="font-size:18.2024px;stroke-width:1.51687"><tspan
         id="tspan58"
         style="font-variant:normal;font-weight:normal;font-size:24.2698px;font-family:'Liberation Sans';writing-mode:lr-tb;fill:#333333;fill-opacity:1;fill-rule:nonzero;stroke:none;stroke-width:1.51687"
         x="-733.03387"
         dx="0 -2.2278903"
         y="296.37946">Yes</tspan></text><path
       id="path59"
       d="M 0,0 H 20 V 24 H 0 Z"
       style="fill:#ffffff;fill-opacity:1;fill-rule:nonzero;stroke:none"
       transform="matrix(1.5168614,0,0,1.5168614,-577.63847,158.34509)"
       clip-path="url(#clipPath60)" /><path
       id="path61"
       d="M 0,0 H 20 V 24 H 0 Z"
       style="fill:#ffffff;fill-opacity:1;fill-rule:nonzero;stroke:none"
       transform="matrix(1.5168614,0,0,1.5168614,-577.63847,158.34509)"
       clip-path="url(#clipPath60)" /><g
       id="g61"
       transform="matrix(2.3656065,0,0,2.3656065,-1935.2345,1.3858621)" /><text
       id="text61"
       xml:space="preserve"
       x="-577.63855"
       y="184.13171"
       style="font-size:18.2024px;stroke-width:1.51687"><tspan
         id="tspan61"
         style="font-variant:normal;font-weight:normal;font-size:24.2698px;font-family:'Liberation Sans';writing-mode:lr-tb;fill:#333333;fill-opacity:1;fill-rule:nonzero;stroke:none;stroke-width:1.51687"
         x="-577.63855"
         y="184.13171">No</tspan></text><path
       id="path62"
       d="m -1874.5042,124.21573 c 6.1387,0 12.2774,0 29.6499,0 0.4337,0.0142 0.8673,0.0279 1.8951,0.0608 0.462,0.0444 0.9239,0.0892 1.8873,0.18215 0.6433,0.1041 1.2867,0.20793 1.8718,0.3026 0.5806,0.13248 1.1612,0.26505 1.8486,0.42194 0.6864,0.20367 1.3729,0.40747 1.8177,0.53948 0.5787,0.2129 1.1576,0.42602 1.7794,0.65484 0.4397,0.19469 0.8795,0.38933 1.7339,0.76752 0.6688,0.34895 1.3377,0.69793 1.681,0.877 0.4451,0.26987 0.8903,0.53974 1.6214,0.98294 0.6214,0.43338 1.2426,0.86676 1.5552,1.08477 0.4817,0.38415 0.9634,0.7683 1.4824,1.18221 0.5191,0.47148 1.0384,0.943 1.4036,1.27473 0.4816,0.49723 0.9631,0.99445 1.3191,1.36207 0.3908,0.45902 0.7816,0.91807 1.2291,1.44377 0.3618,0.48479 0.7237,0.96957 1.1341,1.51955 0.2445,0.37576 0.4891,0.75148 1.0343,1.5891 0.2154,0.38221 0.4306,0.76442 0.9305,1.6521 0.3015,0.62608 0.603,1.25214 0.8227,1.70832 0.2344,0.57894 0.4687,1.15786 0.7115,1.75753 0.1248,0.37584 0.2496,0.75171 0.5975,1.79949 0.1627,0.62047 0.3254,1.24097 0.4809,1.83407 0.086,0.43842 0.1709,0.87681 0.3625,1.86114 0.092,0.71364 0.1841,1.42725 0.2425,1.88052 0.038,0.58283 0.074,1.16568 0.1214,1.8922 0,0.61145 0,1.2229 0,1.8961 -0.036,0.56047 -0.072,1.1209 -0.1214,1.89221 -0.093,0.72683 -0.1874,1.45369 -0.2425,1.88051 -0.1297,0.66632 -0.2596,1.33262 -0.3625,1.86114 -0.1454,0.55509 -0.2911,1.11021 -0.4809,1.83409 -0.2358,0.71057 -0.4719,1.42118 -0.5975,1.79949 -0.177,0.43726 -0.354,0.87452 -0.7115,1.75753 -0.234,0.48594 -0.4681,0.97188 -0.8227,1.70832 -0.2344,0.41602 -0.4686,0.83206 -0.9305,1.65209 -0.2637,0.40515 -0.5274,0.81033 -1.0343,1.5891 -0.2426,0.32505 -0.4852,0.65009 -1.1341,1.51954 -0.4411,0.51819 -0.8822,1.03638 -1.2291,1.44378 -0.3361,0.34705 -0.6722,0.69409 -1.3191,1.36206 -0.4638,0.42126 -0.9277,0.8425 -1.4036,1.27477 -0.582,0.46412 -1.164,0.92826 -1.4824,1.18218 -0.4936,0.34432 -0.9873,0.68863 -1.5552,1.08478 -0.5424,0.32881 -1.0848,0.65761 -1.6214,0.98293 -0.4822,0.25153 -0.9643,0.50309 -1.681,0.87703 -0.6106,0.27024 -1.2211,0.54051 -1.7339,0.76749 -0.4621,0.17009 -0.9242,0.34012 -1.7794,0.65485 -0.4801,0.14241 -0.96,0.28491 -1.8177,0.53948 -0.7011,0.1599 -1.4022,0.32003 -1.8486,0.42192 -0.7001,0.11331 -1.4002,0.22639 -1.8718,0.30261 -0.5404,0.052 -1.0808,0.10431 -1.8873,0.18216 -0.4883,0.0166 -0.9766,0.0312 -1.8951,0.0608 -10.2103,0 -20.4207,0 -29.6499,0 -0.4869,-0.0166 -0.9738,-0.0312 -1.8951,-0.0608 -0.5666,-0.0546 -1.1331,-0.1093 -1.8874,-0.18216 -0.3992,-0.0646 -0.7984,-0.12916 -1.8717,-0.30261 -0.5407,-0.12348 -1.0813,-0.24675 -1.8486,-0.42192 -0.4102,-0.1216 -0.8203,-0.24347 -1.8178,-0.53948 -0.5761,-0.21196 -1.1523,-0.42408 -1.7794,-0.65485 -0.6716,-0.29729 -1.3432,-0.5946 -1.7338,-0.76749 -0.605,-0.31563 -1.2099,-0.63124 -1.681,-0.87703 -0.3367,-0.20416 -0.6733,-0.40807 -1.6215,-0.98293 -0.4284,-0.29881 -0.8567,-0.59765 -1.5551,-1.08478 -0.307,-0.24473 -0.6138,-0.48944 -1.4824,-1.18218 -0.3284,-0.29816 -0.6567,-0.59633 -1.4037,-1.27477 -0.411,-0.42434 -0.8219,-0.84865 -1.3191,-1.36206 -0.4347,-0.51066 -0.8695,-1.02135 -1.229,-1.44378 -0.4416,-0.59159 -0.8831,-1.1832 -1.1342,-1.51954 -0.3126,-0.48037 -0.6253,-0.9607 -1.0344,-1.5891 -0.3022,-0.53659 -0.6043,-1.07318 -0.9304,-1.65209 -0.2278,-0.47289 -0.4554,-0.94574 -0.8226,-1.70832 -0.2329,-0.5748 -0.4655,-1.14958 -0.7116,-1.75753 -0.1465,-0.44074 -0.2927,-0.88145 -0.5975,-1.79949 -0.1407,-0.53669 -0.2814,-1.07337 -0.4809,-1.83409 -0.079,-0.40584 -0.1581,-0.81168 -0.3625,-1.86114 -0.077,-0.59731 -0.154,-1.19463 -0.2425,-1.88051 -0.047,-0.74429 -0.095,-1.48856 -0.1215,-1.89221 0,-0.4399 0,-0.87983 0,-1.8961 0.048,-0.74736 0.096,-1.49475 0.1215,-1.8922 0.08,-0.61978 0.16,-1.2396 0.2425,-1.88052 0.1112,-0.57034 0.2221,-1.14071 0.3625,-1.86114 0.1393,-0.53096 0.2784,-1.06194 0.4809,-1.83407 0.206,-0.62064 0.4121,-1.2413 0.5975,-1.79949 0.2768,-0.68374 0.5536,-1.36749 0.7116,-1.75753 0.1849,-0.38423 0.37,-0.76845 0.8226,-1.70832 0.2705,-0.48025 0.541,-0.96051 0.9304,-1.6521 0.364,-0.55921 0.728,-1.11839 1.0344,-1.5891 0.2917,-0.39079 0.5834,-0.78157 1.1342,-1.51955 0.4223,-0.49615 0.8447,-0.99231 1.229,-1.44377 0.3718,-0.38398 0.7438,-0.76794 1.3191,-1.36207 0.4711,-0.42782 0.9422,-0.85566 1.4037,-1.27473 0.4226,-0.3371 0.8453,-0.6742 1.4824,-1.18221 0.4037,-0.28163 0.8075,-0.56325 1.5551,-1.08477 0.4008,-0.24297 0.8016,-0.48595 1.6215,-0.98294 0.5727,-0.29884 1.1456,-0.59769 1.681,-0.877 0.6929,-0.30677 1.386,-0.61352 1.7338,-0.76752 0.4426,-0.16299 0.8853,-0.32579 1.7794,-0.65484 0.7087,-0.2103 1.4173,-0.42064 1.8178,-0.53948 0.581,-0.13272 1.1621,-0.26526 1.8486,-0.42194 0.4072,-0.0657 0.8145,-0.13176 1.8717,-0.3026 0.6164,-0.0593 1.2329,-0.11899 1.8874,-0.18215 0.4884,-0.0166 0.9769,-0.0312 1.8951,-0.0608"
       style="fill:#ececff;fill-opacity:1;fill-rule:nonzero;stroke:#9370db;stroke-width:1.51687;stroke-linecap:butt;stroke-linejoin:miter;stroke-miterlimit:10;stroke-dasharray:none;stroke-opacity:1" /><path
       id="path63"
       d="m -1874.5042,124.21573 c 6.8881,0 13.7762,0 29.6499,0 m -29.6499,0 c 11.0252,0 22.0505,0 29.6499,0 m 0,0 c 0.5693,0.019 1.1386,0.0365 1.8951,0.0608 m -1.8951,-0.0608 c 0.5935,0.019 1.1871,0.0381 1.8951,0.0608 m 0,0 c 0.4121,0.0397 0.8243,0.0795 1.8873,0.18215 m -1.8873,-0.18215 c 0.413,0.0399 0.8262,0.0797 1.8873,0.18215 m 0,0 c 0.4233,0.0683 0.8465,0.13697 1.8718,0.3026 m -1.8718,-0.3026 c 0.4331,0.07 0.8663,0.14004 1.8718,0.3026 m 0,0 c 0.6965,0.15898 1.3931,0.31797 1.8486,0.42194 m -1.8486,-0.42194 c 0.6573,0.14999 1.3146,0.30006 1.8486,0.42194 m 0,0 c 0.6164,0.18285 1.2328,0.36591 1.8177,0.53948 m -1.8177,-0.53948 c 0.609,0.18072 1.218,0.36151 1.8177,0.53948 m 0,0 c 0.5133,0.18901 1.0268,0.37788 1.7794,0.65484 m -1.7794,-0.65484 c 0.4658,0.1715 0.9316,0.34287 1.7794,0.65484 m 0,0 c 0.6895,0.30524 1.379,0.61044 1.7339,0.76752 m -1.7339,-0.76752 c 0.6571,0.2909 1.3143,0.5818 1.7339,0.76752 m 0,0 c 0.5253,0.27404 1.0506,0.54808 1.681,0.877 m -1.681,-0.877 c 0.6048,0.31555 1.2097,0.63112 1.681,0.877 m 0,0 c 0.5841,0.35409 1.1681,0.7082 1.6214,0.98294 m -1.6214,-0.98294 c 0.5959,0.36126 1.1918,0.72248 1.6214,0.98294 m 0,0 c 0.5623,0.39226 1.1247,0.78453 1.5552,1.08477 m -1.5552,-1.08477 c 0.4481,0.31257 0.8962,0.62513 1.5552,1.08477 m 0,0 c 0.3289,0.26232 0.6578,0.52465 1.4824,1.18221 m -1.4824,-1.18221 c 0.3412,0.27214 0.6824,0.54425 1.4824,1.18221 m 0,0 c 0.5259,0.47769 1.052,0.95535 1.4036,1.27473 m -1.4036,-1.27473 c 0.4787,0.43477 0.9575,0.86958 1.4036,1.27473 m 0,0 c 0.3168,0.32714 0.6336,0.65426 1.3191,1.36207 m -1.3191,-1.36207 c 0.4976,0.51386 0.9952,1.02772 1.3191,1.36207 m 0,0 c 0.3878,0.45554 0.7756,0.91112 1.2291,1.44377 m -1.2291,-1.44377 c 0.3489,0.40984 0.6978,0.8197 1.2291,1.44377 m 0,0 c 0.2661,0.35648 0.5321,0.71296 1.1341,1.51955 m -1.1341,-1.51955 c 0.3851,0.51599 0.7702,1.03198 1.1341,1.51955 m 0,0 c 0.2136,0.32823 0.4273,0.65648 1.0343,1.5891 m -1.0343,-1.5891 c 0.3348,0.51443 0.6696,1.02885 1.0343,1.5891 m 0,0 c 0.2842,0.50461 0.5684,1.00921 0.9305,1.6521 m -0.9305,-1.6521 c 0.2637,0.46802 0.5272,0.93602 0.9305,1.6521 m 0,0 c 0.2537,0.52691 0.5075,1.0538 0.8227,1.70832 m -0.8227,-1.70832 c 0.2501,0.51943 0.5003,1.03887 0.8227,1.70832 m 0,0 c 0.238,0.58792 0.4761,1.17587 0.7115,1.75753 m -0.7115,-1.75753 c 0.1821,0.45003 0.3644,0.90004 0.7115,1.75753 m 0,0 c 0.2338,0.70397 0.4675,1.40795 0.5975,1.79949 m -0.5975,-1.79949 c 0.1805,0.54345 0.3609,1.08687 0.5975,1.79949 m 0,0 c 0.177,0.675 0.354,1.34997 0.4809,1.83407 m -0.4809,-1.83407 c 0.1611,0.61461 0.3223,1.22921 0.4809,1.83407 m 0,0 c 0.1396,0.71702 0.2794,1.43403 0.3625,1.86114 m -0.3625,-1.86114 c 0.092,0.47414 0.1848,0.94826 0.3625,1.86114 m 0,0 c 0.084,0.65085 0.1677,1.30171 0.2425,1.88052 m -0.2425,-1.88052 c 0.07,0.54204 0.1398,1.08407 0.2425,1.88052 m 0,0 c 0.044,0.68165 0.087,1.3633 0.1214,1.8922 m -0.1214,-1.8922 c 0.033,0.50021 0.064,1.0004 0.1214,1.8922 m 0,0 c 0,0.72386 0,1.44771 0,1.8961 m 0,-1.8961 c 0,0.47007 0,0.94014 0,1.8961 m 0,0 c -0.026,0.41427 -0.053,0.82854 -0.1214,1.89218 m 0.1214,-1.89218 c -0.033,0.49671 -0.064,0.99342 -0.1214,1.89218 m 0,0 c -0.092,0.71276 -0.1838,1.42549 -0.2425,1.88054 m 0.2425,-1.88054 c -0.06,0.46099 -0.119,0.92198 -0.2425,1.88054 m 0,0 c -0.1105,0.56768 -0.2212,1.13533 -0.3625,1.86112 m 0.3625,-1.86112 c -0.089,0.4578 -0.1783,0.91556 -0.3625,1.86112 m 0,0 c -0.1038,0.39385 -0.2065,0.78768 -0.4809,1.83411 m 0.4809,-1.83411 c -0.1871,0.71345 -0.3741,1.42686 -0.4809,1.83411 m 0,0 c -0.1528,0.46017 -0.3056,0.92038 -0.5975,1.79949 m 0.5975,-1.79949 c -0.2309,0.69511 -0.4616,1.39019 -0.5975,1.79949 m 0,0 c -0.189,0.4668 -0.378,0.93363 -0.7115,1.75753 m 0.7115,-1.75753 c -0.2716,0.67098 -0.5433,1.34198 -0.7115,1.75753 m 0,0 c -0.2619,0.54375 -0.5237,1.08749 -0.8227,1.70832 m 0.8227,-1.70832 c -0.2778,0.57668 -0.5555,1.15337 -0.8227,1.70832 m 0,0 c -0.251,0.44556 -0.5018,0.89112 -0.9305,1.65209 m 0.9305,-1.65209 c -0.2412,0.42829 -0.4824,0.85661 -0.9305,1.65209 m 0,0 c -0.3357,0.51594 -0.6716,1.03187 -1.0343,1.5891 m 1.0343,-1.5891 c -0.2152,0.33068 -0.4304,0.66135 -1.0343,1.5891 m 0,0 c -0.2363,0.31665 -0.4727,0.63329 -1.1341,1.51954 m 1.1341,-1.51954 c -0.3712,0.49732 -0.7423,0.99461 -1.1341,1.51954 m 0,0 c -0.3018,0.35454 -0.6036,0.70906 -1.2291,1.44378 m 1.2291,-1.44378 c -0.3318,0.38974 -0.6636,0.77945 -1.2291,1.44378 m 0,0 c -0.3559,0.36749 -0.7118,0.73502 -1.3191,1.36206 m 1.3191,-1.36206 c -0.4963,0.51251 -0.9927,1.02499 -1.3191,1.36206 m 0,0 c -0.3228,0.29311 -0.6455,0.58623 -1.4036,1.27473 m 1.4036,-1.27473 c -0.4592,0.41702 -0.9183,0.83405 -1.4036,1.27473 m 0,0 c -0.4038,0.32201 -0.8075,0.644 -1.4824,1.18222 m 1.4824,-1.18222 c -0.3602,0.2872 -0.7203,0.57438 -1.4824,1.18222 m 0,0 c -0.32,0.22331 -0.6401,0.44646 -1.5552,1.08478 m 1.5552,-1.08478 c -0.5816,0.40567 -1.1632,0.81138 -1.5552,1.08478 m 0,0 c -0.5408,0.32787 -1.0817,0.65574 -1.6214,0.98293 m 1.6214,-0.98293 c -0.4229,0.25635 -0.8457,0.51271 -1.6214,0.98293 m 0,0 c -0.4655,0.24287 -0.9311,0.48576 -1.681,0.87699 m 1.681,-0.87699 c -0.413,0.2155 -0.826,0.43096 -1.681,0.87699 m 0,0 c -0.6897,0.30531 -1.3794,0.61062 -1.7339,0.76753 m 1.7339,-0.76753 c -0.4428,0.19612 -0.8855,0.39197 -1.7339,0.76753 m 0,0 c -0.4203,0.15471 -0.8407,0.30938 -1.7794,0.65485 m 1.7794,-0.65485 c -0.641,0.23585 -1.282,0.47177 -1.7794,0.65485 m 0,0 c -0.4218,0.12513 -0.8434,0.2503 -1.8177,0.53948 m 1.8177,-0.53948 c -0.7057,0.20935 -1.4113,0.41885 -1.8177,0.53948 m 0,0 c -0.6287,0.14358 -1.2572,0.28694 -1.8486,0.42192 m 1.8486,-0.42192 c -0.5534,0.12632 -1.1068,0.25262 -1.8486,0.42192 m 0,0 c -0.4807,0.0776 -0.9614,0.15542 -1.8718,0.30261 m 1.8718,-0.30261 c -0.6959,0.11261 -1.3919,0.22498 -1.8718,0.30261 m 0,0 c -0.586,0.0565 -1.172,0.11307 -1.8873,0.18216 m 1.8873,-0.18216 c -0.5005,0.0482 -1.0009,0.0965 -1.8873,0.18216 m 0,0 c -0.7481,0.0239 -1.496,0.048 -1.8951,0.0608 m 1.8951,-0.0608 c -0.5581,0.019 -1.1162,0.0357 -1.8951,0.0608 m 0,0 c -9.7756,0 -19.5511,0 -29.6499,0 m 29.6499,0 c -8.9515,0 -17.9029,0 -29.6499,0 m 0,0 c -0.7119,-0.0237 -1.4238,-0.0457 -1.8951,-0.0608 m 1.8951,0.0608 c -0.5049,-0.0166 -1.0096,-0.0324 -1.8951,-0.0608 m 0,0 c -0.6473,-0.0625 -1.2945,-0.12491 -1.8874,-0.18216 m 1.8874,0.18216 c -0.6466,-0.0625 -1.2931,-0.12468 -1.8874,-0.18216 m 0,0 c -0.5409,-0.0875 -1.0818,-0.17481 -1.8717,-0.30261 m 1.8717,0.30261 c -0.536,-0.0866 -1.072,-0.1734 -1.8717,-0.30261 m 0,0 c -0.6408,-0.14619 -1.2814,-0.29246 -1.8486,-0.42192 m 1.8486,0.42192 c -0.5672,-0.12939 -1.1342,-0.25884 -1.8486,-0.42192 m 0,0 c -0.4377,-0.12988 -0.8755,-0.25983 -1.8178,-0.5395 m 1.8178,0.5395 c -0.4825,-0.14313 -0.9649,-0.28636 -1.8178,-0.5395 m 0,0 c -0.5819,-0.2141 -1.1639,-0.42832 -1.7794,-0.65485 m 1.7794,0.65485 c -0.5894,-0.21693 -1.1787,-0.43379 -1.7794,-0.65485 m 0,0 c -0.4758,-0.21054 -0.9515,-0.42122 -1.7338,-0.76751 m 1.7338,0.76751 c -0.3477,-0.15401 -0.6954,-0.30785 -1.7338,-0.76751 m 0,0 c -0.4313,-0.22496 -0.8624,-0.44993 -1.681,-0.87702 m 1.681,0.87702 c -0.5473,-0.28552 -1.0946,-0.57103 -1.681,-0.87702 m 0,0 c -0.4197,-0.25437 -0.8393,-0.50874 -1.6215,-0.9829 m 1.6215,0.9829 c -0.3932,-0.23826 -0.7862,-0.47653 -1.6215,-0.9829 m 0,0 c -0.4656,-0.32483 -0.9313,-0.64965 -1.5551,-1.0848 m 1.5551,1.0848 c -0.5861,-0.40883 -1.1722,-0.81763 -1.5551,-1.0848 m 0,0 c -0.4579,-0.36518 -0.9158,-0.73033 -1.4824,-1.1822 m 1.4824,1.1822 c -0.5917,-0.47182 -1.1834,-0.94366 -1.4824,-1.1822 m 0,0 c -0.2879,-0.26139 -0.5757,-0.52279 -1.4037,-1.27475 m 1.4037,1.27475 c -0.3361,-0.30522 -0.6723,-0.61046 -1.4037,-1.27475 m 0,0 c -0.4686,-0.48388 -0.9372,-0.96776 -1.3191,-1.36204 m 1.3191,1.36204 c -0.5268,-0.54394 -1.0536,-1.08789 -1.3191,-1.36204 m 0,0 c -0.4671,-0.54873 -0.9342,-1.09745 -1.229,-1.44378 m 1.229,1.44378 c -0.3731,-0.43823 -0.7462,-0.87648 -1.229,-1.44378 m 0,0 c -0.3697,-0.49521 -0.7393,-0.99043 -1.1342,-1.51954 m 1.1342,1.51954 c -0.2628,-0.35207 -0.5255,-0.70415 -1.1342,-1.51954 m 0,0 c -0.2584,-0.39707 -0.5169,-0.79417 -1.0344,-1.5891 m 1.0344,1.5891 c -0.2484,-0.38176 -0.4969,-0.7635 -1.0344,-1.5891 m 0,0 c -0.2388,-0.42411 -0.4777,-0.84823 -0.9304,-1.65212 m 0.9304,1.65212 c -0.2483,-0.44107 -0.4968,-0.88211 -0.9304,-1.65212 m 0,0 c -0.2089,-0.43366 -0.4177,-0.86732 -0.8226,-1.70832 m 0.8226,1.70832 c -0.3191,-0.66277 -0.6383,-1.32554 -0.8226,-1.70832 m 0,0 c -0.1458,-0.36009 -0.2917,-0.72021 -0.7116,-1.7575 m 0.7116,1.75753 c -0.2054,-0.50703 -0.4106,-1.01405 -0.7116,-1.75753 m 0,0 c -0.1391,-0.41891 -0.2781,-0.83781 -0.5975,-1.79949 m 0.5975,1.79949 c -0.1264,-0.38022 -0.2525,-0.76045 -0.5975,-1.79949 m 0,0 c -0.1441,-0.54956 -0.2881,-1.09909 -0.4809,-1.83411 m 0.4809,1.83411 c -0.1282,-0.48886 -0.2564,-0.97772 -0.4809,-1.83411 m 0,0 c -0.1299,-0.66667 -0.2597,-1.33335 -0.3625,-1.86112 m 0.3625,1.86112 c -0.1252,-0.64236 -0.2503,-1.28471 -0.3625,-1.86112 m 0,0 c -0.071,-0.55417 -0.1429,-1.10833 -0.2425,-1.88054 m 0.2425,1.88054 c -0.083,-0.64515 -0.1663,-1.29027 -0.2425,-1.88054 m 0,0 c -0.039,-0.61188 -0.079,-1.2238 -0.1215,-1.89218 m 0.1215,1.89218 c -0.035,-0.5434 -0.069,-1.08681 -0.1215,-1.89218 m 0,0 c 0,-0.69596 0,-1.3919 0,-1.8961 m 0,1.8961 c 0,-0.66354 0,-1.32708 0,-1.8961 m 0,0 c 0.031,-0.49798 0.064,-0.99599 0.1215,-1.8922 m -0.1215,1.8922 c 0.039,-0.61038 0.079,-1.22072 0.1215,-1.8922 m 0,0 c 0.071,-0.5549 0.1432,-1.1098 0.2425,-1.88052 m -0.2425,1.88052 c 0.089,-0.68996 0.1779,-1.37991 0.2425,-1.88052 m 0,0 c 0.1447,-0.74383 0.2897,-1.48768 0.3625,-1.86114 m -0.3625,1.86114 c 0.1067,-0.54797 0.2134,-1.09593 0.3625,-1.86114 m 0,0 c 0.1229,-0.46881 0.2458,-0.93765 0.4809,-1.83407 m -0.4809,1.83407 c 0.1429,-0.54515 0.2858,-1.0903 0.4809,-1.83407 m 0,0 c 0.1718,-0.5171 0.3434,-1.0342 0.5975,-1.79949 m -0.5975,1.79949 c 0.2203,-0.66306 0.4403,-1.32609 0.5975,-1.79949 m 0,0 c 0.1599,-0.39473 0.3196,-0.78945 0.7116,-1.75753 m -0.7116,1.75753 c 0.2283,-0.56371 0.4564,-1.12741 0.7116,-1.75753 m 0,0 c 0.2306,-0.47873 0.461,-0.95744 0.8226,-1.70832 m -0.8226,1.70832 c 0.2003,-0.41616 0.4007,-0.83232 0.8226,-1.70832 m 0,0 c 0.2897,-0.51436 0.5794,-1.02874 0.9304,-1.6521 m -0.9304,1.6521 c 0.3094,-0.54937 0.6188,-1.09871 0.9304,-1.6521 m 0,0 c 0.2576,-0.39572 0.5152,-0.79144 1.0344,-1.5891 m -1.0344,1.5891 c 0.2682,-0.41194 0.5364,-0.82386 1.0344,-1.5891 m 0,0 c 0.3908,-0.52367 0.7816,-1.04732 1.1342,-1.51957 m -1.1342,1.51957 c 0.3298,-0.44191 0.6597,-0.88383 1.1342,-1.51957 m 0,0 c 0.3288,-0.38637 0.6578,-0.77275 1.229,-1.44375 m -1.229,1.44375 c 0.4009,-0.47106 0.802,-0.94214 1.229,-1.44375 m 0,0 c 0.5187,-0.53564 1.0375,-1.07126 1.3191,-1.36207 m -1.3191,1.36207 c 0.3096,-0.31959 0.619,-0.63916 1.3191,-1.36207 m 0,0 c 0.4341,-0.39421 0.8682,-0.78843 1.4037,-1.27475 m -1.4037,1.27475 c 0.3398,-0.30867 0.6797,-0.61733 1.4037,-1.27475 m 0,0 c 0.5246,-0.41841 1.0493,-0.83681 1.4824,-1.18219 m -1.4824,1.18219 c 0.5,-0.39878 1.0001,-0.79754 1.4824,-1.18219 m 0,0 c 0.5152,-0.35941 1.0305,-0.71884 1.5551,-1.0848 m -1.5551,1.0848 c 0.3258,-0.22733 0.6515,-0.4545 1.5551,-1.0848 m 0,0 c 0.4878,-0.2957 0.9756,-0.5914 1.6215,-0.98291 m -1.6215,0.98291 c 0.575,-0.34857 1.15,-0.69712 1.6215,-0.98291 m 0,0 c 0.6426,-0.33525 1.2852,-0.67053 1.681,-0.87702 m -1.681,0.87702 c 0.5556,-0.28986 1.1112,-0.57971 1.681,-0.87702 m 0,0 c 0.5073,-0.2245 1.0147,-0.44916 1.7338,-0.7675 m -1.7338,0.7675 c 0.3748,-0.16583 0.7496,-0.3318 1.7338,-0.7675 m 0,0 c 0.6916,-0.2545 1.383,-0.50898 1.7794,-0.65484 m -1.7794,0.65484 c 0.6231,-0.22923 1.2461,-0.4586 1.7794,-0.65484 m 0,0 c 0.5675,-0.16844 1.135,-0.33685 1.8178,-0.5395 m -1.8178,0.5395 c 0.4491,-0.13319 0.8981,-0.26657 1.8178,-0.5395 m 0,0 c 0.5652,-0.12894 1.1305,-0.25802 1.8486,-0.42192 m -1.8486,0.42192 c 0.4921,-0.11237 0.9843,-0.22474 1.8486,-0.42192 m 0,0 c 0.4658,-0.0753 0.9318,-0.15068 1.8717,-0.30262 m -1.8717,0.30262 c 0.6091,-0.0984 1.2183,-0.19705 1.8717,-0.30262 m 0,0 c 0.7276,-0.0702 1.4552,-0.14029 1.8874,-0.18215 m -1.8874,0.18215 c 0.6367,-0.0615 1.2734,-0.12278 1.8874,-0.18215 m 0,0 c 0.3983,-0.0119 0.7966,-0.0256 1.8951,-0.0608 m -1.8951,0.0608 c 0.6172,-0.0189 1.2345,-0.0395 1.8951,-0.0608"
       style="fill:#ececff;fill-opacity:1;fill-rule:nonzero;stroke:#9370db;stroke-width:1.51687;stroke-linecap:butt;stroke-linejoin:miter;stroke-miterlimit:10;stroke-dasharray:none;stroke-opacity:1" /><g
       id="g63"
       transform="matrix(2.3656065,0,0,2.3656065,-1935.2345,1.3858621)" /><text
       id="text63"
       xml:space="preserve"
       x="-1885.3119"
       y="161.37881"
       style="font-size:18.2024px;stroke-width:1.51687"><tspan
         id="tspan63"
         style="font-variant:normal;font-weight:normal;font-size:24.2698px;font-family:'Liberation Sans';writing-mode:lr-tb;fill:#333333;fill-opacity:1;fill-rule:nonzero;stroke:none;stroke-width:1.51687"
         x="-1885.3119"
         y="161.37881">Start</tspan></text><path
       id="path64"
       d="m -1739.4477,112.83926 h 202.9988 v 81.91053 h -202.9988 z"
       style="fill:#ececff;fill-opacity:1;fill-rule:nonzero;stroke:#9370db;stroke-width:1.51687;stroke-linecap:butt;stroke-linejoin:miter;stroke-miterlimit:10;stroke-dasharray:none;stroke-opacity:1" /><g
       id="g64"
       transform="matrix(2.3656065,0,0,2.3656065,-1935.2345,1.3858621)" /><text
       id="text64"
       xml:space="preserve"
       x="-1693.9419"
       y="161.37881"
       style="font-size:18.2024px;stroke-width:1.51687"><tspan
         id="tspan64"
         style="font-variant:normal;font-weight:normal;font-size:24.2698px;font-family:'Liberation Sans';writing-mode:lr-tb;fill:#333333;fill-opacity:1;fill-rule:nonzero;stroke:none;stroke-width:1.51687"
         x="-1693.9419"
         y="161.37881">Input Data</tspan></text><path
       id="path65"
       d="m -1388.5194,225.12257 71.328,-71.32805 -71.328,-71.328034 -71.328,71.328034 z"
       style="fill:#ececff;fill-opacity:1;fill-rule:nonzero;stroke:#9370db;stroke-width:1.51687;stroke-linecap:butt;stroke-linejoin:miter;stroke-miterlimit:10;stroke-dasharray:none;stroke-opacity:1" /><g
       id="g65"
       transform="matrix(2.3656065,0,0,2.3656065,-1935.2345,1.3858621)" /><text
       id="text65"
       xml:space="preserve"
       x="-1419.6506"
       y="161.37881"
       style="font-size:18.2024px;stroke-width:1.51687"><tspan
         id="tspan65"
         style="font-variant:normal;font-weight:normal;font-size:24.2698px;font-family:'Liberation Sans';writing-mode:lr-tb;fill:#333333;fill-opacity:1;fill-rule:nonzero;stroke:none;stroke-width:1.51687"
         x="-1419.6506"
         y="161.37881">Late?</tspan></text><path
       id="path66"
       d="m -389.1921,32.445593 h 192.87841 V 114.35612 H -389.1921 Z"
       style="fill:#ececff;fill-opacity:1;fill-rule:nonzero;stroke:#9370db;stroke-width:1.51687;stroke-linecap:butt;stroke-linejoin:miter;stroke-miterlimit:10;stroke-dasharray:none;stroke-opacity:1" /><g
       id="g66"
       transform="matrix(2.3656065,0,0,2.3656065,-1935.2345,1.3858621)" /><text
       id="text66"
       xml:space="preserve"
       x="-343.68628"
       y="80.985168"
       style="font-size:18.2024px;stroke-width:1.51687"><tspan
         id="tspan66"
         style="font-variant:normal;font-weight:normal;font-size:24.2698px;font-family:'Liberation Sans';writing-mode:lr-tb;fill:#333333;fill-opacity:1;fill-rule:nonzero;stroke:none;stroke-width:1.51687"
         x="-343.68628"
         y="80.985168">Fine = $0</tspan></text><path
       id="path67"
       d="m -87.197854,124.21573 c 7.297448,0 14.594906,0 21.567872,0 0.560099,0.019 1.120199,0.036 1.895117,0.0608 0.557542,0.0537 1.115094,0.10764 1.887329,0.18215 0.606529,0.0979 1.213058,0.19611 1.871792,0.3026 0.60634,0.13839 1.212681,0.27678 1.848552,0.42194 0.427531,0.12679 0.855061,0.25376 1.817731,0.53948 0.4924,0.1812 0.9848,0.36241 1.779427,0.65484 0.532581,0.23585 1.065173,0.47154 1.733804,0.76752 0.618542,0.32269 1.237095,0.64539 1.681084,0.877 0.353961,0.21456 0.707943,0.42917 1.621426,0.98294 0.504015,0.35158 1.00803,0.70315 1.55512,1.08477 0.298275,0.23786 0.596539,0.47572 1.482431,1.18221 0.426461,0.3873 0.852923,0.77459 1.40364,1.27473 0.487567,0.50347 0.975134,1.00692 1.319073,1.36207 0.276187,0.32442 0.552363,0.64884 1.229108,1.44377 0.277895,0.37235 0.555791,0.7447 1.134068,1.51955 0.356403,0.54754 0.712817,1.09506 1.034384,1.5891 0.353961,0.62849 0.707932,1.25699 0.930456,1.6521 0.241928,0.50238 0.483856,1.00476 0.822679,1.70832 0.23763,0.58695 0.47526,1.1739 0.711538,1.75753 0.216098,0.65085 0.432196,1.30167 0.597482,1.79949 0.109359,0.41708 0.21874,0.83415 0.480953,1.83407 0.08607,0.44183 0.172089,0.88368 0.362451,1.86114 0.08219,0.63711 0.164291,1.2742 0.242463,1.88052 0.04099,0.63836 0.08198,1.27672 0.121499,1.8922 0,0.63749 0,1.27497 0,1.8961 -0.04099,0.63893 -0.08208,1.27786 -0.121499,1.89221 -0.05032,0.39072 -0.100742,0.78142 -0.242463,1.88051 -0.09655,0.49548 -0.192982,0.99095 -0.362451,1.86114 -0.155422,0.5927 -0.310855,1.18538 -0.480953,1.83409 -0.131982,0.39751 -0.263974,0.79502 -0.597482,1.79949 -0.252715,0.62421 -0.50542,1.24843 -0.711538,1.75753 -0.324975,0.67481 -0.64995,1.34965 -0.822679,1.70832 -0.211202,0.37502 -0.422436,0.75006 -0.930456,1.65209 -0.367106,0.56398 -0.734212,1.12797 -1.034384,1.5891 -0.257621,0.34519 -0.515243,0.69037 -1.134068,1.51954 -0.418956,0.49214 -0.837901,0.98426 -1.229108,1.44378 -0.406774,0.42004 -0.813538,0.84005 -1.319073,1.36206 -0.395903,0.35955 -0.791796,0.71908 -1.40364,1.27477 -0.55382,0.44163 -1.10764,0.88329 -1.482431,1.18218 -0.447543,0.31219 -0.895096,0.62438 -1.55512,1.08478 -0.444943,0.26972 -0.889876,0.53945 -1.621426,0.98293 -0.341035,0.17789 -0.682059,0.35583 -1.681084,0.87703 -0.556221,0.2462 -1.112442,0.49242 -1.733804,0.76749 -0.482913,0.17766 -0.965815,0.35543 -1.779427,0.65485 -0.398157,0.11804 -0.796314,0.23632 -1.817731,0.53948 -0.436043,0.0996 -0.872086,0.19894 -1.848552,0.42192 -0.44033,0.0712 -0.88065,0.14241 -1.871792,0.30261 -0.527445,0.0508 -1.05489,0.10169 -1.887329,0.18216 -0.68771,0.0213 -1.375419,0.0442 -1.895117,0.0608 -8.367779,0 -16.735548,0 -21.567872,0 -0.389027,-0.0118 -0.778043,-0.0248 -1.895118,-0.0608 -0.399121,-0.0386 -0.798232,-0.0772 -1.887339,-0.18216 -0.591873,-0.0956 -1.183747,-0.19138 -1.871782,-0.30261 -0.535485,-0.1223 -1.07096,-0.24444 -1.848562,-0.42192 -0.637517,-0.18925 -1.275034,-0.37841 -1.817721,-0.53948 -0.649866,-0.23916 -1.299721,-0.47832 -1.779426,-0.65485 -0.354223,-0.15684 -0.708456,-0.31361 -1.733818,-0.76749 -0.48152,-0.25123 -0.96303,-0.50244 -1.68107,-0.87703 -0.40816,-0.24742 -0.81631,-0.49486 -1.62143,-0.98293 -0.39491,-0.27549 -0.78983,-0.55093 -1.55513,-1.08478 -0.47563,-0.3793 -0.95127,-0.75863 -1.48242,-1.18218 -0.39513,-0.35887 -0.79025,-0.71771 -1.40364,-1.27477 -0.31788,-0.32822 -0.63575,-0.65648 -1.31908,-1.36206 -0.29085,-0.34164 -0.58171,-0.68331 -1.2291,-1.44378 -0.27416,-0.36733 -0.54833,-0.73468 -1.13408,-1.51954 -0.21261,-0.32665 -0.42523,-0.65329 -1.03438,-1.5891 -0.18735,-0.33265 -0.3747,-0.66532 -0.93045,-1.65209 -0.17311,-0.35948 -0.34621,-0.71893 -0.82269,-1.70832 -0.18619,-0.45995 -0.37242,-0.91989 -0.71153,-1.75753 -0.19666,-0.59231 -0.39331,-1.18458 -0.59748,-1.79949 -0.11523,-0.43946 -0.23048,-0.87894 -0.48095,-1.83409 -0.14024,-0.72006 -0.28046,-1.44013 -0.36245,-1.86114 -0.079,-0.61311 -0.15813,-1.22623 -0.24247,-1.88051 -0.0368,-0.57399 -0.0737,-1.14798 -0.1215,-1.89221 0,-0.45317 0,-0.90635 0,-1.8961 0.0435,-0.67821 0.0871,-1.35643 0.1215,-1.8922 0.0955,-0.74064 0.191,-1.48129 0.24247,-1.88052 0.0939,-0.4822 0.1878,-0.96438 0.36245,-1.86114 0.11678,-0.44537 0.23358,-0.89075 0.48095,-1.83407 0.22781,-0.6861 0.45561,-1.37222 0.59748,-1.79949 0.15745,-0.38892 0.3149,-0.77782 0.71153,-1.75753 0.20399,-0.42357 0.40796,-0.84711 0.82269,-1.70832 0.18792,-0.3337 0.37586,-0.6674 0.93045,-1.6521 0.22357,-0.34346 0.44714,-0.68692 1.03438,-1.5891 0.31304,-0.41945 0.62608,-0.83888 1.13408,-1.51955 0.45447,-0.53386 0.90896,-1.06771 1.2291,-1.44377 0.28885,-0.29828 0.57771,-0.59654 1.31908,-1.36207 0.44447,-0.40366 0.88896,-0.80731 1.40364,-1.27473 0.44948,-0.35846 0.89897,-0.71692 1.48242,-1.18221 0.4502,-0.31404 0.90039,-0.62807 1.55513,-1.08477 0.60376,-0.36603 1.20754,-0.73204 1.62143,-0.98294 0.61076,-0.31862 1.22154,-0.63726 1.68107,-0.877 0.57588,-0.25494 1.151746,-0.50986 1.733818,-0.76752 0.622767,-0.22923 1.245534,-0.45836 1.779426,-0.65484 0.432322,-0.12822 0.864654,-0.25663 1.817721,-0.53948 0.441725,-0.10075 0.88345,-0.20155 1.848562,-0.42194 0.645977,-0.10451 1.291975,-0.20887 1.871782,-0.3026 0.454504,-0.0438 0.909018,-0.0877 1.887339,-0.18215 0.583959,-0.019 1.167929,-0.0374 1.895118,-0.0608"
       style="fill:#ececff;fill-opacity:1;fill-rule:nonzero;stroke:#9370db;stroke-width:1.51687;stroke-linecap:butt;stroke-linejoin:miter;stroke-miterlimit:10;stroke-dasharray:none;stroke-opacity:1" /><path
       id="path68"
       d="m -87.197854,124.21573 c 8.07592,0 16.15185,0 21.567872,0 m -21.567872,0 c 7.121301,0 14.242602,0 21.567872,0 m 0,0 c 0.499895,0.0166 0.99979,0.0322 1.895117,0.0608 m -1.895117,-0.0608 c 0.527738,0.0166 1.055476,0.0339 1.895117,0.0608 m 0,0 c 0.739978,0.0715 1.479957,0.14264 1.887329,0.18215 m -1.887329,-0.18215 c 0.608814,0.0587 1.217629,0.11756 1.887329,0.18215 m 0,0 c 0.722733,0.11685 1.445467,0.23372 1.871792,0.3026 m -1.871792,-0.3026 c 0.529268,0.0857 1.058537,0.17103 1.871792,0.3026 m 0,0 c 0.710909,0.16229 1.421828,0.32452 1.848552,0.42194 m -1.848552,-0.42194 c 0.679072,0.15495 1.358144,0.31 1.848552,0.42194 m 0,0 c 0.543022,0.16109 1.086045,0.32231 1.817731,0.53948 m -1.817731,-0.53948 c 0.388355,0.11521 0.776711,0.2304 1.817731,0.53948 m 0,0 c 0.423495,0.15589 0.84699,0.31171 1.779427,0.65484 m -1.779427,-0.65484 c 0.609559,0.22425 1.219138,0.44865 1.779427,0.65484 m 0,0 c 0.665276,0.29449 1.330552,0.58899 1.733804,0.76752 m -1.733804,-0.76752 c 0.400851,0.17742 0.801702,0.35488 1.733804,0.76752 m 0,0 c 0.51085,0.26651 1.0217,0.53302 1.681084,0.877 m -1.681084,-0.877 c 0.414164,0.21598 0.82834,0.43213 1.681084,0.877 m 0,0 c 0.455615,0.27621 0.911251,0.55242 1.621426,0.98294 m -1.621426,-0.98294 c 0.43077,0.26115 0.861561,0.52228 1.621426,0.98294 m 0,0 c 0.415716,0.28997 0.831433,0.57997 1.55512,1.08477 m -1.55512,-1.08477 c 0.356246,0.24848 0.712492,0.49699 1.55512,1.08477 m 0,0 c 0.561075,0.44745 1.122149,0.89489 1.482431,1.18221 m -1.482431,-1.18221 c 0.525128,0.41878 1.050267,0.83757 1.482431,1.18221 m 0,0 c 0.458288,0.41621 0.916586,0.83241 1.40364,1.27473 m -1.40364,-1.27473 c 0.498721,0.45292 0.997442,0.90584 1.40364,1.27473 m 0,0 c 0.312112,0.32229 0.624224,0.64456 1.319073,1.36207 m -1.319073,-1.36207 c 0.344694,0.35593 0.689387,0.71186 1.319073,1.36207 m 0,0 c 0.440257,0.51714 0.880504,1.03427 1.229108,1.44377 m -1.229108,-1.44377 c 0.327617,0.38484 0.655233,0.76965 1.229108,1.44377 m 0,0 c 0.341821,0.45801 0.683653,0.91604 1.134068,1.51955 m -1.134068,-1.51955 c 0.243008,0.32561 0.486026,0.65123 1.134068,1.51955 m 0,0 c 0.314848,0.48368 0.629686,0.96737 1.034384,1.5891 m -1.034384,-1.5891 c 0.34181,0.52512 0.683632,1.05024 1.034384,1.5891 m 0,0 c 0.33592,0.59646 0.671839,1.19291 0.930456,1.6521 m -0.930456,-1.6521 c 0.368228,0.65383 0.736456,1.30764 0.930456,1.6521 m 0,0 c 0.213131,0.44259 0.426294,0.88523 0.822679,1.70832 m -0.822679,-1.70832 c 0.305497,0.63438 0.610995,1.26876 0.822679,1.70832 m 0,0 c 0.210993,0.52116 0.421985,1.04233 0.711538,1.75753 m -0.711538,-1.75753 c 0.275663,0.68088 0.551325,1.3618 0.711538,1.75753 m 0,0 c 0.210185,0.63306 0.420381,1.26612 0.597482,1.79949 m -0.597482,-1.79949 c 0.218352,0.65759 0.436672,1.31515 0.597482,1.79949 m 0,0 c 0.188653,0.71938 0.377286,1.43875 0.480953,1.83407 m -0.480953,-1.83407 c 0.146595,0.55904 0.29319,1.1181 0.480953,1.83407 m 0,0 c 0.143188,0.73526 0.286376,1.47049 0.362451,1.86114 m -0.362451,-1.86114 c 0.09194,0.47208 0.183872,0.94417 0.362451,1.86114 m 0,0 c 0.09288,0.72071 0.185844,1.44144 0.242463,1.88052 m -0.242463,-1.88052 c 0.06395,0.49586 0.127862,0.99174 0.242463,1.88052 m 0,0 c 0.03963,0.61651 0.07915,1.233 0.121499,1.8922 m -0.121499,-1.8922 c 0.04602,0.71711 0.09204,1.43422 0.121499,1.8922 m 0,0 c 0,0.45065 0,0.90132 0,1.8961 m 0,-1.8961 c 0,0.62994 0,1.25988 0,1.8961 m 0,0 c -0.04162,0.64861 -0.08334,1.29721 -0.121499,1.89218 m 0.121499,-1.89218 c -0.02705,0.42049 -0.05399,0.84101 -0.121499,1.89218 m 0,0 c -0.07778,0.60278 -0.155443,1.20555 -0.242463,1.88054 m 0.242463,-1.88054 c -0.07925,0.61468 -0.158514,1.22938 -0.242463,1.88054 m 0,0 c -0.08481,0.43556 -0.169636,0.87109 -0.362451,1.86112 m 0.362451,-1.86112 c -0.105176,0.54012 -0.210374,1.08021 -0.362451,1.86112 m 0,0 c -0.177238,0.67588 -0.354475,1.35176 -0.480953,1.83411 m 0.480953,-1.83411 c -0.144405,0.55072 -0.28883,1.1014 -0.480953,1.83411 m 0,0 c -0.178327,0.53703 -0.356634,1.07407 -0.597482,1.79949 m 0.597482,-1.79949 c -0.20508,0.61763 -0.41015,1.23529 -0.597482,1.79949 m 0,0 c -0.196107,0.48436 -0.392192,0.96874 -0.711538,1.75753 m 0.711538,-1.75753 c -0.175969,0.43466 -0.351948,0.86931 -0.711538,1.75753 m 0,0 c -0.309617,0.64292 -0.619245,1.28587 -0.822679,1.70832 m 0.822679,-1.70832 c -0.269414,0.55943 -0.53884,1.1189 -0.822679,1.70832 m 0,0 c -0.201767,0.35824 -0.403545,0.71651 -0.930456,1.65209 m 0.930456,-1.65209 c -0.369937,0.65683 -0.739853,1.31367 -0.930456,1.65209 m 0,0 c -0.362881,0.55748 -0.725752,1.11496 -1.034384,1.5891 m 1.034384,-1.5891 c -0.236487,0.36331 -0.472985,0.72664 -1.034384,1.5891 m 0,0 c -0.412876,0.55319 -0.82574,1.10641 -1.134068,1.51954 m 1.134068,-1.51954 c -0.313486,0.42004 -0.626971,0.84007 -1.134068,1.51954 m 0,0 c -0.301021,0.35362 -0.602043,0.7072 -1.229108,1.44378 m 1.229108,-1.44378 c -0.262444,0.30829 -0.524877,0.61655 -1.229108,1.44378 m 0,0 c -0.341643,0.35279 -0.683286,0.70554 -1.319073,1.36206 m 1.319073,-1.36206 c -0.321348,0.33182 -0.642706,0.66365 -1.319073,1.36206 m 0,0 c -0.398818,0.36218 -0.797625,0.72438 -1.40364,1.27473 m 1.40364,-1.27473 c -0.426776,0.38758 -0.853541,0.77517 -1.40364,1.27473 m 0,0 c -0.5269,0.42021 -1.053789,0.84039 -1.482431,1.18222 m 1.482431,-1.18222 c -0.333278,0.26578 -0.666545,0.53156 -1.482431,1.18222 m 0,0 c -0.516332,0.36017 -1.032665,0.72032 -1.55512,1.08478 m 1.55512,-1.08478 c -0.529929,0.36965 -1.059858,0.7393 -1.55512,1.08478 m 0,0 c -0.500241,0.30324 -1.000493,0.60652 -1.621426,0.98293 m 1.621426,-0.98293 c -0.482682,0.29259 -0.965364,0.58519 -1.621426,0.98293 m 0,0 c -0.445813,0.23254 -0.891605,0.46515 -1.681084,0.87699 m 1.681084,-0.87699 c -0.502725,0.26225 -1.005441,0.52452 -1.681084,0.87699 m 0,0 c -0.430403,0.19044 -0.860806,0.38108 -1.733804,0.76753 m 1.733804,-0.76753 c -0.590658,0.26148 -1.181316,0.52295 -1.733804,0.76753 m 0,0 c -0.45854,0.16866 -0.91708,0.33747 -1.779427,0.65485 m 1.779427,-0.65485 c -0.430592,0.15849 -0.861173,0.31691 -1.779427,0.65485 m 0,0 c -0.458403,0.13601 -0.916796,0.27208 -1.817731,0.53948 m 1.817731,-0.53948 c -0.380042,0.11284 -0.760074,0.22568 -1.817731,0.53948 m 0,0 c -0.735733,0.16796 -1.471476,0.33586 -1.848552,0.42192 m 1.848552,-0.42192 c -0.692092,0.15802 -1.384184,0.31592 -1.848552,0.42192 m 0,0 c -0.374874,0.0606 -0.749738,0.12112 -1.871792,0.30261 m 1.871792,-0.30261 c -0.59115,0.0956 -1.1823,0.19115 -1.871792,0.30261 m 0,0 c -0.660423,0.0636 -1.320845,0.12751 -1.887329,0.18216 m 1.887329,-0.18216 c -0.597713,0.0578 -1.195436,0.11544 -1.887329,0.18216 m 0,0 c -0.71071,0.0237 -1.421419,0.0456 -1.895117,0.0608 m 1.895117,-0.0608 c -0.742431,0.0239 -1.484863,0.0475 -1.895117,0.0608 m 0,0 c -4.889227,0 -9.778443,0 -21.567872,0 m 21.567872,0 c -7.458028,0 -14.916055,0 -21.567872,0 m 0,0 c -0.390714,-0.0118 -0.781429,-0.0251 -1.895118,-0.0608 m 1.895118,0.0608 c -0.699273,-0.0213 -1.398546,-0.045 -1.895118,-0.0608 m 0,0 c -0.666093,-0.0644 -1.332187,-0.12846 -1.887339,-0.18216 m 1.887339,0.18216 c -0.516353,-0.0499 -1.032697,-0.0996 -1.887339,-0.18216 m 0,0 c -0.487022,-0.0788 -0.974044,-0.15755 -1.871782,-0.30261 m 1.871782,0.30261 c -0.624297,-0.10105 -1.248595,-0.20179 -1.871782,-0.30261 m 0,0 c -0.424323,-0.097 -0.848635,-0.19374 -1.848562,-0.42192 m 1.848562,0.42192 c -0.640452,-0.14619 -1.280894,-0.29236 -1.848562,-0.42192 m 0,0 c -0.601497,-0.17861 -1.202994,-0.35705 -1.817721,-0.5395 m 1.817721,0.5395 c -0.669773,-0.19872 -1.339536,-0.39757 -1.817721,-0.5395 m 0,0 c -0.616519,-0.22687 -1.233038,-0.45377 -1.779426,-0.65485 m 1.779426,0.65485 c -0.61566,-0.22664 -1.231319,-0.45313 -1.779426,-0.65485 m 0,0 c -0.56466,-0.24996 -1.12933,-0.49991 -1.733818,-0.76751 m 1.733818,0.76751 c -0.684942,-0.3032 -1.369885,-0.6064 -1.733818,-0.76751 m 0,0 c -0.45097,-0.23513 -0.90194,-0.47054 -1.68107,-0.87702 m 1.68107,0.87702 c -0.34232,-0.1786 -0.68463,-0.35718 -1.68107,-0.87702 m 0,0 c -0.40536,-0.24571 -0.81071,-0.49146 -1.62143,-0.9829 m 1.62143,0.9829 c -0.41716,-0.25288 -0.83432,-0.50577 -1.62143,-0.9829 m 0,0 c -0.49694,-0.34664 -0.99387,-0.6933 -1.55513,-1.0848 m 1.55513,1.0848 c -0.3945,-0.27519 -0.78898,-0.55036 -1.55513,-1.0848 m 0,0 c -0.3797,-0.3028 -0.7594,-0.6056 -1.48242,-1.1822 m 1.48242,1.1822 c -0.42393,-0.33807 -0.84786,-0.67614 -1.48242,-1.1822 m 0,0 c -0.38215,-0.34705 -0.7643,-0.69411 -1.40364,-1.27475 m 1.40364,1.27475 c -0.30227,-0.27449 -0.60453,-0.54903 -1.40364,-1.27475 m 0,0 c -0.35275,-0.36425 -0.70552,-0.72849 -1.31908,-1.36204 m 1.31908,1.36204 c -0.31059,-0.3207 -0.62118,-0.6414 -1.31908,-1.36204 m 0,0 c -0.43842,-0.51502 -0.87686,-1.03001 -1.2291,-1.44378 m 1.2291,1.44378 c -0.32238,-0.37869 -0.64474,-0.75735 -1.2291,-1.44378 m 0,0 c -0.38265,-0.51272 -0.7653,-1.02544 -1.13408,-1.51954 m 1.13408,1.51954 c -0.45083,-0.60408 -0.90167,-1.20816 -1.13408,-1.51954 m 0,0 c -0.30639,-0.47071 -0.61278,-0.94142 -1.03438,-1.5891 m 1.03438,1.5891 c -0.40582,-0.62346 -0.81164,-1.24692 -1.03438,-1.5891 m 0,0 c -0.21369,-0.37942 -0.42736,-0.75881 -0.93045,-1.65212 m 0.93045,1.65212 c -0.29217,-0.5188 -0.58436,-1.03758 -0.93045,-1.65212 m 0,0 c -0.27396,-0.56888 -0.54793,-1.13779 -0.82269,-1.70832 m 0.82269,1.70832 c -0.18272,-0.37939 -0.36542,-0.75879 -0.82269,-1.70832 m 0,0 c -0.19774,-0.48842 -0.39548,-0.97685 -0.71153,-1.7575 m 0.71153,1.7575 c -0.26228,-0.64785 -0.52456,-1.29569 -0.71153,-1.7575 m 0,0 c -0.21653,-0.65217 -0.43307,-1.30433 -0.59748,-1.79949 m 0.59748,1.79949 c -0.15531,-0.4678 -0.31063,-0.93557 -0.59748,-1.79949 m 0,0 c -0.12232,-0.46655 -0.24468,-0.9331 -0.48095,-1.83411 m 0.48095,1.83411 c -0.13652,-0.5206 -0.27303,-1.04118 -0.48095,-1.83411 m 0,0 c -0.0909,-0.46692 -0.18187,-0.93385 -0.36245,-1.86112 m 0.36245,1.86112 c -0.10932,-0.56131 -0.21863,-1.12262 -0.36245,-1.86112 m 0,0 c -0.0706,-0.54695 -0.14106,-1.09393 -0.24247,-1.88054 m 0.24247,1.88054 c -0.0529,-0.41076 -0.10593,-0.8215 -0.24247,-1.88054 m 0,0 c -0.0246,-0.38327 -0.0493,-0.76657 -0.1215,-1.89218 m 0.1215,1.89218 c -0.0264,-0.41201 -0.0529,-0.82403 -0.1215,-1.89218 m 0,0 c 0,-0.72533 0,-1.45065 0,-1.8961 m 0,1.8961 c 0,-0.5513 0,-1.10261 0,-1.8961 m 0,0 c 0.0456,-0.71091 0.0913,-1.42182 0.1215,-1.8922 m -0.1215,1.8922 c 0.0455,-0.70908 0.0911,-1.41816 0.1215,-1.8922 m 0,0 c 0.0561,-0.43532 0.11224,-0.87063 0.24247,-1.88052 m -0.24247,1.88052 c 0.0653,-0.50643 0.13061,-1.01288 0.24247,-1.88052 m 0,0 c 0.13472,-0.69182 0.26946,-1.38364 0.36245,-1.86114 m -0.36245,1.86114 c 0.0937,-0.48154 0.18754,-0.96308 0.36245,-1.86114 m 0,0 c 0.17169,-0.6547 0.34337,-1.30941 0.48095,-1.83407 m -0.48095,1.83407 c 0.14453,-0.55121 0.28909,-1.10244 0.48095,-1.83407 m 0,0 c 0.1999,-0.60208 0.3998,-1.20412 0.59748,-1.79949 m -0.59748,1.79949 c 0.13366,-0.40253 0.2673,-0.80507 0.59748,-1.79949 m 0,0 c 0.15683,-0.38738 0.31366,-0.77477 0.71153,-1.75753 m -0.71153,1.75753 c 0.2247,-0.55505 0.44942,-1.11009 0.71153,-1.75753 m 0,0 c 0.28946,-0.60106 0.57891,-1.20212 0.82269,-1.70832 m -0.82269,1.70832 c 0.17638,-0.36625 0.35276,-0.7325 0.82269,-1.70832 m 0,0 c 0.3138,-0.5572 0.62761,-1.11439 0.93045,-1.6521 m -0.93045,1.6521 c 0.27828,-0.49411 0.55655,-0.98822 0.93045,-1.6521 m 0,0 c 0.41335,-0.63502 0.82669,-1.27002 1.03438,-1.5891 m -1.03438,1.5891 c 0.3464,-0.53216 0.6928,-1.06434 1.03438,-1.5891 m 0,0 c 0.30836,-0.41318 0.61672,-0.82635 1.13408,-1.51957 m -1.13408,1.51957 c 0.36079,-0.48343 0.72157,-0.96684 1.13408,-1.51957 m 0,0 c 0.4767,-0.55996 0.9534,-1.11993 1.2291,-1.44375 m -1.2291,1.44375 c 0.29029,-0.34097 0.58057,-0.68197 1.2291,-1.44375 m 0,0 c 0.30911,-0.3192 0.61823,-0.63838 1.31908,-1.36207 m -1.31908,1.36207 c 0.30868,-0.31877 0.61737,-0.63748 1.31908,-1.36207 m 0,0 c 0.32269,-0.29305 0.64539,-0.58612 1.40364,-1.27475 m -1.40364,1.27475 c 0.53907,-0.48956 1.07814,-0.97915 1.40364,-1.27475 m 0,0 c 0.47412,-0.3781 0.94824,-0.75619 1.48242,-1.18219 m -1.48242,1.18219 c 0.57696,-0.46011 1.15393,-0.92023 1.48242,-1.18219 m 0,0 c 0.61979,-0.43234 1.23959,-0.86468 1.55513,-1.0848 m -1.55513,1.0848 c 0.47669,-0.33251 0.95338,-0.66504 1.55513,-1.0848 m 0,0 c 0.40786,-0.24723 0.81572,-0.49448 1.62143,-0.98291 m -1.62143,0.98291 c 0.55378,-0.33571 1.10757,-0.6714 1.62143,-0.98291 m 0,0 c 0.41832,-0.21834 0.83663,-0.43647 1.68107,-0.87702 m -1.68107,0.87702 c 0.63892,-0.33334 1.27784,-0.66665 1.68107,-0.87702 m 0,0 c 0.458648,-0.20297 0.917292,-0.40606 1.733818,-0.7675 m -1.733818,0.7675 c 0.477968,-0.21149 0.955922,-0.42316 1.733818,-0.7675 m 0,0 c 0.375818,-0.13839 0.751635,-0.27661 1.779426,-0.65484 m -1.779426,0.65484 c 0.612871,-0.22545 1.225753,-0.45109 1.779426,-0.65484 m 0,0 c 0.588635,-0.17459 1.177258,-0.3494 1.817721,-0.5395 m -1.817721,0.5395 c 0.666042,-0.19777 1.332093,-0.39537 1.817721,-0.5395 m 0,0 c 0.423034,-0.0966 0.846067,-0.19304 1.848562,-0.42192 m -1.848562,0.42192 c 0.643105,-0.14667 1.286209,-0.29355 1.848562,-0.42192 m 0,0 c 0.72243,-0.11685 1.44487,-0.23347 1.871782,-0.30262 m -1.871782,0.30262 c 0.657362,-0.10621 1.314733,-0.21267 1.871782,-0.30262 m 0,0 c 0.681053,-0.0657 1.362107,-0.1313 1.887339,-0.18215 m -1.887339,0.18215 c 0.473772,-0.0457 0.947533,-0.0913 1.887339,-0.18215 m 0,0 c 0.740692,-0.0237 1.481393,-0.0476 1.895118,-0.0608 m -1.895118,0.0608 c 0.455406,-0.0142 0.910821,-0.0292 1.895118,-0.0608"
       style="fill:#ececff;fill-opacity:1;fill-rule:nonzero;stroke:#9370db;stroke-width:1.51687;stroke-linecap:butt;stroke-linejoin:miter;stroke-miterlimit:10;stroke-dasharray:none;stroke-opacity:1" /><g
       id="g68"
       transform="matrix(2.3656065,0,0,2.3656065,-1935.2345,1.3858621)" /><text
       id="text68"
       xml:space="preserve"
       x="-98.005447"
       y="161.37881"
       style="font-size:18.2024px;stroke-width:1.51687"><tspan
         id="tspan68"
         style="font-variant:normal;font-weight:normal;font-size:24.2698px;font-family:'Liberation Sans';writing-mode:lr-tb;fill:#333333;fill-opacity:1;fill-rule:nonzero;stroke:none;stroke-width:1.51687"
         x="-98.005447"
         y="161.37881">End</tspan></text><path
       id="path69"
       d="m -1202.5024,191.71606 h 193.5183 v 81.91051 h -193.5183 z"
       style="fill:#ececff;fill-opacity:1;fill-rule:nonzero;stroke:#9370db;stroke-width:1.51687;stroke-linecap:butt;stroke-linejoin:miter;stroke-miterlimit:10;stroke-dasharray:none;stroke-opacity:1" /><g
       id="g69"
       transform="matrix(2.3656065,0,0,2.3656065,-1935.2345,1.3858621)" /><text
       id="text69"
       xml:space="preserve"
       x="-1156.9966"
       y="240.2556"
       style="font-size:18.2024px;stroke-width:1.51687"><tspan
         id="tspan69"
         style="font-variant:normal;font-weight:normal;font-size:24.2698px;font-family:'Liberation Sans';writing-mode:lr-tb;fill:#333333;fill-opacity:1;fill-rule:nonzero;stroke:none;stroke-width:1.51687"
         x="-1156.9966"
         y="240.2556">Calc Fine</tspan></text><path
       id="path70"
       d="m -851.28976,313.76417 81.09286,-81.09285 -81.09286,-81.09283 -81.09282,81.09283 z"
       style="fill:#ececff;fill-opacity:1;fill-rule:nonzero;stroke:#9370db;stroke-width:1.51687;stroke-linecap:butt;stroke-linejoin:miter;stroke-miterlimit:10;stroke-dasharray:none;stroke-opacity:1" /><g
       id="g70"
       transform="matrix(2.3656065,0,0,2.3656065,-1935.2345,1.3858621)" /><text
       id="text70"
       xml:space="preserve"
       x="-892.18585"
       y="240.2556"
       style="font-size:18.2024px;stroke-width:1.51687"><tspan
         id="tspan70"
         style="font-variant:normal;font-weight:normal;font-size:24.2698px;font-family:'Liberation Sans';writing-mode:lr-tb;fill:#333333;fill-opacity:1;fill-rule:nonzero;stroke:none;stroke-width:1.51687"
         x="-892.18585"
         y="240.2556">&gt; Max?</tspan></text><path
       id="path71"
       d="m -655.50792,247.83991 h 186.76355 v 81.91053 h -186.76355 z"
       style="fill:#ececff;fill-opacity:1;fill-rule:nonzero;stroke:#9370db;stroke-width:1.51687;stroke-linecap:butt;stroke-linejoin:miter;stroke-miterlimit:10;stroke-dasharray:none;stroke-opacity:1" /><g
       id="g71"
       transform="matrix(2.3656065,0,0,2.3656065,-1935.2345,1.3858621)" /><text
       id="text71"
       xml:space="preserve"
       x="-610.0022"
       y="296.37946"
       style="font-size:18.2024px;stroke-width:1.51687"><tspan
         id="tspan71"
         style="font-variant:normal;font-weight:normal;font-size:24.2698px;font-family:'Liberation Sans';writing-mode:lr-tb;fill:#333333;fill-opacity:1;fill-rule:nonzero;stroke:none;stroke-width:1.51687"
         x="-610.0022"
         y="296.37946">Use Max</tspan></text><path
       id="path72"
       d="m -392.9013,191.71606 h 200.29681 v 81.91051 H -392.9013 Z"
       style="fill:#ececff;fill-opacity:1;fill-rule:nonzero;stroke:#9370db;stroke-width:1.51687;stroke-linecap:butt;stroke-linejoin:miter;stroke-miterlimit:10;stroke-dasharray:none;stroke-opacity:1" /><g
       id="g72"
       transform="matrix(2.3656065,0,0,2.3656065,-1935.2345,1.3858621)" /><text
       id="text72"
       xml:space="preserve"
       x="-347.39548"
       y="240.2556"
       style="font-size:18.2024px;stroke-width:1.51687"
       inkscape:export-filename="fine.png"
       inkscape:export-xdpi="96"
       inkscape:export-ydpi="96"><tspan
         id="tspan72"
         style="font-variant:normal;font-weight:normal;font-size:24.2698px;font-family:'Liberation Sans';writing-mode:lr-tb;fill:#333333;fill-opacity:1;fill-rule:nonzero;stroke:none;stroke-width:1.51687"
         x="-347.39548"
         y="240.2556">Save Fine</tspan></text></g></svg>
