<?xml version="1.0" encoding="UTF-8" standalone="no"?>
<!-- Created with Inkscape (http://www.inkscape.org/) -->

<svg
   width="1920"
   height="1080"
   viewBox="0 0 1920 1080"
   version="1.1"
   id="svg1"
   xml:space="preserve"
   inkscape:version="1.4.3 (0d15f75042, 2025-12-25)"
   sodipodi:docname="member.svg"
   xmlns:inkscape="http://www.inkscape.org/namespaces/inkscape"
   xmlns:sodipodi="http://sodipodi.sourceforge.net/DTD/sodipodi-0.dtd"
   xmlns="http://www.w3.org/2000/svg"
   xmlns:svg="http://www.w3.org/2000/svg"><sodipodi:namedview
     id="namedview1"
     pagecolor="#ffffff"
     bordercolor="#000000"
     borderopacity="0.25"
     inkscape:showpageshadow="2"
     inkscape:pageopacity="0.0"
     inkscape:pagecheckerboard="0"
     inkscape:deskcolor="#d1d1d1"
     inkscape:document-units="px"
     inkscape:zoom="0.34114583"
     inkscape:cx="1530.1374"
     inkscape:cy="420.64122"
     inkscape:window-width="1366"
     inkscape:window-height="740"
     inkscape:window-x="0"
     inkscape:window-y="0"
     inkscape:window-maximized="1"
     inkscape:current-layer="g1"><inkscape:page
       x="0"
       y="0"
       width="1920"
       height="1080"
       id="page1"
       margin="0"
       bleed="0" /><inkscape:page
       x="1930"
       y="0"
       width="816"
       height="1056"
       id="page2"
       margin="0"
       bleed="0" /></sodipodi:namedview><defs
     id="defs1"><clipPath
       clipPathUnits="userSpaceOnUse"
       id="clipPath4"><path
         d="M -3.8001346e-7,9.680997e-8 H 9.9999995 V 10 H -3.8001346e-7 Z"
         clip-rule="evenodd"
         id="path4" /></clipPath><clipPath
       clipPathUnits="userSpaceOnUse"
       id="clipPath8"><path
         d="M -4.5502862e-6,9.680997e-8 H 10.000016 V 10 H -4.5502862e-6 Z"
         clip-rule="evenodd"
         id="path8" /></clipPath><clipPath
       clipPathUnits="userSpaceOnUse"
       id="clipPath12"><path
         d="M -1.1000895e-6,-1.044296e-6 H 10.00002 V 9.9999989 H -1.1000895e-6 Z"
         clip-rule="evenodd"
         id="path12" /></clipPath><clipPath
       clipPathUnits="userSpaceOnUse"
       id="clipPath15"><path
         d="M -1.2208602e-7,9.5708788e-7 9.9999333,7.1773103e-5 9.9999445,10.00006 -3.7149992e-5,10.000037 Z"
         id="path15" /></clipPath><clipPath
       clipPathUnits="userSpaceOnUse"
       id="clipPath16"><path
         d="M 7.9999997,7.9999997 H 807.99997 V 110 H 7.9999997 Z"
         id="path16" /></clipPath><clipPath
       clipPathUnits="userSpaceOnUse"
       id="clipPath19"><path
         d="M 0,0 H 815.99997 V 1056 H 0 Z"
         id="path19" /></clipPath><clipPath
       clipPathUnits="userSpaceOnUse"
       id="clipPath22"><path
         d="M 5.9562931e-6,3.8248487e-7 H 10.000027 V 10 H 5.9562931e-6 Z"
         clip-rule="evenodd"
         id="path22" /></clipPath><clipPath
       clipPathUnits="userSpaceOnUse"
       id="clipPath26"><path
         d="M 7.1350622e-6,3.8248487e-7 H 10.000028 V 10 H 7.1350622e-6 Z"
         clip-rule="evenodd"
         id="path26" /></clipPath><clipPath
       clipPathUnits="userSpaceOnUse"
       id="clipPath30"><path
         d="M 1.4627929e-6,3.8248487e-7 H 10.000022 V 10 H 1.4627929e-6 Z"
         clip-rule="evenodd"
         id="path30" /></clipPath><clipPath
       clipPathUnits="userSpaceOnUse"
       id="clipPath33"><path
         d="M 2.038317e-6,3.3634619e-6 9.9999926,-1.9226497e-5 10.000016,10 2.4932282e-5,10.000023 Z"
         id="path33" /></clipPath><clipPath
       clipPathUnits="userSpaceOnUse"
       id="clipPath34"><path
         d="M 7.9999997,7.9999997 H 807.99997 V 110 H 7.9999997 Z"
         id="path34" /></clipPath><clipPath
       clipPathUnits="userSpaceOnUse"
       id="clipPath37"><path
         d="M 0,0 H 815.99997 V 1056 H 0 Z"
         id="path37" /></clipPath><clipPath
       clipPathUnits="userSpaceOnUse"
       id="clipPath39"><path
         d="M -8.2356502e-6,-6.3897238e-7 H 26.000013 V 23.999999 H -8.2356502e-6 Z"
         clip-rule="evenodd"
         id="path39" /></clipPath><clipPath
       clipPathUnits="userSpaceOnUse"
       id="clipPath42"><path
         d="M 8.5083929e-7,-4.5023512e-8 H 20.000009 V 24 H 8.5083929e-7 Z"
         clip-rule="evenodd"
         id="path42" /></clipPath><clipPath
       clipPathUnits="userSpaceOnUse"
       id="clipPath42-9"><path
         d="M 8.5083929e-7,-4.5023512e-8 H 20.000009 V 24 H 8.5083929e-7 Z"
         clip-rule="evenodd"
         id="path42-1" /></clipPath><clipPath
       clipPathUnits="userSpaceOnUse"
       id="clipPath1"><path
         d="M 8.5083929e-7,-4.5023512e-8 H 20.000009 V 24 H 8.5083929e-7 Z"
         clip-rule="evenodd"
         id="path1" /></clipPath><clipPath
       clipPathUnits="userSpaceOnUse"
       id="clipPath39-2"><path
         d="M -8.2356502e-6,-6.3897238e-7 H 26.000013 V 23.999999 H -8.2356502e-6 Z"
         clip-rule="evenodd"
         id="path39-7" /></clipPath><clipPath
       clipPathUnits="userSpaceOnUse"
       id="clipPath2"><path
         d="M -8.2356502e-6,-6.3897238e-7 H 26.000013 V 23.999999 H -8.2356502e-6 Z"
         clip-rule="evenodd"
         id="path2" /></clipPath><clipPath
       clipPathUnits="userSpaceOnUse"
       id="clipPath37-0"><path
         d="M 0,0 H 815.99997 V 1056 H 0 Z"
         id="path37-9" /></clipPath><clipPath
       clipPathUnits="userSpaceOnUse"
       id="clipPath34-3"><path
         d="M 7.9999997,7.9999997 H 807.99997 V 110 H 7.9999997 Z"
         id="path34-6" /></clipPath><clipPath
       clipPathUnits="userSpaceOnUse"
       id="clipPath33-0"><path
         d="M 2.038317e-6,3.3634619e-6 9.9999926,-1.9226497e-5 10.000016,10 2.4932282e-5,10.000023 Z"
         id="path33-6" /></clipPath><clipPath
       clipPathUnits="userSpaceOnUse"
       id="clipPath3"><path
         d="M 2.038317e-6,3.3634619e-6 9.9999926,-1.9226497e-5 10.000016,10 2.4932282e-5,10.000023 Z"
         id="path3" /></clipPath><clipPath
       clipPathUnits="userSpaceOnUse"
       id="clipPath30-2"><path
         d="M 1.4627929e-6,3.8248487e-7 H 10.000022 V 10 H 1.4627929e-6 Z"
         clip-rule="evenodd"
         id="path30-6" /></clipPath><clipPath
       clipPathUnits="userSpaceOnUse"
       id="clipPath4-1"><path
         d="M 1.4627929e-6,3.8248487e-7 H 10.000022 V 10 H 1.4627929e-6 Z"
         clip-rule="evenodd"
         id="path4-8" /></clipPath><clipPath
       clipPathUnits="userSpaceOnUse"
       id="clipPath26-7"><path
         d="M 7.1350622e-6,3.8248487e-7 H 10.000028 V 10 H 7.1350622e-6 Z"
         clip-rule="evenodd"
         id="path26-9" /></clipPath><clipPath
       clipPathUnits="userSpaceOnUse"
       id="clipPath5"><path
         d="M 7.1350622e-6,3.8248487e-7 H 10.000028 V 10 H 7.1350622e-6 Z"
         clip-rule="evenodd"
         id="path5" /></clipPath><clipPath
       clipPathUnits="userSpaceOnUse"
       id="clipPath22-2"><path
         d="M 5.9562931e-6,3.8248487e-7 H 10.000027 V 10 H 5.9562931e-6 Z"
         clip-rule="evenodd"
         id="path22-0" /></clipPath><clipPath
       clipPathUnits="userSpaceOnUse"
       id="clipPath6"><path
         d="M 5.9562931e-6,3.8248487e-7 H 10.000027 V 10 H 5.9562931e-6 Z"
         clip-rule="evenodd"
         id="path6" /></clipPath><clipPath
       clipPathUnits="userSpaceOnUse"
       id="clipPath19-2"><path
         d="M 0,0 H 815.99997 V 1056 H 0 Z"
         id="path19-3" /></clipPath><clipPath
       clipPathUnits="userSpaceOnUse"
       id="clipPath16-7"><path
         d="M 7.9999997,7.9999997 H 807.99997 V 110 H 7.9999997 Z"
         id="path16-5" /></clipPath><clipPath
       clipPathUnits="userSpaceOnUse"
       id="clipPath15-9"><path
         d="M -1.2208602e-7,9.5708788e-7 9.9999333,7.1773103e-5 9.9999445,10.00006 -3.7149992e-5,10.000037 Z"
         id="path15-2" /></clipPath><clipPath
       clipPathUnits="userSpaceOnUse"
       id="clipPath7"><path
         d="M -1.2208602e-7,9.5708788e-7 9.9999333,7.1773103e-5 9.9999445,10.00006 -3.7149992e-5,10.000037 Z"
         id="path7" /></clipPath><clipPath
       clipPathUnits="userSpaceOnUse"
       id="clipPath12-2"><path
         d="M -1.1000895e-6,-1.044296e-6 H 10.00002 V 9.9999989 H -1.1000895e-6 Z"
         clip-rule="evenodd"
         id="path12-8" /></clipPath><clipPath
       clipPathUnits="userSpaceOnUse"
       id="clipPath8-9"><path
         d="M -1.1000895e-6,-1.044296e-6 H 10.00002 V 9.9999989 H -1.1000895e-6 Z"
         clip-rule="evenodd"
         id="path8-7" /></clipPath><clipPath
       clipPathUnits="userSpaceOnUse"
       id="clipPath9"><path
         d="M -4.5502862e-6,9.680997e-8 H 10.000016 V 10 H -4.5502862e-6 Z"
         clip-rule="evenodd"
         id="path9" /></clipPath><clipPath
       clipPathUnits="userSpaceOnUse"
       id="clipPath10"><path
         d="M -4.5502862e-6,9.680997e-8 H 10.000016 V 10 H -4.5502862e-6 Z"
         clip-rule="evenodd"
         id="path10" /></clipPath><clipPath
       clipPathUnits="userSpaceOnUse"
       id="clipPath11"><path
         d="M -3.8001346e-7,9.680997e-8 H 9.9999995 V 10 H -3.8001346e-7 Z"
         clip-rule="evenodd"
         id="path11" /></clipPath><clipPath
       clipPathUnits="userSpaceOnUse"
       id="clipPath13"><path
         d="M -3.8001346e-7,9.680997e-8 H 9.9999995 V 10 H -3.8001346e-7 Z"
         clip-rule="evenodd"
         id="path13" /></clipPath></defs><g
     inkscape:label="Layer 1"
     inkscape:groupmode="layer"
     id="layer1" /><g
     id="g1"
     inkscape:groupmode="layer"
     inkscape:label="1"
     transform="translate(1930)"><path
       id="path14"
       d="M -1925.5272,3.3331869 H -22.998027 V 245.90569 H -1925.5272 Z"
       style="fill:#ffffff;fill-opacity:1;fill-rule:nonzero;stroke:none;stroke-width:2.37816" /><path
       id="path17"
       d="m -1832.2845,124.96143 5.6755,-0.11534 c 5.6769,-0.11677 17.0281,-0.34751 27.5701,-0.46426 10.5407,-0.11534 20.2708,-0.11534 25.1362,-0.11534 h 4.8649"
       style="fill:none;stroke:#333333;stroke-width:1.39004;stroke-linecap:butt;stroke-linejoin:miter;stroke-miterlimit:10;stroke-dasharray:none;stroke-opacity:1" /><path
       id="path18"
       d="M 0,0 10,5 0,10 Z"
       style="fill:#333333;fill-opacity:1;fill-rule:nonzero;stroke:none"
       transform="matrix(1.1120297,0,0,1.1120297,-1774.5978,118.70627)"
       clip-path="url(#clipPath4-1)" /><path
       id="path20"
       d="M 1.118034,2.9802322e-8 2.0124612,0.44721365 1.5652476,1.3416408 0.67082047,0.89442718 Z M 2.0124612,0.44721365 2.9068885,0.89442724 2.4596748,1.7888544 1.5652476,1.3416408 Z M 2.9068885,0.89442724 3.8013158,1.3416409 3.3541021,2.236068 2.4596748,1.7888544 Z M 3.8013158,1.3416409 4.6957426,1.7888544 4.2485294,2.6832817 3.3541021,2.236068 Z M 4.6957426,1.7888544 5.5901699,2.236068 5.1429567,3.1304953 4.2485294,2.6832817 Z M 5.5901699,2.236068 6.4845972,2.6832817 6.037384,3.577709 5.1429567,3.1304953 Z M 6.4845972,2.6832817 7.3790245,3.1304953 6.9318113,4.0249224 6.037384,3.577709 Z M 7.3790245,3.1304953 8.2734518,3.5777087 7.8262382,4.472136 6.9318113,4.0249224 Z M 8.2734518,3.5777087 9.1678791,4.0249224 8.720665,4.9193497 7.8262382,4.472136 Z M 9.1678791,4.0249224 10.062306,4.472136 9.6150923,5.3665633 8.720665,4.9193497 Z M 10.062306,4.472136 11.118034,5 9.4904804,5.813777 9.0432663,4.9193497 9.7763929,4.5527864 10,5 9.7763929,5.4472136 9.6150923,5.3665633 Z M 9.4904804,5.813777 8.5960531,6.2609906 8.148839,5.3665633 9.0432663,4.9193497 Z M 8.5960531,6.2609906 7.7016258,6.7082038 7.2544127,5.8137765 8.148839,5.3665633 Z M 7.7016263,6.7082038 6.807199,7.1554179 6.3599849,6.2609906 7.2544122,5.8137765 Z M 6.8071985,7.1554179 5.9127717,7.6026311 5.4655585,6.7082038 6.3599854,6.2609906 Z M 5.9127717,7.6026311 5.0183444,8.0498447 4.5711312,7.1554174 5.4655585,6.7082038 Z M 5.0183444,8.0498447 4.1239171,8.4970579 3.6767037,7.6026311 4.5711312,7.1554174 Z M 4.1239176,8.4970579 3.2294903,8.944272 2.7822762,8.0498457 3.6767035,7.6026311 Z M 3.2294898,8.944273 2.3350625,9.3914862 1.8878493,8.4970579 2.7822766,8.0498447 Z M 2.3350627,9.3914852 1.4406364,9.8386984 0.99342275,8.944272 1.8878491,8.4970589 Z M 1.4406364,9.8386984 0.54620814,10.285913 0.09899452,9.3914862 0.99342275,8.944272 Z M 0.54620814,10.285913 -0.5,10.809017 V 9.3606796 h 1 V 10 H 0 L -0.2236068,9.5527868 0.09899452,9.3914862 Z M -0.5,9.3606796 v -1 h 1 v 1 z m 0,-1 v -1 h 1 v 1 z m 0,-1 v -1 h 1 v 1 z m 0,-1 v -1 h 1 v 1 z m 0,-1 v -1 h 1 v 1 z m 0,-1 v -1 h 1 v 1 z m 0,-1 v -1 h 1 v 1 z m 0,-1 v -1 h 1 v 1 z m 0,-1 V 0.36067963 h 1 V 1.3606796 Z m 0,-0.99999997 V -0.809017 L 1.118034,2.9802322e-8 0.67082047,0.89442718 -0.2236068,0.44721359 0,0 h 0.5 v 0.36067963 z"
       style="fill:#333333;fill-opacity:1;fill-rule:nonzero;stroke:none"
       transform="matrix(1.1120297,0,0,1.1120297,-1774.5978,118.70627)"
       clip-path="url(#clipPath4-1)" /><path
       id="path21"
       d="m -1493.3768,124.26641 h 5.7923 c 5.7922,0 17.3756,0 28.0331,0 10.6558,0 20.3861,0 25.2512,0 h 4.8652"
       style="fill:none;stroke:#333333;stroke-width:1.39004;stroke-linecap:butt;stroke-linejoin:miter;stroke-miterlimit:10;stroke-dasharray:none;stroke-opacity:1" /><path
       id="path23"
       d="M 0,0 10,5 0,10 Z"
       style="fill:#333333;fill-opacity:1;fill-rule:nonzero;stroke:none"
       transform="matrix(1.1120297,0,0,1.1120297,-1434.9953,118.70627)"
       clip-path="url(#clipPath8-9)" /><path
       id="path24"
       d="M 1.118034,2.9802322e-8 2.0124612,0.44721365 1.5652476,1.3416408 0.67082047,0.89442718 Z M 2.0124612,0.44721365 2.9068885,0.89442724 2.4596748,1.7888544 1.5652476,1.3416408 Z M 2.9068885,0.89442724 3.8013158,1.3416409 3.3541021,2.236068 2.4596748,1.7888544 Z M 3.8013158,1.3416409 4.6957426,1.7888544 4.2485294,2.6832817 3.3541021,2.236068 Z M 4.6957426,1.7888544 5.5901699,2.236068 5.1429567,3.1304953 4.2485294,2.6832817 Z M 5.5901699,2.236068 6.4845972,2.6832817 6.037384,3.577709 5.1429567,3.1304953 Z M 6.4845972,2.6832817 7.3790245,3.1304953 6.9318113,4.0249224 6.037384,3.577709 Z M 7.3790245,3.1304953 8.2734518,3.5777087 7.8262382,4.472136 6.9318113,4.0249224 Z M 8.2734518,3.5777087 9.1678791,4.0249224 8.720665,4.9193497 7.8262382,4.472136 Z M 9.1678791,4.0249224 10.062306,4.472136 9.6150923,5.3665633 8.720665,4.9193497 Z M 10.062306,4.472136 11.118034,5 9.4904804,5.813777 9.0432663,4.9193497 9.7763929,4.5527864 10,5 9.7763929,5.4472136 9.6150923,5.3665633 Z M 9.4904804,5.813777 8.5960531,6.2609906 8.148839,5.3665633 9.0432663,4.9193497 Z M 8.5960531,6.2609906 7.7016258,6.7082038 7.2544127,5.8137765 8.148839,5.3665633 Z M 7.7016263,6.7082038 6.807199,7.1554179 6.3599849,6.2609906 7.2544122,5.8137765 Z M 6.8071985,7.1554179 5.9127717,7.6026311 5.4655585,6.7082038 6.3599854,6.2609906 Z M 5.9127717,7.6026311 5.0183444,8.0498447 4.5711312,7.1554174 5.4655585,6.7082038 Z M 5.0183444,8.0498447 4.1239171,8.4970579 3.6767037,7.6026311 4.5711312,7.1554174 Z M 4.1239176,8.4970579 3.2294903,8.944272 2.7822762,8.0498457 3.6767035,7.6026311 Z M 3.2294898,8.944273 2.3350625,9.3914862 1.8878493,8.4970579 2.7822766,8.0498447 Z M 2.3350627,9.3914852 1.4406364,9.8386984 0.99342275,8.944272 1.8878491,8.4970589 Z M 1.4406364,9.8386984 0.54620814,10.285913 0.09899452,9.3914862 0.99342275,8.944272 Z M 0.54620814,10.285913 -0.5,10.809017 V 9.3606796 h 1 V 10 H 0 L -0.2236068,9.5527868 0.09899452,9.3914862 Z M -0.5,9.3606796 v -1 h 1 v 1 z m 0,-1 v -1 h 1 v 1 z m 0,-1 v -1 h 1 v 1 z m 0,-1 v -1 h 1 v 1 z m 0,-1 v -1 h 1 v 1 z m 0,-1 v -1 h 1 v 1 z m 0,-1 v -1 h 1 v 1 z m 0,-1 v -1 h 1 v 1 z m 0,-1 V 0.36067963 h 1 V 1.3606796 Z m 0,-0.99999997 V -0.809017 L 1.118034,2.9802322e-8 0.67082047,0.89442718 -0.2236068,0.44721359 0,0 h 0.5 v 0.36067963 z"
       style="fill:#333333;fill-opacity:1;fill-rule:nonzero;stroke:none"
       transform="matrix(1.1120297,0,0,1.1120297,-1434.9953,118.70627)"
       clip-path="url(#clipPath8-9)" /><path
       id="path25"
       d="m -1304.3692,97.014723 12.7036,-7.504812 c 12.7035,-7.504789 38.1092,-22.515815 77.9753,-30.020627 39.8663,-7.504811 94.1946,-7.504811 149.1762,-7.504811 54.9829,0 110.62049,0 167.38953,0 56.7691,0 114.66852,0 169.54436,0 54.87584,0 106.7269,0 137.51766,0 30.79077,0 40.52102,0 45.38604,0 h 4.86524"
       style="fill:none;stroke:#333333;stroke-width:1.39004;stroke-linecap:butt;stroke-linejoin:miter;stroke-miterlimit:10;stroke-dasharray:none;stroke-opacity:1" /><path
       id="path27"
       d="M 0,0 10,5 0,10 Z"
       style="fill:#333333;fill-opacity:1;fill-rule:nonzero;stroke:none"
       transform="matrix(1.1120297,0,0,1.1120297,-545.37165,46.424332)"
       clip-path="url(#clipPath12-2)" /><path
       id="path28"
       d="M 1.118034,2.9802322e-8 2.0124612,0.44721365 1.5652476,1.3416408 0.67082047,0.89442718 Z M 2.0124612,0.44721365 2.9068885,0.89442724 2.4596748,1.7888544 1.5652476,1.3416408 Z M 2.9068885,0.89442724 3.8013158,1.3416409 3.3541021,2.236068 2.4596748,1.7888544 Z M 3.8013158,1.3416409 4.6957426,1.7888544 4.2485294,2.6832817 3.3541021,2.236068 Z M 4.6957426,1.7888544 5.5901699,2.236068 5.1429567,3.1304953 4.2485294,2.6832817 Z M 5.5901699,2.236068 6.4845972,2.6832817 6.037384,3.577709 5.1429567,3.1304953 Z M 6.4845972,2.6832817 7.3790245,3.1304953 6.9318113,4.0249224 6.037384,3.577709 Z M 7.3790245,3.1304953 8.2734518,3.5777087 7.8262382,4.472136 6.9318113,4.0249224 Z M 8.2734518,3.5777087 9.1678791,4.0249224 8.720665,4.9193497 7.8262382,4.472136 Z M 9.1678791,4.0249224 10.062306,4.472136 9.6150923,5.3665633 8.720665,4.9193497 Z M 10.062306,4.472136 11.118034,5 9.4904804,5.813777 9.0432663,4.9193497 9.7763929,4.5527864 10,5 9.7763929,5.4472136 9.6150923,5.3665633 Z M 9.4904804,5.813777 8.5960531,6.2609906 8.148839,5.3665633 9.0432663,4.9193497 Z M 8.5960531,6.2609906 7.7016258,6.7082038 7.2544127,5.8137765 8.148839,5.3665633 Z M 7.7016263,6.7082038 6.807199,7.1554179 6.3599849,6.2609906 7.2544122,5.8137765 Z M 6.8071985,7.1554179 5.9127717,7.6026311 5.4655585,6.7082038 6.3599854,6.2609906 Z M 5.9127717,7.6026311 5.0183444,8.0498447 4.5711312,7.1554174 5.4655585,6.7082038 Z M 5.0183444,8.0498447 4.1239171,8.4970579 3.6767037,7.6026311 4.5711312,7.1554174 Z M 4.1239176,8.4970579 3.2294903,8.944272 2.7822762,8.0498457 3.6767035,7.6026311 Z M 3.2294898,8.944273 2.3350625,9.3914862 1.8878493,8.4970579 2.7822766,8.0498447 Z M 2.3350627,9.3914852 1.4406364,9.8386984 0.99342275,8.944272 1.8878491,8.4970589 Z M 1.4406364,9.8386984 0.54620814,10.285913 0.09899452,9.3914862 0.99342275,8.944272 Z M 0.54620814,10.285913 -0.5,10.809017 V 9.3606796 h 1 V 10 H 0 L -0.2236068,9.5527868 0.09899452,9.3914862 Z M -0.5,9.3606796 v -1 h 1 v 1 z m 0,-1 v -1 h 1 v 1 z m 0,-1 v -1 h 1 v 1 z m 0,-1 v -1 h 1 v 1 z m 0,-1 v -1 h 1 v 1 z m 0,-1 v -1 h 1 v 1 z m 0,-1 v -1 h 1 v 1 z m 0,-1 v -1 h 1 v 1 z m 0,-1 V 0.36067963 h 1 V 1.3606796 Z m 0,-0.99999997 V -0.809017 L 1.118034,2.9802322e-8 0.67082047,0.89442718 -0.2236068,0.44721359 0,0 h 0.5 v 0.36067963 z"
       style="fill:#333333;fill-opacity:1;fill-rule:nonzero;stroke:none"
       transform="matrix(1.1120297,0,0,1.1120297,-545.37165,46.424332)"
       clip-path="url(#clipPath12-2)" /><path
       id="path29"
       d="m -177.6413,51.984473 h 5.79224 c 5.79226,0 17.37556,0 30.69493,7.584052 13.31772,7.585431 28.37194,22.754915 35.89906,30.338943 l 7.527125,7.585431"
       style="fill:none;stroke:#333333;stroke-width:1.39004;stroke-linecap:butt;stroke-linejoin:miter;stroke-miterlimit:10;stroke-dasharray:none;stroke-opacity:1" /><g
       id="g19"
       clip-path="url(#clipPath19-2)"
       transform="matrix(2.3781615,0,0,2.3781615,-1944.5526,-15.692105)"><g
         clip-path="url(#clipPath16-7)"
         id="g18"><path
           d="M 0,0 10,5 0,10 Z"
           style="fill:#333333;fill-opacity:1;fill-rule:nonzero;stroke:none"
           transform="matrix(0.32936133,0.33192076,-0.33192076,0.32936133,776.58928,44.287083)"
           clip-path="url(#clipPath15-9)"
           id="path31" /><path
           d="M 1.118034,2.9802322e-8 2.0124612,0.44721365 1.5652476,1.3416408 0.67082047,0.89442718 Z M 2.0124612,0.44721365 2.9068885,0.89442724 2.4596748,1.7888544 1.5652476,1.3416408 Z M 2.9068885,0.89442724 3.8013158,1.3416409 3.3541021,2.236068 2.4596748,1.7888544 Z M 3.8013158,1.3416409 4.6957426,1.7888544 4.2485294,2.6832817 3.3541021,2.236068 Z M 4.6957426,1.7888544 5.5901699,2.236068 5.1429567,3.1304953 4.2485294,2.6832817 Z M 5.5901699,2.236068 6.4845972,2.6832817 6.037384,3.577709 5.1429567,3.1304953 Z M 6.4845972,2.6832817 7.3790245,3.1304953 6.9318113,4.0249224 6.037384,3.577709 Z M 7.3790245,3.1304953 8.2734518,3.5777087 7.8262382,4.472136 6.9318113,4.0249224 Z M 8.2734518,3.5777087 9.1678791,4.0249224 8.720665,4.9193497 7.8262382,4.472136 Z M 9.1678791,4.0249224 10.062306,4.472136 9.6150923,5.3665633 8.720665,4.9193497 Z M 10.062306,4.472136 11.118034,5 9.4904804,5.813777 9.0432663,4.9193497 9.7763929,4.5527864 10,5 9.7763929,5.4472136 9.6150923,5.3665633 Z M 9.4904804,5.813777 8.5960531,6.2609906 8.148839,5.3665633 9.0432663,4.9193497 Z M 8.5960531,6.2609906 7.7016258,6.7082038 7.2544127,5.8137765 8.148839,5.3665633 Z M 7.7016263,6.7082038 6.807199,7.1554179 6.3599849,6.2609906 7.2544122,5.8137765 Z M 6.8071985,7.1554179 5.9127717,7.6026311 5.4655585,6.7082038 6.3599854,6.2609906 Z M 5.9127717,7.6026311 5.0183444,8.0498447 4.5711312,7.1554174 5.4655585,6.7082038 Z M 5.0183444,8.0498447 4.1239171,8.4970579 3.6767037,7.6026311 4.5711312,7.1554174 Z M 4.1239176,8.4970579 3.2294903,8.944272 2.7822762,8.0498457 3.6767035,7.6026311 Z M 3.2294898,8.944273 2.3350625,9.3914862 1.8878493,8.4970579 2.7822766,8.0498447 Z M 2.3350627,9.3914852 1.4406364,9.8386984 0.99342275,8.944272 1.8878491,8.4970589 Z M 1.4406364,9.8386984 0.54620814,10.285913 0.09899452,9.3914862 0.99342275,8.944272 Z M 0.54620814,10.285913 -0.5,10.809017 V 9.3606796 h 1 V 10 H 0 L -0.2236068,9.5527868 0.09899452,9.3914862 Z M -0.5,9.3606796 v -1 h 1 v 1 z m 0,-1 v -1 h 1 v 1 z m 0,-1 v -1 h 1 v 1 z m 0,-1 v -1 h 1 v 1 z m 0,-1 v -1 h 1 v 1 z m 0,-1 v -1 h 1 v 1 z m 0,-1 v -1 h 1 v 1 z m 0,-1 v -1 h 1 v 1 z m 0,-1 V 0.36067963 h 1 V 1.3606796 Z m 0,-0.99999997 V -0.809017 L 1.118034,2.9802322e-8 0.67082047,0.89442718 -0.2236068,0.44721359 0,0 h 0.5 v 0.36067963 z"
           style="fill:#333333;fill-opacity:1;fill-rule:nonzero;stroke:none"
           transform="matrix(0.32936133,0.33192076,-0.33192076,0.32936133,776.58928,44.287083)"
           clip-path="url(#clipPath15-9)"
           id="path32" /></g></g><path
       id="path35"
       d="m -1304.3692,151.5181 12.7036,7.50481 c 12.7035,7.50482 38.1092,22.51583 58.0464,30.02065 19.9373,7.50481 34.4063,7.50481 41.6402,7.50481 h 7.2351"
       style="fill:none;stroke:#333333;stroke-width:1.39004;stroke-linecap:butt;stroke-linejoin:miter;stroke-miterlimit:10;stroke-dasharray:none;stroke-opacity:1" /><path
       id="path36"
       d="M 0,0 10,5 0,10 Z"
       style="fill:#333333;fill-opacity:1;fill-rule:nonzero;stroke:none"
       transform="matrix(1.1120297,0,0,1.1120297,-1190.3044,190.9882)"
       clip-path="url(#clipPath22-2)" /><path
       id="path38"
       d="M 1.118034,2.9802322e-8 2.0124612,0.44721365 1.5652476,1.3416408 0.67082047,0.89442718 Z M 2.0124612,0.44721365 2.9068885,0.89442724 2.4596748,1.7888544 1.5652476,1.3416408 Z M 2.9068885,0.89442724 3.8013158,1.3416409 3.3541021,2.236068 2.4596748,1.7888544 Z M 3.8013158,1.3416409 4.6957426,1.7888544 4.2485294,2.6832817 3.3541021,2.236068 Z M 4.6957426,1.7888544 5.5901699,2.236068 5.1429567,3.1304953 4.2485294,2.6832817 Z M 5.5901699,2.236068 6.4845972,2.6832817 6.037384,3.577709 5.1429567,3.1304953 Z M 6.4845972,2.6832817 7.3790245,3.1304953 6.9318113,4.0249224 6.037384,3.577709 Z M 7.3790245,3.1304953 8.2734518,3.5777087 7.8262382,4.472136 6.9318113,4.0249224 Z M 8.2734518,3.5777087 9.1678791,4.0249224 8.720665,4.9193497 7.8262382,4.472136 Z M 9.1678791,4.0249224 10.062306,4.472136 9.6150923,5.3665633 8.720665,4.9193497 Z M 10.062306,4.472136 11.118034,5 9.4904804,5.813777 9.0432663,4.9193497 9.7763929,4.5527864 10,5 9.7763929,5.4472136 9.6150923,5.3665633 Z M 9.4904804,5.813777 8.5960531,6.2609906 8.148839,5.3665633 9.0432663,4.9193497 Z M 8.5960531,6.2609906 7.7016258,6.7082038 7.2544127,5.8137765 8.148839,5.3665633 Z M 7.7016263,6.7082038 6.807199,7.1554179 6.3599849,6.2609906 7.2544122,5.8137765 Z M 6.8071985,7.1554179 5.9127717,7.6026311 5.4655585,6.7082038 6.3599854,6.2609906 Z M 5.9127717,7.6026311 5.0183444,8.0498447 4.5711312,7.1554174 5.4655585,6.7082038 Z M 5.0183444,8.0498447 4.1239171,8.4970579 3.6767037,7.6026311 4.5711312,7.1554174 Z M 4.1239176,8.4970579 3.2294903,8.944272 2.7822762,8.0498457 3.6767035,7.6026311 Z M 3.2294898,8.944273 2.3350625,9.3914862 1.8878493,8.4970579 2.7822766,8.0498447 Z M 2.3350627,9.3914852 1.4406364,9.8386984 0.99342275,8.944272 1.8878491,8.4970589 Z M 1.4406364,9.8386984 0.54620814,10.285913 0.09899452,9.3914862 0.99342275,8.944272 Z M 0.54620814,10.285913 -0.5,10.809017 V 9.3606796 h 1 V 10 H 0 L -0.2236068,9.5527868 0.09899452,9.3914862 Z M -0.5,9.3606796 v -1 h 1 v 1 z m 0,-1 v -1 h 1 v 1 z m 0,-1 v -1 h 1 v 1 z m 0,-1 v -1 h 1 v 1 z m 0,-1 v -1 h 1 v 1 z m 0,-1 v -1 h 1 v 1 z m 0,-1 v -1 h 1 v 1 z m 0,-1 v -1 h 1 v 1 z m 0,-1 V 0.36067963 h 1 V 1.3606796 Z m 0,-0.99999997 V -0.809017 L 1.118034,2.9802322e-8 0.67082047,0.89442718 -0.2236068,0.44721359 0,0 h 0.5 v 0.36067963 z"
       style="fill:#333333;fill-opacity:1;fill-rule:nonzero;stroke:none"
       transform="matrix(1.1120297,0,0,1.1120297,-1190.3044,190.9882)"
       clip-path="url(#clipPath22-2)" /><path
       id="path40"
       d="m -951.15381,196.54837 h 8.81702 c 8.81562,0 26.44828,0 43.15369,0 16.70682,0 32.48521,0 40.37499,0 h 7.88979"
       style="fill:none;stroke:#333333;stroke-width:1.39004;stroke-linecap:butt;stroke-linejoin:miter;stroke-miterlimit:10;stroke-dasharray:none;stroke-opacity:1" /><path
       id="path41"
       d="M 0,0 10,5 0,10 Z"
       style="fill:#333333;fill-opacity:1;fill-rule:nonzero;stroke:none"
       transform="matrix(1.1120297,0,0,1.1120297,-856.47846,190.9882)"
       clip-path="url(#clipPath26-7)" /><path
       id="path43"
       d="M 1.118034,2.9802322e-8 2.0124612,0.44721365 1.5652476,1.3416408 0.67082047,0.89442718 Z M 2.0124612,0.44721365 2.9068885,0.89442724 2.4596748,1.7888544 1.5652476,1.3416408 Z M 2.9068885,0.89442724 3.8013158,1.3416409 3.3541021,2.236068 2.4596748,1.7888544 Z M 3.8013158,1.3416409 4.6957426,1.7888544 4.2485294,2.6832817 3.3541021,2.236068 Z M 4.6957426,1.7888544 5.5901699,2.236068 5.1429567,3.1304953 4.2485294,2.6832817 Z M 5.5901699,2.236068 6.4845972,2.6832817 6.037384,3.577709 5.1429567,3.1304953 Z M 6.4845972,2.6832817 7.3790245,3.1304953 6.9318113,4.0249224 6.037384,3.577709 Z M 7.3790245,3.1304953 8.2734518,3.5777087 7.8262382,4.472136 6.9318113,4.0249224 Z M 8.2734518,3.5777087 9.1678791,4.0249224 8.720665,4.9193497 7.8262382,4.472136 Z M 9.1678791,4.0249224 10.062306,4.472136 9.6150923,5.3665633 8.720665,4.9193497 Z M 10.062306,4.472136 11.118034,5 9.4904804,5.813777 9.0432663,4.9193497 9.7763929,4.5527864 10,5 9.7763929,5.4472136 9.6150923,5.3665633 Z M 9.4904804,5.813777 8.5960531,6.2609906 8.148839,5.3665633 9.0432663,4.9193497 Z M 8.5960531,6.2609906 7.7016258,6.7082038 7.2544127,5.8137765 8.148839,5.3665633 Z M 7.7016263,6.7082038 6.807199,7.1554179 6.3599849,6.2609906 7.2544122,5.8137765 Z M 6.8071985,7.1554179 5.9127717,7.6026311 5.4655585,6.7082038 6.3599854,6.2609906 Z M 5.9127717,7.6026311 5.0183444,8.0498447 4.5711312,7.1554174 5.4655585,6.7082038 Z M 5.0183444,8.0498447 4.1239171,8.4970579 3.6767037,7.6026311 4.5711312,7.1554174 Z M 4.1239176,8.4970579 3.2294903,8.944272 2.7822762,8.0498457 3.6767035,7.6026311 Z M 3.2294898,8.944273 2.3350625,9.3914862 1.8878493,8.4970579 2.7822766,8.0498447 Z M 2.3350627,9.3914852 1.4406364,9.8386984 0.99342275,8.944272 1.8878491,8.4970589 Z M 1.4406364,9.8386984 0.54620814,10.285913 0.09899452,9.3914862 0.99342275,8.944272 Z M 0.54620814,10.285913 -0.5,10.809017 V 9.3606796 h 1 V 10 H 0 L -0.2236068,9.5527868 0.09899452,9.3914862 Z M -0.5,9.3606796 v -1 h 1 v 1 z m 0,-1 v -1 h 1 v 1 z m 0,-1 v -1 h 1 v 1 z m 0,-1 v -1 h 1 v 1 z m 0,-1 v -1 h 1 v 1 z m 0,-1 v -1 h 1 v 1 z m 0,-1 v -1 h 1 v 1 z m 0,-1 v -1 h 1 v 1 z m 0,-1 V 0.36067963 h 1 V 1.3606796 Z m 0,-0.99999997 V -0.809017 L 1.118034,2.9802322e-8 0.67082047,0.89442718 -0.2236068,0.44721359 0,0 h 0.5 v 0.36067963 z"
       style="fill:#333333;fill-opacity:1;fill-rule:nonzero;stroke:none"
       transform="matrix(1.1120297,0,0,1.1120297,-856.47846,190.9882)"
       clip-path="url(#clipPath26-7)" /><path
       id="path44"
       d="m -603.7529,196.54837 h 5.79224 c 5.79226,0 17.37533,0 35.65722,0 18.28306,0 43.2635,0 55.75432,0 h 12.48963"
       style="fill:none;stroke:#333333;stroke-width:1.39004;stroke-linecap:butt;stroke-linejoin:miter;stroke-miterlimit:10;stroke-dasharray:none;stroke-opacity:1" /><path
       id="path45"
       d="M 0,0 10,5 0,10 Z"
       style="fill:#333333;fill-opacity:1;fill-rule:nonzero;stroke:none"
       transform="matrix(1.1120297,0,0,1.1120297,-499.61987,190.9882)"
       clip-path="url(#clipPath30-2)" /><path
       id="path46"
       d="M 1.118034,2.9802322e-8 2.0124612,0.44721365 1.5652476,1.3416408 0.67082047,0.89442718 Z M 2.0124612,0.44721365 2.9068885,0.89442724 2.4596748,1.7888544 1.5652476,1.3416408 Z M 2.9068885,0.89442724 3.8013158,1.3416409 3.3541021,2.236068 2.4596748,1.7888544 Z M 3.8013158,1.3416409 4.6957426,1.7888544 4.2485294,2.6832817 3.3541021,2.236068 Z M 4.6957426,1.7888544 5.5901699,2.236068 5.1429567,3.1304953 4.2485294,2.6832817 Z M 5.5901699,2.236068 6.4845972,2.6832817 6.037384,3.577709 5.1429567,3.1304953 Z M 6.4845972,2.6832817 7.3790245,3.1304953 6.9318113,4.0249224 6.037384,3.577709 Z M 7.3790245,3.1304953 8.2734518,3.5777087 7.8262382,4.472136 6.9318113,4.0249224 Z M 8.2734518,3.5777087 9.1678791,4.0249224 8.720665,4.9193497 7.8262382,4.472136 Z M 9.1678791,4.0249224 10.062306,4.472136 9.6150923,5.3665633 8.720665,4.9193497 Z M 10.062306,4.472136 11.118034,5 9.4904804,5.813777 9.0432663,4.9193497 9.7763929,4.5527864 10,5 9.7763929,5.4472136 9.6150923,5.3665633 Z M 9.4904804,5.813777 8.5960531,6.2609906 8.148839,5.3665633 9.0432663,4.9193497 Z M 8.5960531,6.2609906 7.7016258,6.7082038 7.2544127,5.8137765 8.148839,5.3665633 Z M 7.7016263,6.7082038 6.807199,7.1554179 6.3599849,6.2609906 7.2544122,5.8137765 Z M 6.8071985,7.1554179 5.9127717,7.6026311 5.4655585,6.7082038 6.3599854,6.2609906 Z M 5.9127717,7.6026311 5.0183444,8.0498447 4.5711312,7.1554174 5.4655585,6.7082038 Z M 5.0183444,8.0498447 4.1239171,8.4970579 3.6767037,7.6026311 4.5711312,7.1554174 Z M 4.1239176,8.4970579 3.2294903,8.944272 2.7822762,8.0498457 3.6767035,7.6026311 Z M 3.2294898,8.944273 2.3350625,9.3914862 1.8878493,8.4970579 2.7822766,8.0498447 Z M 2.3350627,9.3914852 1.4406364,9.8386984 0.99342275,8.944272 1.8878491,8.4970589 Z M 1.4406364,9.8386984 0.54620814,10.285913 0.09899452,9.3914862 0.99342275,8.944272 Z M 0.54620814,10.285913 -0.5,10.809017 V 9.3606796 h 1 V 10 H 0 L -0.2236068,9.5527868 0.09899452,9.3914862 Z M -0.5,9.3606796 v -1 h 1 v 1 z m 0,-1 v -1 h 1 v 1 z m 0,-1 v -1 h 1 v 1 z m 0,-1 v -1 h 1 v 1 z m 0,-1 v -1 h 1 v 1 z m 0,-1 v -1 h 1 v 1 z m 0,-1 v -1 h 1 v 1 z m 0,-1 v -1 h 1 v 1 z m 0,-1 V 0.36067963 h 1 V 1.3606796 Z m 0,-0.99999997 V -0.809017 L 1.118034,2.9802322e-8 0.67082047,0.89442718 -0.2236068,0.44721359 0,0 h 0.5 v 0.36067963 z"
       style="fill:#333333;fill-opacity:1;fill-rule:nonzero;stroke:none"
       transform="matrix(1.1120297,0,0,1.1120297,-499.61987,190.9882)"
       clip-path="url(#clipPath30-2)" /><path
       id="path47"
       d="m -223.39285,196.54837 h 13.41664 c 13.41781,0 40.25252,0 61.18652,-7.36304 20.93544,-7.36165 35.96993,-22.0863 43.48873,-29.44933 l 7.517368,-7.36164"
       style="fill:none;stroke:#333333;stroke-width:1.39004;stroke-linecap:butt;stroke-linejoin:miter;stroke-miterlimit:10;stroke-dasharray:none;stroke-opacity:1" /><g
       id="g37"
       clip-path="url(#clipPath37-0)"
       transform="matrix(2.3781615,0,0,2.3781615,-1944.5526,-15.692105)"><g
         clip-path="url(#clipPath34-3)"
         id="g36"><path
           d="M 0,0 10,5 0,10 Z"
           style="fill:#333333;fill-opacity:1;fill-rule:nonzero;stroke:none"
           transform="matrix(0.33408744,-0.32716338,0.32716338,0.33408744,773.24691,70.636131)"
           clip-path="url(#clipPath33-0)"
           id="path48" /><path
           d="M 1.118034,2.9802322e-8 2.0124612,0.44721365 1.5652476,1.3416408 0.67082047,0.89442718 Z M 2.0124612,0.44721365 2.9068885,0.89442724 2.4596748,1.7888544 1.5652476,1.3416408 Z M 2.9068885,0.89442724 3.8013158,1.3416409 3.3541021,2.236068 2.4596748,1.7888544 Z M 3.8013158,1.3416409 4.6957426,1.7888544 4.2485294,2.6832817 3.3541021,2.236068 Z M 4.6957426,1.7888544 5.5901699,2.236068 5.1429567,3.1304953 4.2485294,2.6832817 Z M 5.5901699,2.236068 6.4845972,2.6832817 6.037384,3.577709 5.1429567,3.1304953 Z M 6.4845972,2.6832817 7.3790245,3.1304953 6.9318113,4.0249224 6.037384,3.577709 Z M 7.3790245,3.1304953 8.2734518,3.5777087 7.8262382,4.472136 6.9318113,4.0249224 Z M 8.2734518,3.5777087 9.1678791,4.0249224 8.720665,4.9193497 7.8262382,4.472136 Z M 9.1678791,4.0249224 10.062306,4.472136 9.6150923,5.3665633 8.720665,4.9193497 Z M 10.062306,4.472136 11.118034,5 9.4904804,5.813777 9.0432663,4.9193497 9.7763929,4.5527864 10,5 9.7763929,5.4472136 9.6150923,5.3665633 Z M 9.4904804,5.813777 8.5960531,6.2609906 8.148839,5.3665633 9.0432663,4.9193497 Z M 8.5960531,6.2609906 7.7016258,6.7082038 7.2544127,5.8137765 8.148839,5.3665633 Z M 7.7016263,6.7082038 6.807199,7.1554179 6.3599849,6.2609906 7.2544122,5.8137765 Z M 6.8071985,7.1554179 5.9127717,7.6026311 5.4655585,6.7082038 6.3599854,6.2609906 Z M 5.9127717,7.6026311 5.0183444,8.0498447 4.5711312,7.1554174 5.4655585,6.7082038 Z M 5.0183444,8.0498447 4.1239171,8.4970579 3.6767037,7.6026311 4.5711312,7.1554174 Z M 4.1239176,8.4970579 3.2294903,8.944272 2.7822762,8.0498457 3.6767035,7.6026311 Z M 3.2294898,8.944273 2.3350625,9.3914862 1.8878493,8.4970579 2.7822766,8.0498447 Z M 2.3350627,9.3914852 1.4406364,9.8386984 0.99342275,8.944272 1.8878491,8.4970589 Z M 1.4406364,9.8386984 0.54620814,10.285913 0.09899452,9.3914862 0.99342275,8.944272 Z M 0.54620814,10.285913 -0.5,10.809017 V 9.3606796 h 1 V 10 H 0 L -0.2236068,9.5527868 0.09899452,9.3914862 Z M -0.5,9.3606796 v -1 h 1 v 1 z m 0,-1 v -1 h 1 v 1 z m 0,-1 v -1 h 1 v 1 z m 0,-1 v -1 h 1 v 1 z m 0,-1 v -1 h 1 v 1 z m 0,-1 v -1 h 1 v 1 z m 0,-1 v -1 h 1 v 1 z m 0,-1 v -1 h 1 v 1 z m 0,-1 V 0.36067963 h 1 V 1.3606796 Z m 0,-0.99999997 V -0.809017 L 1.118034,2.9802322e-8 0.67082047,0.89442718 -0.2236068,0.44721359 0,0 h 0.5 v 0.36067963 z"
           style="fill:#333333;fill-opacity:1;fill-rule:nonzero;stroke:none"
           transform="matrix(0.33408744,-0.32716338,0.32716338,0.33408744,773.24691,70.636131)"
           clip-path="url(#clipPath33-0)"
           id="path49" /></g></g><path
       id="path50"
       d="M 0,0 H 26 V 24 H 0 Z"
       style="fill:#ffffff;fill-opacity:1;fill-rule:nonzero;stroke:none"
       transform="matrix(1.3900371,0,0,1.3900371,-916.40242,35.304024)"
       clip-path="url(#clipPath39-2)" /><path
       id="path51"
       d="M 0,0 H 26 V 24 H 0 Z"
       style="fill:#ffffff;fill-opacity:1;fill-rule:nonzero;stroke:none"
       transform="matrix(1.3900371,0,0,1.3900371,-916.40242,35.304024)"
       clip-path="url(#clipPath39-2)" /><g
       id="g40"
       transform="matrix(2.3781615,0,0,2.3781615,-1944.5526,-15.692105)" /><text
       id="text40"
       xml:space="preserve"
       x="-916.40234"
       y="58.9347"
       style="font-size:16.6804px;stroke-width:1.39004"><tspan
         id="tspan40"
         style="font-variant:normal;font-weight:normal;font-size:22.2406px;font-family:'Liberation Sans';writing-mode:lr-tb;fill:#333333;fill-opacity:1;fill-rule:nonzero;stroke:none;stroke-width:1.39004"
         x="-916.40234"
         dx="0 -2.0416169"
         y="58.9347">Yes</tspan></text><path
       id="path52"
       d="M 0,0 H 20 V 24 H 0 Z"
       style="fill:#ffffff;fill-opacity:1;fill-rule:nonzero;stroke:none"
       transform="matrix(1.3900371,0,0,1.3900371,-1242.3661,179.8679)"
       clip-path="url(#clipPath42-9)" /><path
       id="path53"
       d="M 0,0 H 20 V 24 H 0 Z"
       style="fill:#ffffff;fill-opacity:1;fill-rule:nonzero;stroke:none"
       transform="matrix(1.3900371,0,0,1.3900371,-1242.3661,179.8679)"
       clip-path="url(#clipPath42-9)" /><g
       id="g43"
       transform="matrix(2.3781615,0,0,2.3781615,-1944.5526,-15.692105)" /><text
       id="text43"
       xml:space="preserve"
       x="-1242.3662"
       y="203.49854"
       style="font-size:16.6804px;stroke-width:1.39004"><tspan
         id="tspan43"
         style="font-variant:normal;font-weight:normal;font-size:22.2406px;font-family:'Liberation Sans';writing-mode:lr-tb;fill:#333333;fill-opacity:1;fill-rule:nonzero;stroke:none;stroke-width:1.39004"
         x="-1242.3662"
         y="203.49854">No</tspan></text><path
       id="path54"
       d="m -1887.2427,97.160695 c 10.5649,0 21.1298,0 27.1711,0 0.615,0.01902 1.2301,0.03947 1.7365,0.05565 0.4964,0.04781 0.9929,0.09584 1.7296,0.166947 0.5365,0.08679 1.0731,0.173367 1.7154,0.277317 0.4697,0.107255 0.9394,0.21451 1.6939,0.386643 0.3597,0.106782 0.7193,0.213558 1.6657,0.494395 0.5558,0.204522 1.1113,0.408973 1.6308,0.600082 0.4589,0.203332 0.9182,0.406451 1.5888,0.703341 0.4445,0.23187 0.8889,0.46374 1.5405,0.8037 0.3587,0.2176 0.7176,0.43498 1.4859,0.90072 0.5476,0.3821 1.0954,0.76421 1.425,0.99411 0.2925,0.2333 0.5853,0.46665 1.3585,1.08335 0.3115,0.28293 0.623,0.56588 1.2863,1.16818 0.4804,0.49589 0.9605,0.99181 1.2088,1.24817 0.3075,0.3612 0.6149,0.72239 1.1263,1.32304 0.278,0.3725 0.556,0.74497 1.0392,1.39252 0.226,0.34554 0.45,0.69107 0.948,1.45623 0.3073,0.54549 0.6146,1.09096 0.8526,1.51397 0.2944,0.61113 0.5886,1.2223 0.7539,1.5655 0.2283,0.56244 0.4554,1.12486 0.652,1.61055 0.1546,0.46625 0.3097,0.93248 0.5477,1.64904 0.094,0.35907 0.1878,0.71809 0.4407,1.68074 0.1074,0.54649 0.214,1.09296 0.3321,1.70552 0.066,0.51876 0.133,1.03751 0.2211,1.7233 0.041,0.62555 0.081,1.2511 0.1117,1.73401 0,0.387 0,0.774 0,1.73756 -0.035,0.54785 -0.072,1.09569 -0.1117,1.73398 -0.052,0.41226 -0.1074,0.82455 -0.2211,1.7233 -0.1238,0.63896 -0.2489,1.27792 -0.3321,1.70553 -0.1736,0.65891 -0.3456,1.31783 -0.4407,1.68073 -0.195,0.58693 -0.3897,1.17385 -0.5477,1.64905 -0.2451,0.6059 -0.4906,1.21181 -0.652,1.61057 -0.1784,0.37273 -0.3589,0.74546 -0.7539,1.56548 -0.2164,0.38307 -0.4315,0.76614 -0.8526,1.51398 -0.2797,0.42962 -0.5594,0.85923 -0.948,1.45622 -0.409,0.54807 -0.8181,1.09615 -1.0392,1.39252 -0.2878,0.33795 -0.5756,0.67593 -1.1263,1.32305 -0.2511,0.2592 -0.5021,0.51838 -1.2088,1.24818 -0.3342,0.30351 -0.6683,0.60701 -1.2863,1.16815 -0.4772,0.38058 -0.9544,0.76119 -1.3585,1.08338 -0.4587,0.32006 -0.9178,0.64011 -1.425,0.99407 -0.3816,0.23139 -0.7636,0.4628 -1.4859,0.90075 -0.4628,0.24133 -0.9253,0.48268 -1.5405,0.80368 -0.385,0.17051 -0.7701,0.34086 -1.5888,0.70334 -0.44,0.16196 -0.8802,0.32386 -1.6308,0.60011 -0.429,0.12746 -0.8583,0.2547 -1.6657,0.49437 -0.677,0.15458 -1.3541,0.30906 -1.6939,0.38664 -0.5692,0.0921 -1.1384,0.18406 -1.7154,0.27732 -0.6004,0.058 -1.2007,0.11582 -1.7296,0.16695 -0.4823,0.0143 -0.9648,0.0309 -1.7365,0.0556 -5.6826,0 -11.3651,0 -27.1711,0 -0.4991,-0.0166 -0.998,-0.032 -1.7364,-0.0556 -0.6393,-0.0615 -1.2783,-0.12344 -1.7296,-0.16695 -0.6424,-0.10397 -1.285,-0.20786 -1.7154,-0.27732 -0.67,-0.15291 -1.3401,-0.3059 -1.694,-0.38664 -0.3375,-0.10021 -0.6749,-0.20024 -1.6656,-0.49437 -0.3416,-0.12581 -0.6834,-0.25142 -1.6308,-0.60011 -0.4623,-0.20476 -0.9246,-0.40932 -1.5888,-0.70334 -0.5565,-0.29033 -1.1131,-0.58065 -1.5405,-0.80368 -0.408,-0.24735 -0.8161,-0.49467 -1.486,-0.90075 -0.3593,-0.2507 -0.7188,-0.50143 -1.4249,-0.99407 -0.4456,-0.35516 -0.8908,-0.71028 -1.3585,-1.08338 -0.4466,-0.40559 -0.8932,-0.8112 -1.2863,-1.16815 -0.2597,-0.26818 -0.5194,-0.53635 -1.2088,-1.24818 -0.2961,-0.34794 -0.5924,-0.69587 -1.1263,-1.32305 -0.304,-0.40706 -0.6076,-0.8141 -1.0394,-1.39252 -0.3286,-0.50494 -0.6572,-1.00986 -0.9478,-1.45622 -0.2284,-0.40427 -0.4554,-0.80851 -0.8526,-1.51398 -0.1759,-0.36741 -0.3538,-0.73484 -0.7539,-1.56548 -0.1878,-0.46519 -0.3766,-0.93035 -0.6521,-1.61057 -0.1284,-0.3882 -0.2577,-0.77642 -0.5477,-1.64905 -0.093,-0.35428 -0.1854,-0.70857 -0.4407,-1.68073 -0.1142,-0.58154 -0.2259,-1.16305 -0.332,-1.70553 -0.052,-0.4123 -0.1074,-0.8246 -0.2211,-1.7233 -0.035,-0.55786 -0.071,-1.11571 -0.1118,-1.73398 0,-0.59281 0,-1.1856 0,-1.73756 0.035,-0.53504 0.07,-1.07008 0.1118,-1.73401 0.074,-0.57782 0.1498,-1.15564 0.2211,-1.7233 0.1118,-0.57331 0.2235,-1.14661 0.332,-1.70552 0.102,-0.39015 0.2046,-0.78029 0.4407,-1.68074 0.1166,-0.35357 0.2354,-0.70716 0.5477,-1.64904 0.1975,-0.48526 0.3928,-0.97051 0.6521,-1.61055 0.1546,-0.32263 0.3106,-0.64527 0.7539,-1.5655 0.3065,-0.54436 0.6131,-1.08875 0.8526,-1.51397 0.2468,-0.37938 0.4939,-0.75874 0.9478,-1.45623 0.3359,-0.45013 0.672,-0.90023 1.0394,-1.39252 0.3838,-0.4508 0.7674,-0.90163 1.1263,-1.32304 0.3289,-0.33967 0.6578,-0.67932 1.2088,-1.24817 0.3867,-0.35119 0.7733,-0.70239 1.2863,-1.16818 0.537,-0.42826 1.0739,-0.85652 1.3585,-1.08335 0.4449,-0.31046 0.8901,-0.6209 1.4249,-0.99411 0.3772,-0.22854 0.7543,-0.45729 1.486,-0.90072 0.4852,-0.25316 0.9705,-0.50629 1.5405,-0.8037 0.576,-0.254916 1.1517,-0.509855 1.5888,-0.703341 0.3869,-0.142452 0.7741,-0.284809 1.6308,-0.600082 0.6268,-0.185973 1.2537,-0.372158 1.6656,-0.494395 0.4152,-0.09488 0.8305,-0.189541 1.694,-0.386643 0.6636,-0.107255 1.3274,-0.214511 1.7154,-0.277317 0.6099,-0.05874 1.2199,-0.11772 1.7296,-0.166947 0.369,-0.01189 0.7384,-0.02378 1.7364,-0.05565"
       style="fill:#ececff;fill-opacity:1;fill-rule:nonzero;stroke:#9370db;stroke-width:1.39004;stroke-linecap:butt;stroke-linejoin:miter;stroke-miterlimit:10;stroke-dasharray:none;stroke-opacity:1" /><path
       id="path55"
       d="m -1887.2427,97.160695 c 10.3449,0 20.6896,0 27.1711,0 m -27.1711,0 c 6.4451,0 12.89,0 27.1711,0 m 0,0 c 0.4565,0.01426 0.9131,0.02926 1.7365,0.05565 m -1.7365,-0.05565 c 0.3848,0.01189 0.7698,0.02472 1.7365,0.05565 m 0,0 c 0.3781,0.03639 0.756,0.073 1.7296,0.166947 m -1.7296,-0.166947 c 0.5276,0.05089 1.0554,0.101788 1.7296,0.166947 m 0,0 c 0.5234,0.08467 1.0471,0.169326 1.7154,0.277317 m -1.7154,-0.277317 c 0.3917,0.06325 0.7834,0.126755 1.7154,0.277317 m 0,0 c 0.5161,0.117719 1.032,0.235677 1.6939,0.386643 m -1.6939,-0.386643 c 0.5223,0.119145 1.0445,0.238434 1.6939,0.386643 m 0,0 c 0.3967,0.117717 0.7937,0.235675 1.6657,0.494395 m -1.6657,-0.494395 c 0.6306,0.18716 1.261,0.374273 1.6657,0.494395 m 0,0 c 0.5232,0.192631 1.0465,0.385096 1.6308,0.600082 m -1.6308,-0.600082 c 0.6397,0.235438 1.2795,0.470875 1.6308,0.600082 m 0,0 c 0.3535,0.156482 0.7072,0.313131 1.5888,0.703341 m -1.5888,-0.703341 c 0.3255,0.144116 0.6513,0.288376 1.5888,0.703341 m 0,0 c 0.3692,0.19263 0.7381,0.38516 1.5405,0.8037 m -1.5405,-0.8037 c 0.355,0.18525 0.7102,0.37046 1.5405,0.8037 m 0,0 c 0.5188,0.31453 1.0377,0.62904 1.4859,0.90072 m -1.4859,-0.90072 c 0.3009,0.1824 0.6015,0.36471 1.4859,0.90072 m 0,0 c 0.5656,0.39461 1.1313,0.78926 1.425,0.99411 m -1.425,-0.99411 c 0.468,0.3266 0.9363,0.65321 1.425,0.99411 m 0,0 c 0.4,0.31906 0.8003,0.63813 1.3585,1.08335 m -1.3585,-1.08335 c 0.4652,0.37102 0.9307,0.74201 1.3585,1.08335 m 0,0 c 0.4421,0.40141 0.884,0.80285 1.2863,1.16818 m -1.2863,-1.16818 c 0.2979,0.27053 0.596,0.54105 1.2863,1.16818 m 0,0 c 0.3417,0.35287 0.6835,0.70571 1.2088,1.24817 m -1.2088,-1.24817 c 0.3584,0.36999 0.7168,0.74001 1.2088,1.24817 m 0,0 c 0.4423,0.51956 0.8847,1.03912 1.1263,1.32304 m -1.1263,-1.32304 c 0.2259,0.26533 0.4518,0.53069 1.1263,1.32304 m 0,0 c 0.2499,0.33502 0.5002,0.67 1.0392,1.39252 m -1.0392,-1.39252 c 0.327,0.43818 0.654,0.87635 1.0392,1.39252 m 0,0 c 0.2188,0.338 0.44,0.67601 0.948,1.45623 m -0.948,-1.45623 c 0.251,0.38536 0.5018,0.77071 0.948,1.45623 m 0,0 c 0.3211,0.56998 0.6421,1.13995 0.8526,1.51397 m -0.8526,-1.51397 c 0.2449,0.43513 0.4902,0.8703 0.8526,1.51397 m 0,0 c 0.2953,0.61328 0.5907,1.22659 0.7539,1.5655 m -0.7539,-1.5655 c 0.2395,0.49698 0.4787,0.994 0.7539,1.5655 m 0,0 c 0.1997,0.49401 0.3999,0.98803 0.652,1.61055 m -0.652,-1.61055 c 0.2258,0.55882 0.4525,1.11766 0.652,1.61055 m 0,0 c 0.1784,0.53845 0.3577,1.07686 0.5477,1.64904 m -0.5477,-1.64904 c 0.1784,0.53899 0.358,1.07799 0.5477,1.64904 m 0,0 c 0.1713,0.65543 0.3437,1.31085 0.4407,1.68074 m -0.4407,-1.68074 c 0.1165,0.44627 0.2331,0.8925 0.4407,1.68074 m 0,0 c 0.074,0.37648 0.1474,0.75294 0.3321,1.70552 m -0.3321,-1.70552 c 0.1052,0.54297 0.2117,1.08595 0.3321,1.70552 m 0,0 c 0.088,0.6838 0.1759,1.3676 0.2211,1.7233 m -0.2211,-1.7233 c 0.086,0.6636 0.1712,1.32717 0.2211,1.7233 m 0,0 c 0.035,0.56787 0.073,1.1357 0.1117,1.73401 m -0.1117,-1.73401 c 0.043,0.66878 0.086,1.33758 0.1117,1.73401 m 0,0 c 0,0.66241 0,1.32485 0,1.73756 m 0,-1.73756 c 0,0.51073 0,1.02147 0,1.73756 m 0,0 c -0.024,0.37102 -0.048,0.74203 -0.1117,1.73398 m 0.1117,-1.73398 c -0.029,0.43703 -0.057,0.87407 -0.1117,1.73398 m 0,0 c -0.045,0.3505 -0.091,0.70102 -0.2211,1.7233 m 0.2211,-1.7233 c -0.084,0.65236 -0.1688,1.30471 -0.2211,1.7233 m 0,0 c -0.1167,0.59516 -0.2309,1.19031 -0.3321,1.70553 m 0.3321,-1.70553 c -0.1261,0.64355 -0.2507,1.28707 -0.3321,1.70553 m 0,0 c -0.092,0.35264 -0.1855,0.70533 -0.4407,1.68073 m 0.4407,-1.68073 c -0.1618,0.61783 -0.3242,1.23566 -0.4407,1.68073 m 0,0 c -0.1973,0.59371 -0.3943,1.18742 -0.5477,1.64905 m 0.5477,-1.64905 c -0.2069,0.62247 -0.4135,1.24492 -0.5477,1.64905 m 0,0 c -0.1855,0.45999 -0.3724,0.91999 -0.652,1.61057 m 0.652,-1.61057 c -0.2045,0.505 -0.4088,1.01001 -0.652,1.61057 m 0,0 c -0.2355,0.48786 -0.4697,0.97572 -0.7539,1.56548 m 0.7539,-1.56548 c -0.2435,0.50565 -0.4868,1.01129 -0.7539,1.56548 m 0,0 c -0.1832,0.32721 -0.3684,0.65439 -0.8526,1.51398 m 0.8526,-1.51398 c -0.313,0.55604 -0.6262,1.11207 -0.8526,1.51398 m 0,0 c -0.2521,0.38733 -0.5043,0.77467 -0.948,1.45622 m 0.948,-1.45622 c -0.2709,0.41616 -0.5418,0.83231 -0.948,1.45622 m 0,0 c -0.2571,0.34463 -0.5143,0.68922 -1.0392,1.39252 m 1.0392,-1.39252 c -0.3407,0.4566 -0.6816,0.91319 -1.0392,1.39252 m 0,0 c -0.4141,0.48628 -0.8279,0.97256 -1.1263,1.32305 m 1.1263,-1.32305 c -0.4271,0.50162 -0.854,1.00322 -1.1263,1.32305 m 0,0 c -0.2734,0.28233 -0.5468,0.56465 -1.2088,1.24818 m 1.2088,-1.24818 c -0.3492,0.36037 -0.698,0.72072 -1.2088,1.24818 m 0,0 c -0.3281,0.29797 -0.6562,0.59594 -1.2863,1.16815 m 1.2863,-1.16815 c -0.2735,0.24831 -0.5468,0.49661 -1.2863,1.16815 m 0,0 c -0.3137,0.25031 -0.6277,0.50062 -1.3585,1.08336 m 1.3585,-1.08336 c -0.3684,0.2938 -0.7368,0.58761 -1.3585,1.08336 m 0,0 c -0.3933,0.27443 -0.7866,0.54885 -1.425,0.99409 m 1.425,-0.99409 c -0.3871,0.27008 -0.7743,0.54015 -1.425,0.99409 m 0,0 c -0.536,0.32484 -1.0718,0.64966 -1.4859,0.90073 m 1.4859,-0.90073 c -0.3341,0.20238 -0.668,0.40493 -1.4859,0.90073 m 0,0 c -0.4593,0.23962 -0.9187,0.47922 -1.5405,0.8037 m 1.5405,-0.8037 c -0.3911,0.20405 -0.7823,0.40816 -1.5405,0.8037 m 0,0 c -0.4364,0.19311 -0.8728,0.38631 -1.5888,0.70334 m 1.5888,-0.70334 c -0.4576,0.20238 -0.915,0.40496 -1.5888,0.70334 m 0,0 c -0.4947,0.18193 -0.9891,0.36401 -1.6308,0.60008 m 1.6308,-0.60008 c -0.5375,0.19786 -1.0747,0.39552 -1.6308,0.60008 m 0,0 c -0.5869,0.17408 -1.1736,0.34838 -1.6657,0.4944 m 1.6657,-0.4944 c -0.4005,0.11891 -0.801,0.23782 -1.6657,0.4944 m 0,0 c -0.6302,0.14388 -1.2601,0.28761 -1.6939,0.38664 m 1.6939,-0.38664 c -0.4187,0.0956 -0.8374,0.19121 -1.6939,0.38664 m 0,0 c -0.4636,0.075 -0.927,0.14983 -1.7154,0.27732 m 1.7154,-0.27732 c -0.3494,0.0566 -0.6987,0.11296 -1.7154,0.27732 m 0,0 c -0.3808,0.0366 -0.7621,0.0735 -1.7296,0.16695 m 1.7296,-0.16695 c -0.4913,0.0473 -0.9826,0.0948 -1.7296,0.16695 m 0,0 c -0.4502,0.0143 -0.9003,0.0288 -1.7365,0.0556 m 1.7365,-0.0556 c -0.5282,0.0166 -1.0566,0.0339 -1.7365,0.0556 m 0,0 c -10.2768,0 -20.5535,0 -27.1711,0 m 27.1711,0 c -9.5702,0 -19.1404,0 -27.1711,0 m 0,0 c -0.4791,-0.0143 -0.9586,-0.0307 -1.7364,-0.0556 m 1.7364,0.0556 c -0.4587,-0.0143 -0.9176,-0.0295 -1.7364,-0.0556 m 0,0 c -0.3553,-0.0343 -0.7107,-0.0685 -1.7296,-0.16672 m 1.7296,0.16672 c -0.348,-0.0335 -0.6959,-0.0671 -1.7296,-0.16672 m 0,0 c -0.4871,-0.0787 -0.9739,-0.15744 -1.7154,-0.27731 m 1.7154,0.27731 c -0.3447,-0.0556 -0.6893,-0.11152 -1.7154,-0.27731 m 0,0 c -0.4918,-0.11224 -0.9838,-0.2245 -1.694,-0.38664 m 1.694,0.38664 c -0.537,-0.12271 -1.0743,-0.24522 -1.694,-0.38664 m 0,0 c -0.6078,-0.18051 -1.2157,-0.36082 -1.6656,-0.4944 m 1.6656,0.4944 c -0.3765,-0.11178 -0.7531,-0.22355 -1.6656,-0.4944 m 0,0 c -0.3456,-0.12723 -0.6912,-0.25432 -1.6308,-0.60008 m 1.6308,0.60008 c -0.3953,-0.14554 -0.7906,-0.29092 -1.6308,-0.60008 m 0,0 c -0.4504,-0.19952 -0.901,-0.3989 -1.5888,-0.70334 m 1.5888,0.70334 c -0.414,-0.18336 -0.8279,-0.36649 -1.5888,-0.70334 m 0,0 c -0.3661,-0.19096 -0.7323,-0.38201 -1.5405,-0.8037 m 1.5405,0.8037 c -0.5132,-0.26772 -1.0262,-0.53542 -1.5405,-0.8037 m 0,0 c -0.4921,-0.29832 -0.9841,-0.59663 -1.486,-0.90072 m 1.486,0.90072 c -0.3421,-0.20738 -0.6842,-0.41484 -1.486,-0.90072 m 0,0 c -0.506,-0.35302 -1.0119,-0.70604 -1.4249,-0.99411 m 1.4249,0.99411 c -0.389,-0.27152 -0.7784,-0.54302 -1.4249,-0.99411 m 0,0 c -0.4214,-0.33606 -0.843,-0.67213 -1.3585,-1.08335 m 1.3585,1.08335 c -0.3822,-0.30468 -0.7642,-0.6094 -1.3585,-1.08335 m 0,0 c -0.3871,-0.35152 -0.7741,-0.70302 -1.2863,-1.16817 m 1.2863,1.16817 c -0.3553,-0.32255 -0.7103,-0.64511 -1.2863,-1.16817 m 0,0 c -0.4288,-0.44281 -0.8578,-0.88565 -1.2088,-1.24818 m 1.2088,1.24818 c -0.313,-0.32307 -0.6256,-0.64614 -1.2088,-1.24818 m 0,0 c -0.4094,-0.48077 -0.8186,-0.96156 -1.1263,-1.32304 m 1.1263,1.32304 c -0.2415,-0.28352 -0.4828,-0.56705 -1.1263,-1.32304 m 0,0 c -0.3165,-0.42419 -0.6332,-0.84837 -1.0394,-1.39251 m 1.0394,1.39251 c -0.2354,-0.3147 -0.4697,-0.6294 -1.0394,-1.39251 m 0,0 c -0.2969,-0.45618 -0.5938,-0.91234 -0.9478,-1.45625 m 0.9478,1.45625 c -0.2282,-0.35137 -0.4574,-0.70273 -0.9478,-1.45625 m 0,0 c -0.2562,-0.45494 -0.5126,-0.9099 -0.8526,-1.51395 m 0.8526,1.51395 c -0.292,-0.5185 -0.5841,-1.03701 -0.8526,-1.51395 m 0,0 c -0.2189,-0.45464 -0.4381,-0.90928 -0.7539,-1.5655 m 0.7539,1.5655 c -0.2609,-0.5417 -0.5218,-1.08342 -0.7539,-1.5655 m 0,0 c -0.1927,-0.47461 -0.3843,-0.94924 -0.6521,-1.61057 m 0.6521,1.61057 c -0.1617,-0.401 -0.3249,-0.80201 -0.6521,-1.61057 m 0,0 c -0.195,-0.58569 -0.3891,-1.17137 -0.5477,-1.64904 m 0.5477,1.64904 c -0.1142,-0.34304 -0.2283,-0.68611 -0.5477,-1.64904 m 0,0 c -0.1355,-0.5151 -0.2699,-1.03018 -0.4407,-1.68073 m 0.4407,1.68073 c -0.093,-0.35886 -0.1879,-0.71769 -0.4407,-1.68073 m 0,0 c -0.126,-0.64889 -0.2527,-1.29777 -0.332,-1.70552 m 0.332,1.70552 c -0.071,-0.36753 -0.1426,-0.73505 -0.332,-1.70552 m 0,0 c -0.064,-0.50601 -0.1307,-1.01202 -0.2211,-1.7233 m 0.2211,1.7233 c -0.084,-0.65203 -0.1688,-1.30407 -0.2211,-1.7233 m 0,0 c -0.035,-0.54671 -0.07,-1.09342 -0.1118,-1.73398 m 0.1118,1.73398 c -0.03,-0.47507 -0.062,-0.95017 -0.1118,-1.73398 m 0,0 c 0,-0.60192 0,-1.2038 0,-1.73759 m 0,1.73759 c 0,-0.65889 0,-1.31776 0,-1.73759 m 0,0 c 0.031,-0.47959 0.062,-0.95923 0.1118,-1.73398 m -0.1118,1.73398 c 0.035,-0.56633 0.073,-1.13266 0.1118,-1.73398 m 0,0 c 0.088,-0.67785 0.1735,-1.3557 0.2211,-1.72329 m -0.2211,1.72329 c 0.072,-0.55188 0.1426,-1.10377 0.2211,-1.72329 m 0,0 c 0.067,-0.34474 0.1332,-0.68946 0.332,-1.70552 m -0.332,1.70552 c 0.067,-0.34491 0.1332,-0.68981 0.332,-1.70552 m 0,0 c 0.1213,-0.45882 0.2408,-0.91764 0.4407,-1.68074 m -0.4407,1.68074 c 0.157,-0.59704 0.3133,-1.1941 0.4407,-1.68074 m 0,0 c 0.1594,-0.48161 0.3199,-0.96321 0.5477,-1.64904 m -0.5477,1.64904 c 0.1546,-0.46334 0.3077,-0.9267 0.5477,-1.64904 m 0,0 c 0.2117,-0.52353 0.4238,-1.04708 0.6521,-1.61059 m -0.6521,1.61059 c 0.1332,-0.32907 0.2664,-0.65814 0.6521,-1.61059 m 0,0 c 0.2421,-0.50298 0.4844,-1.00599 0.7539,-1.56548 m -0.7539,1.56548 c 0.1593,-0.33023 0.3179,-0.66046 0.7539,-1.56548 m 0,0 c 0.3185,-0.56552 0.6369,-1.13103 0.8526,-1.51398 m -0.8526,1.51398 c 0.2771,-0.49227 0.5544,-0.98456 0.8526,-1.51398 m 0,0 c 0.2959,-0.45452 0.5917,-0.90905 0.9478,-1.45623 m -0.9478,1.45623 c 0.2282,-0.35215 0.4585,-0.70431 0.9478,-1.45623 m 0,0 c 0.2456,-0.32891 0.491,-0.65783 1.0394,-1.3925 m -1.0394,1.3925 c 0.3908,-0.52359 0.7816,-1.04719 1.0394,-1.3925 m 0,0 c 0.3797,-0.44605 0.7594,-0.89207 1.1263,-1.32306 m -1.1263,1.32306 c 0.3919,-0.46038 0.7837,-0.9208 1.1263,-1.32306 m 0,0 c 0.3456,-0.35678 0.6911,-0.71355 1.2088,-1.24818 m -1.2088,1.24818 c 0.4615,-0.47651 0.9229,-0.95306 1.2088,-1.24818 m 0,0 c 0.5008,-0.4548 1.0017,-0.90963 1.2863,-1.16816 m -1.2863,1.16816 c 0.2909,-0.26409 0.5817,-0.5282 1.2863,-1.16816 m 0,0 c 0.4481,-0.35738 0.8961,-0.71475 1.3585,-1.08334 m -1.3585,1.08334 c 0.3315,-0.26443 0.6631,-0.52888 1.3585,-1.08334 m 0,0 c 0.5417,-0.37792 1.0835,-0.75584 1.4249,-0.99411 m -1.4249,0.99411 c 0.3735,-0.26063 0.7472,-0.52124 1.4249,-0.99411 m 0,0 c 0.304,-0.18407 0.6076,-0.36833 1.486,-0.90073 m -1.486,0.90073 c 0.3335,-0.20214 0.6667,-0.40407 1.486,-0.90073 m 0,0 c 0.3751,-0.19572 0.7504,-0.39154 1.5405,-0.803693 m -1.5405,0.803693 c 0.4465,-0.23282 0.8929,-0.46583 1.5405,-0.803693 m 0,0 c 0.5566,-0.246448 1.1134,-0.492874 1.5888,-0.703341 m -1.5888,0.703341 c 0.5215,-0.230919 1.043,-0.461696 1.5888,-0.703341 m 0,0 c 0.576,-0.211894 1.1519,-0.423931 1.6308,-0.60008 m -1.6308,0.60008 c 0.3387,-0.124616 0.6771,-0.249136 1.6308,-0.60008 m 0,0 c 0.6427,-0.19073 1.2856,-0.381577 1.6656,-0.494397 m -1.6656,0.494397 c 0.4992,-0.148161 0.9983,-0.296296 1.6656,-0.494397 m 0,0 c 0.4207,-0.09608 0.8411,-0.191917 1.694,-0.386642 m -1.694,0.386642 c 0.4759,-0.108682 0.9517,-0.217364 1.694,-0.386642 m 0,0 c 0.5046,-0.08158 1.009,-0.163141 1.7154,-0.277317 m -1.7154,0.277317 c 0.6031,-0.0975 1.2062,-0.19501 1.7154,-0.277317 m 0,0 c 0.6718,-0.06493 1.3434,-0.12961 1.7296,-0.166947 m -1.7296,0.166947 c 0.5341,-0.05161 1.0682,-0.10298 1.7296,-0.166947 m 0,0 c 0.423,-0.01427 0.8462,-0.02711 1.7364,-0.05565 m -1.7364,0.05565 c 0.3709,-0.01189 0.742,-0.02378 1.7364,-0.05565"
       style="fill:#ececff;fill-opacity:1;fill-rule:nonzero;stroke:#9370db;stroke-width:1.39004;stroke-linecap:butt;stroke-linejoin:miter;stroke-miterlimit:10;stroke-dasharray:none;stroke-opacity:1" /><g
       id="g45"
       transform="matrix(2.3781615,0,0,2.3781615,-1944.5526,-15.692105)" /><text
       id="text45"
       xml:space="preserve"
       x="-1897.1466"
       y="131.2166"
       style="font-size:16.6804px;stroke-width:1.39004"><tspan
         id="tspan45"
         style="font-variant:normal;font-weight:normal;font-size:22.2406px;font-family:'Liberation Sans';writing-mode:lr-tb;fill:#333333;fill-opacity:1;fill-rule:nonzero;stroke:none;stroke-width:1.39004"
         x="-1897.1466"
         y="131.2166">Start</tspan></text><path
       id="path56"
       d="m -1763.4779,86.735405 h 270.1016 v 75.062015 h -270.1016 z"
       style="fill:#ececff;fill-opacity:1;fill-rule:nonzero;stroke:#9370db;stroke-width:1.39004;stroke-linecap:butt;stroke-linejoin:miter;stroke-miterlimit:10;stroke-dasharray:none;stroke-opacity:1" /><g
       id="g46"
       transform="matrix(2.3781615,0,0,2.3781615,-1944.5526,-15.692105)" /><text
       id="text46"
       xml:space="preserve"
       x="-1721.7766"
       y="131.2166"
       style="font-size:16.6804px;stroke-width:1.39004"><tspan
         id="tspan46"
         style="font-variant:normal;font-weight:normal;font-size:22.2406px;font-family:'Liberation Sans';writing-mode:lr-tb;fill:#333333;fill-opacity:1;fill-rule:nonzero;stroke:none;stroke-width:1.39004"
         x="-1721.7766"
         y="131.2166">Input Personal Info</tspan></text><path
       id="path57"
       d="m -1349.8009,197.64519 73.3788,-73.37874 -73.3788,-73.378785 -73.3787,73.378785 z"
       style="fill:#ececff;fill-opacity:1;fill-rule:nonzero;stroke:#9370db;stroke-width:1.39004;stroke-linecap:butt;stroke-linejoin:miter;stroke-miterlimit:10;stroke-dasharray:none;stroke-opacity:1" /><g
       id="g47"
       transform="matrix(2.3781615,0,0,2.3781615,-1944.5526,-15.692105)" /><text
       id="text47"
       xml:space="preserve"
       x="-1386.3435"
       y="131.2166"
       style="font-size:16.6804px;stroke-width:1.39004"><tspan
         id="tspan47"
         style="font-variant:normal;font-weight:normal;font-size:22.2406px;font-family:'Liberation Sans';writing-mode:lr-tb;fill:#333333;fill-opacity:1;fill-rule:nonzero;stroke:none;stroke-width:1.39004"
         x="-1386.3435"
         y="131.2166">Exists?</tspan></text><path
       id="path58"
       d="m -534.25066,14.45347 h 356.6096 v 75.062006 h -356.6096 z"
       style="fill:#ececff;fill-opacity:1;fill-rule:nonzero;stroke:#9370db;stroke-width:1.39004;stroke-linecap:butt;stroke-linejoin:miter;stroke-miterlimit:10;stroke-dasharray:none;stroke-opacity:1" /><g
       id="g48"
       transform="matrix(2.3781615,0,0,2.3781615,-1944.5526,-15.692105)" /><text
       id="text48"
       xml:space="preserve"
       x="-492.54999"
       y="58.9347"
       style="font-size:16.6804px;stroke-width:1.39004"><tspan
         id="tspan48"
         style="font-variant:normal;font-weight:normal;font-size:22.2406px;font-family:'Liberation Sans';writing-mode:lr-tb;fill:#333333;fill-opacity:1;fill-rule:nonzero;stroke:none;stroke-width:1.39004"
         x="-492.54999"
         dx="0 0 0 0 0 0 0 0 0 -1.227142"
         y="58.9347">Display: Already Registered</tspan></text><path
       id="path59"
       d="m -81.047524,97.160695 c 4.610548,0 9.221086,0 19.764428,0 0.691572,0.02141 1.382898,0.04423 1.736766,0.05565 0.381934,0.03686 0.763868,0.07372 1.729399,0.166947 0.387411,0.06255 0.774575,0.125329 1.715371,0.277317 0.372418,0.0849 0.744846,0.170038 1.693966,0.386643 0.598581,0.177648 1.196926,0.355225 1.6659,0.494395 0.519155,0.190966 1.03831,0.382123 1.630468,0.600082 0.431404,0.190965 0.862798,0.381885 1.588848,0.703341 0.532709,0.27784 1.065182,0.55565 1.54058,0.8037 0.514396,0.3118 1.028793,0.6236 1.485867,0.90072 0.380516,0.26543 0.761021,0.53086 1.425238,0.99411 0.287524,0.22949 0.575274,0.45878 1.358409,1.08335 0.315815,0.28676 0.631394,0.57352 1.286341,1.16818 0.420932,0.4346 0.841628,0.86923 1.208579,1.24817 0.375994,0.44146 0.751741,0.88292 1.126543,1.32304 0.223543,0.30118 0.44947,0.60235 1.039254,1.39252 0.292272,0.44902 0.584554,0.89802 0.947702,1.45623 0.178358,0.31701 0.357199,0.63403 0.852799,1.51397 0.190258,0.39375 0.379324,0.78751 0.753879,1.5655 0.197389,0.48995 0.39668,0.97987 0.65209,1.61055 0.206906,0.62312 0.413801,1.24624 0.547456,1.64904 0.164094,0.62097 0.325567,1.24192 0.440674,1.68074 0.08796,0.44823 0.17361,0.89641 0.332226,1.70552 0.04522,0.35778 0.0928,0.71556 0.221169,1.7233 0.03093,0.4934 0.06423,0.98677 0.111777,1.73401 0,0.5706 0,1.14121 0,1.73756 -0.03093,0.49125 -0.06187,0.98253 -0.111777,1.73398 -0.07368,0.57048 -0.147446,1.14095 -0.221169,1.7233 -0.114151,0.581 -0.225917,1.16201 -0.332226,1.70553 -0.175984,0.67109 -0.351968,1.34218 -0.440674,1.68073 -0.19739,0.59354 -0.39406,1.18706 -0.547456,1.64905 -0.147446,0.3668 -0.29703,0.73361 -0.65209,1.61057 -0.171226,0.3554 -0.342215,0.71079 -0.753879,1.56548 -0.311293,0.55265 -0.622597,1.1053 -0.852799,1.51398 -0.356972,0.5485 -0.713934,1.09702 -0.947702,1.45622 -0.258986,0.34693 -0.517962,0.69384 -1.039254,1.39252 -0.312496,0.36692 -0.624745,0.73384 -1.126543,1.32305 -0.316051,0.32658 -0.632349,0.65317 -1.208579,1.24818 -0.469448,0.42634 -0.938895,0.85269 -1.286341,1.16815 -0.510122,0.40673 -1.019997,0.81342 -1.358409,1.08338 -0.400719,0.27946 -0.801438,0.55894 -1.425238,0.99407 -0.31082,0.18859 -0.621888,0.37699 -1.485867,0.90075 -0.33199,0.17338 -0.664227,0.34647 -1.54058,0.80368 -0.405477,0.17955 -0.810954,0.35903 -1.588848,0.70334 -0.512496,0.18859 -1.02498,0.37723 -1.630468,0.60011 -0.445195,0.13222 -0.890379,0.26423 -1.6659,0.49437 -0.507501,0.11582 -1.015239,0.23163 -1.693966,0.38664 -0.460167,0.0744 -0.920346,0.14887 -1.715371,0.27732 -0.610234,0.059 -1.220469,0.11772 -1.729399,0.16695 -0.428783,0.0143 -0.857556,0.0276 -1.736766,0.0556 -7.143522,0 -14.287279,0 -19.764428,0 -0.353632,-0.0119 -0.707253,-0.0237 -1.736766,-0.0556 -0.58884,-0.0569 -1.177432,-0.11369 -1.72941,-0.16695 -0.452316,-0.073 -0.904407,-0.14625 -1.71536,-0.27732 -0.652327,-0.14887 -1.304664,-0.29775 -1.693966,-0.38664 -0.645184,-0.19145 -1.29039,-0.38296 -1.6659,-0.49437 -0.386928,-0.14246 -0.773856,-0.28485 -1.630468,-0.60011 -0.447332,-0.1981 -0.894665,-0.39603 -1.588848,-0.70334 -0.405713,-0.21166 -0.811426,-0.42331 -1.54058,-0.80368 -0.461832,-0.27988 -0.923428,-0.55976 -1.485867,-0.90075 -0.412136,-0.28745 -0.824272,-0.57489 -1.425227,-0.99407 -0.448288,-0.35763 -0.896802,-0.71523 -1.358409,-1.08338 -0.315106,-0.28609 -0.629976,-0.57218 -1.286352,-1.16815 -0.449713,-0.46447 -0.899663,-0.92896 -1.208593,-1.24818 -0.41093,-0.48265 -0.82188,-0.96531 -1.12652,-1.32305 -0.41119,-0.55091 -0.82213,-1.10182 -1.03926,-1.39252 -0.29276,-0.44983 -0.5855,-0.89966 -0.94769,-1.45622 -0.29846,-0.5298 -0.59693,-1.05961 -0.85281,-1.51398 -0.20928,-0.43193 -0.41594,-0.86387 -0.75388,-1.56548 -0.20215,-0.49851 -0.40358,-0.99704 -0.65209,-1.61057 -0.20928,-0.63058 -0.41856,-1.26112 -0.54745,-1.64905 -0.11892,-0.45059 -0.23544,-0.9012 -0.44067,-1.68073 -0.10225,-0.52012 -0.20215,-1.04022 -0.33224,-1.70553 -0.076,-0.58486 -0.14982,-1.16975 -0.22117,-1.7233 -0.0357,-0.55917 -0.0714,-1.11838 -0.11177,-1.73398 0,-0.49947 0,-0.99895 0,-1.73756 0.0356,-0.56362 0.0714,-1.12724 0.11177,-1.73401 0.0809,-0.6193 0.15934,-1.2386 0.22117,-1.7233 0.0927,-0.46967 0.18312,-0.93938 0.33224,-1.70552 0.14268,-0.54409 0.28536,-1.08816 0.44067,-1.68074 0.14744,-0.44031 0.29227,-0.88065 0.54745,-1.64904 0.24066,-0.59446 0.48133,-1.18896 0.65209,-1.61055 0.15933,-0.33269 0.32033,-0.66536 0.75388,-1.5655 0.23543,-0.41944 0.47254,-0.83885 0.85281,-1.51397 0.20927,-0.32159 0.41855,-0.64317 0.94769,-1.45623 0.38763,-0.51925 0.77504,-1.03853 1.03926,-1.39252 0.2635,-0.30954 0.52723,-0.6191 1.12652,-1.32304 0.24592,-0.25394 0.49181,-0.50787 1.208593,-1.24817 0.47659,-0.43269 0.952922,-0.86535 1.286352,-1.16818 0.285848,-0.22783 0.571461,-0.4557 1.358409,-1.08335 0.461586,-0.32197 0.923193,-0.6439 1.425227,-0.99411 0.593823,-0.35998 1.187656,-0.71996 1.485867,-0.90072 0.323194,-0.16862 0.646151,-0.33718 1.54058,-0.8037 0.626646,-0.277437 1.253529,-0.554896 1.588848,-0.703341 0.410235,-0.151015 0.820706,-0.302051 1.630468,-0.600082 0.411427,-0.122 0.822607,-0.244118 1.6659,-0.494395 0.427119,-0.0975 0.854238,-0.19501 1.693966,-0.386643 0.626173,-0.101304 1.252346,-0.202381 1.71536,-0.277317 0.364824,-0.0352 0.729863,-0.07039 1.72941,-0.166947 0.670166,-0.02141 1.340086,-0.04305 1.736766,-0.05565"
       style="fill:#ececff;fill-opacity:1;fill-rule:nonzero;stroke:#9370db;stroke-width:1.39004;stroke-linecap:butt;stroke-linejoin:miter;stroke-miterlimit:10;stroke-dasharray:none;stroke-opacity:1" /><path
       id="path60"
       d="m -81.047524,97.160695 c 6.333524,0 12.667273,0 19.764428,0 m -19.764428,0 c 4.839558,0 9.679116,0 19.764428,0 m 0,0 c 0.550066,0.01665 1.100379,0.0352 1.736766,0.05565 m -1.736766,-0.05565 c 0.582169,0.01902 1.164586,0.03734 1.736766,0.05565 m 0,0 c 0.485859,0.04685 0.971718,0.0937 1.729399,0.166947 m -1.729399,-0.166947 c 0.690145,0.06659 1.380289,0.133178 1.729399,0.166947 m 0,0 c 0.420224,0.06801 0.840211,0.135793 1.715371,0.277317 m -1.715371,-0.277317 c 0.566488,0.09156 1.132966,0.183119 1.715371,0.277317 m 0,0 c 0.356726,0.08134 0.713451,0.162904 1.693966,0.386643 m -1.693966,-0.386643 c 0.379797,0.08679 0.759346,0.173369 1.693966,0.386643 m 0,0 c 0.348638,0.103452 0.697276,0.206899 1.6659,0.494395 m -1.6659,-0.494395 c 0.357198,0.106062 0.714396,0.212131 1.6659,0.494395 m 0,0 c 0.357682,0.13175 0.715353,0.26331 1.630468,0.600082 m -1.630468,-0.600082 c 0.628311,0.231394 1.256858,0.462529 1.630468,0.600082 m 0,0 c 0.392395,0.173604 0.7848,0.347401 1.588848,0.703341 m -1.588848,-0.703341 c 0.398345,0.176221 0.796443,0.352561 1.588848,0.703341 m 0,0 c 0.365522,0.19072 0.731055,0.38129 1.54058,0.8037 m -1.54058,-0.8037 c 0.439009,0.22901 0.878017,0.45801 1.54058,0.8037 m 0,0 c 0.412372,0.25001 0.824981,0.50005 1.485867,0.90072 m -1.485867,-0.90072 c 0.438053,0.26554 0.876116,0.53111 1.485867,0.90072 m 0,0 c 0.347693,0.24258 0.695375,0.48513 1.425238,0.99411 m -1.425238,-0.99411 c 0.429504,0.29953 0.85876,0.59904 1.425238,0.99411 m 0,0 c 0.457321,0.36476 0.914642,0.72955 1.358409,1.08335 m -1.358409,-1.08335 c 0.350066,0.27925 0.700132,0.55849 1.358409,1.08335 m 0,0 c 0.409043,0.37159 0.818322,0.74315 1.286341,1.16818 m -1.286341,-1.16818 c 0.380978,0.34595 0.761719,0.6919 1.286341,1.16818 m 0,0 c 0.460414,0.47539 0.920829,0.9508 1.208579,1.24817 m -1.208579,-1.24817 c 0.273969,0.283 0.548165,0.56599 1.208579,1.24817 m 0,0 c 0.24686,0.28974 0.493474,0.57947 1.126543,1.32304 m -1.126543,-1.32304 c 0.307029,0.36063 0.614047,0.72125 1.126543,1.32304 m 0,0 c 0.209279,0.27892 0.416174,0.55783 1.039254,1.39252 m -1.039254,-1.39252 c 0.310348,0.416 0.620932,0.83198 1.039254,1.39252 m 0,0 c 0.230686,0.35653 0.463981,0.71304 0.947702,1.45623 m -0.947702,-1.45623 c 0.268729,0.41282 0.537231,0.82562 0.947702,1.45623 m 0,0 c 0.330326,0.58647 0.660651,1.17291 0.852799,1.51397 m -0.852799,-1.51397 c 0.254691,0.45198 0.509156,0.90395 0.852799,1.51397 m 0,0 c 0.183126,0.37841 0.364341,0.75685 0.753879,1.5655 m -0.753879,-1.5655 c 0.192632,0.39987 0.385027,0.79975 0.753879,1.5655 m 0,0 c 0.154588,0.38405 0.311067,0.76812 0.65209,1.61055 m -0.65209,-1.61055 c 0.185499,0.45592 0.369098,0.91184 0.65209,1.61055 m 0,0 c 0.118908,0.36006 0.239009,0.72012 0.547456,1.64904 m -0.547456,-1.64904 c 0.166478,0.50047 0.332237,1.00092 0.547456,1.64904 m 0,0 c 0.10225,0.38946 0.204521,0.77888 0.440674,1.68074 m -0.440674,-1.68074 c 0.11415,0.43409 0.228301,0.86821 0.440674,1.68074 m 0,0 c 0.116534,0.60067 0.233058,1.20132 0.332226,1.70552 m -0.332226,-1.70552 c 0.109392,0.5631 0.218795,1.12617 0.332226,1.70552 m 0,0 c 0.06895,0.53345 0.137941,1.06693 0.221169,1.7233 m -0.221169,-1.7233 c 0.06186,0.47603 0.123666,0.95201 0.221169,1.7233 m 0,0 c 0.04038,0.63761 0.08088,1.27522 0.111777,1.73399 m -0.111777,-1.73399 c 0.03566,0.54129 0.06895,1.08256 0.111777,1.73399 m 0,0 c 0,0.3911 0,0.78222 0,1.73758 m 0,-1.73758 c 0,0.67737 0,1.35472 0,1.73758 m 0,0 c -0.03093,0.47435 -0.06187,0.94871 -0.111777,1.73398 m 0.111777,-1.73398 c -0.02374,0.37871 -0.04758,0.75744 -0.111777,1.73398 m 0,0 c -0.05703,0.44279 -0.11415,0.88562 -0.221169,1.7233 m 0.221169,-1.7233 c -0.0595,0.4641 -0.118908,0.9282 -0.221169,1.7233 m 0,0 c -0.07851,0.40809 -0.159336,0.81618 -0.332226,1.70553 m 0.332226,-1.70553 c -0.0856,0.43622 -0.168841,0.87245 -0.332226,1.70553 m 0,0 c -0.116525,0.44696 -0.235433,0.89394 -0.440674,1.68073 m 0.440674,-1.68073 c -0.128425,0.48827 -0.255894,0.97656 -0.440674,1.68073 m 0,0 c -0.123667,0.37515 -0.248987,0.75031 -0.547456,1.64905 m 0.547456,-1.64905 c -0.173599,0.51974 -0.345072,1.03947 -0.547456,1.64905 m 0,0 c -0.235433,0.58342 -0.472541,1.16686 -0.65209,1.61057 m 0.65209,-1.61057 c -0.221169,0.54445 -0.44091,1.08893 -0.65209,1.61057 m 0,0 c -0.195006,0.40624 -0.391203,0.8125 -0.753879,1.56548 m 0.753879,-1.56548 c -0.180742,0.37784 -0.363858,0.75572 -0.753879,1.56548 m 0,0 c -0.185489,0.32858 -0.370033,0.6572 -0.852799,1.51398 m 0.852799,-1.51398 c -0.235432,0.41699 -0.469684,0.83397 -0.852799,1.51398 m 0,0 c -0.289661,0.44527 -0.579559,0.89054 -0.947702,1.45622 m 0.947702,-1.45622 c -0.352214,0.54137 -0.704654,1.08276 -0.947702,1.45622 m 0,0 c -0.233059,0.31268 -0.466837,0.62537 -1.039254,1.39252 m 1.039254,-1.39252 c -0.392631,0.52595 -0.785036,1.05192 -1.039254,1.39252 m 0,0 c -0.362912,0.42616 -0.725814,0.85235 -1.126543,1.32305 m 1.126543,-1.32305 c -0.302024,0.35472 -0.604059,0.70945 -1.126543,1.32305 m 0,0 c -0.385252,0.39804 -0.770763,0.79605 -1.208579,1.24818 m 1.208579,-1.24818 c -0.41974,0.43355 -0.839491,0.86709 -1.208579,1.24818 m 0,0 c -0.470393,0.42714 -0.940796,0.85429 -1.286341,1.16815 m 1.286341,-1.16815 c -0.260405,0.23639 -0.52082,0.473 -1.286341,1.16815 m 0,0 c -0.293474,0.23402 -0.587174,0.46817 -1.358409,1.08336 m 1.358409,-1.08336 c -0.473969,0.37795 -0.947938,0.75591 -1.358409,1.08336 m 0,0 c -0.291327,0.20309 -0.582653,0.40628 -1.425238,0.99409 m 1.425238,-0.99409 c -0.490381,0.34205 -0.980751,0.6841 -1.425238,0.99409 m 0,0 c -0.46659,0.28282 -0.932944,0.56563 -1.485867,0.90073 m 1.485867,-0.90073 c -0.514396,0.31187 -1.028793,0.62375 -1.485867,0.90073 m 0,0 c -0.350786,0.18288 -0.701325,0.36592 -1.54058,0.8037 m 1.54058,-0.8037 c -0.512496,0.26738 -1.024991,0.53477 -1.54058,0.8037 m 0,0 c -0.324858,0.14389 -0.649706,0.28762 -1.588848,0.70334 m 1.588848,-0.70334 c -0.551258,0.24406 -1.102753,0.48814 -1.588848,0.70334 m 0,0 c -0.360055,0.1327 -0.720346,0.26514 -1.630468,0.60008 m 1.630468,-0.60008 c -0.400955,0.14745 -0.801674,0.29511 -1.630468,0.60008 m 0,0 c -0.598817,0.17765 -1.197645,0.35544 -1.6659,0.4944 m 1.6659,-0.4944 c -0.434014,0.1289 -0.868028,0.25765 -1.6659,0.4944 m 0,0 c -0.537231,0.12271 -1.074688,0.24531 -1.693966,0.38664 m 1.693966,-0.38664 c -0.394779,0.0901 -0.789311,0.18027 -1.693966,0.38664 m 0,0 c -0.363148,0.0588 -0.726049,0.11748 -1.715371,0.27732 m 1.715371,-0.27732 c -0.457321,0.0739 -0.914406,0.14792 -1.715371,0.27732 m 0,0 c -0.487277,0.047 -0.974564,0.094 -1.729399,0.16695 m 1.729399,-0.16695 c -0.424262,0.0409 -0.84876,0.0817 -1.729399,0.16695 m 0,0 c -0.486095,0.0166 -0.971954,0.0311 -1.736766,0.0556 m 1.736766,-0.0556 c -0.609278,0.019 -1.218331,0.039 -1.736766,0.0556 m 0,0 c -4.152271,0 -8.304778,0 -19.764428,0 m 19.764428,0 c -4.773214,0 -9.546653,0 -19.764428,0 m 0,0 c -0.492045,-0.0166 -0.983833,-0.0317 -1.736766,-0.0556 m 1.736766,0.0556 c -0.44947,-0.0143 -0.898704,-0.0288 -1.736766,-0.0556 m 0,0 c -0.649244,-0.0626 -1.298714,-0.12534 -1.72941,-0.16672 m 1.72941,0.16672 c -0.462069,-0.0445 -0.924396,-0.0892 -1.72941,-0.16672 m 0,0 c -0.495837,-0.0801 -0.991448,-0.16028 -1.71536,-0.27731 m 1.71536,0.27731 c -0.406175,-0.0656 -0.812371,-0.13127 -1.71536,-0.27731 m 0,0 c -0.566478,-0.12937 -1.133202,-0.25862 -1.693966,-0.38664 m 1.693966,0.38664 c -0.451608,-0.10301 -0.902979,-0.20618 -1.693966,-0.38664 m 0,0 c -0.501314,-0.14888 -1.002393,-0.29748 -1.6659,-0.4944 m 1.6659,0.4944 c -0.378604,-0.11226 -0.756961,-0.22474 -1.6659,-0.4944 m 0,0 c -0.409763,-0.15077 -0.819514,-0.30165 -1.630468,-0.60008 m 1.630468,0.60008 c -0.526287,-0.19359 -1.052573,-0.38732 -1.630468,-0.60008 m 0,0 c -0.597636,-0.26458 -1.195261,-0.52911 -1.588848,-0.70334 m 1.588848,0.70334 c -0.554824,-0.24562 -1.109648,-0.4912 -1.588848,-0.70334 m 0,0 c -0.327704,-0.17076 -0.655183,-0.34172 -1.54058,-0.8037 m 1.54058,0.8037 c -0.391439,-0.20405 -0.782652,-0.40825 -1.54058,-0.8037 m 0,0 c -0.461123,-0.27958 -0.922483,-0.55915 -1.485867,-0.90072 m 1.485867,0.90072 c -0.364802,-0.22117 -0.729851,-0.44236 -1.485867,-0.90072 m 0,0 c -0.523913,-0.36542 -1.047589,-0.7308 -1.425227,-0.99411 m 1.425227,0.99411 c -0.309167,-0.21572 -0.618322,-0.43133 -1.425227,-0.99411 m 0,0 c -0.540797,-0.43135 -1.08183,-0.86272 -1.358409,-1.08335 m 1.358409,1.08335 c -0.341517,-0.27236 -0.683012,-0.54473 -1.358409,-1.08335 m 0,0 c -0.346028,-0.31437 -0.692282,-0.62875 -1.286352,-1.16814 m 1.286352,1.16814 c -0.494656,-0.44935 -0.989558,-0.8987 -1.286352,-1.16814 m 0,0 c -0.449233,-0.46406 -0.898703,-0.92808 -1.208593,-1.24818 m 1.208593,1.24818 c -0.364813,-0.37688 -0.729863,-0.75374 -1.208593,-1.24818 m 0,0 c -0.27419,-0.32199 -0.5484,-0.64398 -1.12652,-1.32307 m 1.12652,1.32307 c -0.38691,-0.4545 -0.77384,-0.90898 -1.12652,-1.32307 m 0,0 c -0.25708,-0.34465 -0.51441,-0.68929 -1.03926,-1.39251 m 1.03926,1.39251 c -0.31297,-0.41954 -0.62617,-0.83909 -1.03926,-1.39251 m 0,0 c -0.29584,-0.45468 -0.59192,-0.90936 -0.94769,-1.45622 m 0.94769,1.45622 c -0.35173,-0.54062 -0.70369,-1.08128 -0.94769,-1.45622 m 0,0 c -0.19264,-0.34179 -0.38503,-0.68358 -0.85281,-1.51398 m 0.85281,1.51398 c -0.29752,-0.52822 -0.59503,-1.05639 -0.85281,-1.51398 m 0,0 c -0.19026,-0.39318 -0.37861,-0.78637 -0.75388,-1.56548 m 0.75388,1.56548 c -0.22118,-0.45808 -0.44115,-0.91619 -0.75388,-1.56548 m 0,0 c -0.16885,-0.41789 -0.33842,-0.83578 -0.65209,-1.61059 m 0.65209,1.61059 c -0.23782,-0.58626 -0.47468,-1.17252 -0.65209,-1.61059 m 0,0 c -0.10941,-0.33317 -0.22118,-0.66636 -0.54745,-1.64904 m 0.54745,1.64904 c -0.12128,-0.36668 -0.24353,-0.73337 -0.54745,-1.64904 m 0,0 c -0.16648,-0.6327 -0.33176,-1.26539 -0.44067,-1.68073 m 0.44067,1.68073 c -0.0999,-0.38162 -0.19977,-0.76324 -0.44067,-1.68073 m 0,0 c -0.0857,-0.43395 -0.16885,-0.86789 -0.33224,-1.70552 m 0.33224,1.70552 c -0.0903,-0.46817 -0.18313,-0.93636 -0.33224,-1.70552 m 0,0 c -0.0642,-0.50812 -0.1308,-1.01626 -0.22117,-1.7233 m 0.22117,1.7233 c -0.0594,-0.45483 -0.11652,-0.90964 -0.22117,-1.7233 m 0,0 c -0.0286,-0.42407 -0.0548,-0.84815 -0.11177,-1.73398 m 0.11177,1.73398 c -0.0357,-0.54542 -0.0714,-1.09088 -0.11177,-1.73398 m 0,0 c 0,-0.54318 0,-1.08632 0,-1.73759 m 0,1.73759 c 0,-0.66063 0,-1.32127 0,-1.73759 m 0,0 c 0.0261,-0.4156 0.0523,-0.83121 0.11177,-1.73398 m -0.11177,1.73398 c 0.0237,-0.36027 0.0452,-0.72055 0.11177,-1.73398 m 0,0 c 0.0761,-0.58344 0.14982,-1.16686 0.22117,-1.72329 m -0.22117,1.72329 c 0.0594,-0.4696 0.12128,-0.93916 0.22117,-1.72329 m 0,0 c 0.11653,-0.59871 0.23306,-1.19741 0.33224,-1.70552 m -0.33224,1.70552 c 0.0832,-0.42748 0.16647,-0.85492 0.33224,-1.70552 m 0,0 c 0.11414,-0.43221 0.22591,-0.86442 0.44067,-1.68074 m -0.44067,1.68074 c 0.17121,-0.65048 0.34101,-1.30095 0.44067,-1.68074 m 0,0 c 0.14031,-0.41927 0.27847,-0.83856 0.54745,-1.64904 m -0.54745,1.64904 c 0.20689,-0.62625 0.41593,-1.2525 0.54745,-1.64904 m 0,0 c 0.15696,-0.38957 0.31558,-0.77914 0.65209,-1.61059 m -0.65209,1.61059 c 0.14982,-0.37045 0.30012,-0.74092 0.65209,-1.61059 m 0,0 c 0.2283,-0.47375 0.45636,-0.94754 0.75388,-1.56548 m -0.75388,1.56548 c 0.21641,-0.44859 0.43211,-0.89721 0.75388,-1.56548 m 0,0 c 0.31367,-0.55708 0.6276,-1.11417 0.85281,-1.51398 m -0.85281,1.51398 c 0.33365,-0.59239 0.66731,-1.18477 0.85281,-1.51398 m 0,0 c 0.22355,-0.3443 0.44804,-0.68864 0.94769,-1.45623 m -0.94769,1.45623 c 0.3541,-0.54433 0.70845,-1.08867 0.94769,-1.45623 m 0,0 c 0.38859,-0.52072 0.77742,-1.04144 1.03926,-1.3925 m -1.03926,1.3925 c 0.3484,-0.46673 0.6968,-0.93345 1.03926,-1.3925 m 0,0 c 0.25422,-0.29843 0.50821,-0.59684 1.12652,-1.32306 m -1.12652,1.32306 c 0.35672,-0.41901 0.71344,-0.83804 1.12652,-1.32306 m 0,0 c 0.42618,-0.44015 0.85235,-0.88033 1.208593,-1.24818 m -1.208593,1.24818 c 0.3477,-0.35912 0.69563,-0.71828 1.208593,-1.24818 m 0,0 c 0.320337,-0.29087 0.640684,-0.58177 1.286352,-1.16816 m -1.286352,1.16816 c 0.500606,-0.45461 1.001201,-0.90924 1.286352,-1.16816 m 0,0 c 0.444228,-0.35432 0.888715,-0.70864 1.358409,-1.08334 m -1.358409,1.08334 c 0.517253,-0.41244 1.034496,-0.82491 1.358409,-1.08334 m 0,0 c 0.459921,-0.32083 0.919863,-0.64164 1.425227,-0.99411 m -1.425227,0.99411 c 0.550303,-0.38383 1.100605,-0.76764 1.425227,-0.99411 m 0,0 c 0.493463,-0.29919 0.986937,-0.59837 1.485867,-0.90073 m -1.485867,0.90073 c 0.362429,-0.21974 0.724868,-0.43941 1.485867,-0.90073 m 0,0 c 0.375511,-0.19596 0.751269,-0.39194 1.54058,-0.803693 m -1.54058,0.803693 c 0.427366,-0.22283 0.854475,-0.44583 1.54058,-0.803693 m 0,0 c 0.322474,-0.142927 0.645195,-0.285665 1.588848,-0.703341 m -1.588848,0.703341 c 0.499414,-0.221168 0.999064,-0.44229 1.588848,-0.703341 m 0,0 c 0.388346,-0.142928 0.776949,-0.285926 1.630468,-0.60008 m -1.630468,0.60008 c 0.415466,-0.152915 0.830931,-0.305784 1.630468,-0.60008 m 0,0 c 0.540077,-0.16029 1.080154,-0.32053 1.6659,-0.494397 m -1.6659,0.494397 c 0.56957,-0.169089 1.139141,-0.338057 1.6659,-0.494397 m 0,0 c 0.385972,-0.088 0.771955,-0.176222 1.693966,-0.386642 m -1.693966,0.386642 c 0.625701,-0.14269 1.251391,-0.285641 1.693966,-0.386642 m 0,0 c 0.403812,-0.0654 0.807624,-0.130561 1.71536,-0.277317 m -1.71536,0.277317 c 0.357917,-0.05779 0.716071,-0.115817 1.71536,-0.277317 m 0,0 c 0.528918,-0.05114 1.058051,-0.102024 1.72941,-0.166947 m -1.72941,0.166947 c 0.419526,-0.04044 0.83903,-0.08085 1.72941,-0.166947 m 0,0 c 0.480145,-0.01427 0.9603,-0.03069 1.736766,-0.05565 m -1.736766,0.05565 c 0.565521,-0.01902 1.131054,-0.03639 1.736766,-0.05565"
       style="fill:#ececff;fill-opacity:1;fill-rule:nonzero;stroke:#9370db;stroke-width:1.39004;stroke-linecap:butt;stroke-linejoin:miter;stroke-miterlimit:10;stroke-dasharray:none;stroke-opacity:1" /><g
       id="g50"
       transform="matrix(2.3781615,0,0,2.3781615,-1944.5526,-15.692105)" /><text
       id="text50"
       xml:space="preserve"
       x="-90.951614"
       y="131.2166"
       style="font-size:16.6804px;stroke-width:1.39004"><tspan
         id="tspan50"
         style="font-variant:normal;font-weight:normal;font-size:22.2406px;font-family:'Liberation Sans';writing-mode:lr-tb;fill:#333333;fill-opacity:1;fill-rule:nonzero;stroke:none;stroke-width:1.39004"
         x="-90.951614"
         y="131.2166">End</tspan></text><path
       id="path61"
       d="m -1179.1847,159.01733 h 228.03143 v 75.06203 h -228.03143 z"
       style="fill:#ececff;fill-opacity:1;fill-rule:nonzero;stroke:#9370db;stroke-width:1.39004;stroke-linecap:butt;stroke-linejoin:miter;stroke-miterlimit:10;stroke-dasharray:none;stroke-opacity:1" /><g
       id="g51"
       transform="matrix(2.3781615,0,0,2.3781615,-1944.5526,-15.692105)" /><text
       id="text51"
       xml:space="preserve"
       x="-1137.4835"
       y="203.49854"
       style="font-size:16.6804px;stroke-width:1.39004"><tspan
         id="tspan51"
         style="font-variant:normal;font-weight:normal;font-size:22.2406px;font-family:'Liberation Sans';writing-mode:lr-tb;fill:#333333;fill-opacity:1;fill-rule:nonzero;stroke:none;stroke-width:1.39004"
         x="-1137.4835"
         y="203.49854">Create Record</tspan></text><path
       id="path62"
       d="m -845.35842,159.01733 h 241.60599 v 75.06203 h -241.60599 z"
       style="fill:#ececff;fill-opacity:1;fill-rule:nonzero;stroke:#9370db;stroke-width:1.39004;stroke-linecap:butt;stroke-linejoin:miter;stroke-miterlimit:10;stroke-dasharray:none;stroke-opacity:1" /><g
       id="g52"
       transform="matrix(2.3781615,0,0,2.3781615,-1944.5526,-15.692105)" /><text
       id="text52"
       xml:space="preserve"
       x="-803.65747"
       y="203.49854"
       style="font-size:16.6804px;stroke-width:1.39004"><tspan
         id="tspan52"
         style="font-variant:normal;font-weight:normal;font-size:22.2406px;font-family:'Liberation Sans';writing-mode:lr-tb;fill:#333333;fill-opacity:1;fill-rule:nonzero;stroke:none;stroke-width:1.39004"
         x="-803.65747"
         y="203.49854">Gen Member ID</tspan></text><path
       id="path63"
       d="m -488.49887,159.01733 h 265.10602 v 75.06203 h -265.10602 z"
       style="fill:#ececff;fill-opacity:1;fill-rule:nonzero;stroke:#9370db;stroke-width:1.39004;stroke-linecap:butt;stroke-linejoin:miter;stroke-miterlimit:10;stroke-dasharray:none;stroke-opacity:1" /><g
       id="g53"
       transform="matrix(2.3781615,0,0,2.3781615,-1944.5526,-15.692105)" /><text
       id="text53"
       xml:space="preserve"
       x="-446.79819"
       y="203.49854"
       style="font-size:16.6804px;stroke-width:1.39004"
       inkscape:export-filename="member.png"
       inkscape:export-xdpi="96"
       inkscape:export-ydpi="96"><tspan
         id="tspan53"
         style="font-variant:normal;font-weight:normal;font-size:22.2406px;font-family:'Liberation Sans';writing-mode:lr-tb;fill:#333333;fill-opacity:1;fill-rule:nonzero;stroke:none;stroke-width:1.39004"
         x="-446.79819"
         y="203.49854">Issue Library Card</tspan></text></g></svg>
